<svg width="340" height="380" viewBox="0 0 340 380" fill="none" xmlns="http://www.w3.org/2000/svg">
<g clip-path="url(#clip0_838_6124)">
<path d="M268.69 390.02L274.33 374.58C261.97 337.93 213.81 341.49 125.89 340.05C84.6 339.38 18.49 340.72 21.52 313.46C24.54 286.2 124.18 263.45 164.45 241.51C204.72 219.57 180.94 219.1 152.71 211.3C124.47 203.49 67.25 200.54 88.42 189.49C107.32 179.63 124.58 170.13 117.07 167.51C109.56 164.9 101.85 163.86 101.85 163.86L104.85 165.9C104.85 165.9 114.94 170.1 88.03 178.92C52.88 190.44 43.61 194.99 81.46 203.67C119.31 212.35 151.4 213 68.31 241.75C-5.15 267.17 -32 275.74 -32 275.74V258.25L-23.6 370.5L268.67 390.03L268.69 390.02Z" fill="#4C14B5" style="fill:#4C14B5;fill:color(display-p3 0.2980 0.0784 0.7098);fill-opacity:1;"/>
<path d="M-0.0605469 61C-0.0605469 61 56.9594 128.55 87.3895 152.81C109.839 170.72 92.2095 172.07 78.8595 167.5C61.8195 161.67 1.40945 104.62 -0.0605469 61Z" fill="#7C47E1" style="fill:#7C47E1;fill:color(display-p3 0.4862 0.2797 0.8833);fill-opacity:1;"/>
<path d="M1.57055 137.26C1.57055 137.26 15.1105 170.97 44.3105 192.93C67.8705 210.64 106.691 207.16 88.0305 215.06C75.9805 220.17 43.6105 232.78 31.0005 214.74C27.9405 210.35 7.04055 184.05 1.56055 137.26H1.57055Z" fill="#7C47E1" style="fill:#7C47E1;fill:color(display-p3 0.4862 0.2797 0.8833);fill-opacity:1;"/>
<path d="M144.92 260.23C144.92 260.23 185.82 247.35 200.52 267.51C208.82 278.9 236.22 332.27 236.22 332.27C236.22 332.27 206.89 237.02 202.65 231.08C198.41 225.14 200.1 235.27 175.48 247.21C152.97 258.12 144.92 260.22 144.92 260.22V260.23Z" fill="#7C47E1" style="fill:#7C47E1;fill:color(display-p3 0.4862 0.2797 0.8833);fill-opacity:1;"/>
<path d="M106.699 182.98C106.699 182.98 122.609 175.56 130.519 181.71C138.429 187.86 155.119 203.34 155.119 203.34C155.119 203.34 143.609 183.53 134.829 176.17C126.049 168.81 122.439 167.27 122.439 167.27C122.439 167.27 124.359 169.75 119.969 173.63C115.579 177.5 106.689 182.98 106.689 182.98H106.699Z" fill="#642EE8" style="fill:#642EE8;fill:color(display-p3 0.3922 0.1804 0.9098);fill-opacity:1;"/>
<path d="M218.17 185.7C218.17 185.7 208.8 186.69 208.53 183.79C208.27 180.89 199.49 181.45 196.63 181.59C193.76 181.73 194.6 183.78 191.74 183.66C188.87 183.54 173.85 184.95 180.27 185.71C186.68 186.48 188.34 186.9 190.8 187.45C193.26 188 193.16 185.91 198.53 186.89C203.9 187.87 209.08 189.54 214.59 188.84C220.1 188.14 234.15 186.2 218.18 185.7H218.17Z" fill="white" style="fill:white;fill:white;fill-opacity:1;"/>
<path d="M-29.9495 258.65C-30.2995 258.65 -30.6095 258.41 -30.6795 258.06C-30.7695 257.66 -30.5095 257.26 -30.0995 257.17C-29.8495 257.12 -4.06946 251.53 61.9805 233.14C82.5005 227.43 106.051 220.36 105.941 216.42C105.871 213.78 94.6805 211.3 81.7305 208.42C78.7905 207.77 75.6705 207.08 72.4005 206.33C57.4105 202.89 50.9505 199.84 50.7805 196.13C50.5305 190.7 64.6805 185.78 87.7805 178.21C104.011 172.89 105.891 169.51 105.941 168.3C105.991 167.22 104.561 166.59 104.551 166.59C104.511 166.57 104.461 166.55 104.421 166.52C63.2405 138.86 -0.00945771 62.2501 -0.639458 61.4801C-0.899458 61.1601 -0.859459 60.6901 -0.539459 60.4201C-0.219459 60.1501 0.250542 60.2001 0.520542 60.5201C1.15054 61.2901 64.2005 137.67 105.201 165.23C105.621 165.42 107.511 166.41 107.441 168.34C107.311 171.74 101.031 175.43 88.2505 179.62C70.4605 185.45 52.0705 191.48 52.2805 196.05C52.4105 198.81 59.2905 201.77 72.7405 204.86C76.0005 205.61 79.1205 206.3 82.0505 206.95C99.1305 210.73 107.341 212.72 107.441 216.37C107.531 219.93 100.191 224.05 62.3805 234.58C-3.72946 252.99 -29.5295 258.58 -29.7895 258.64C-29.8395 258.65 -29.8995 258.66 -29.9495 258.66V258.65Z" fill="#24072B" style="fill:#24072B;fill:color(display-p3 0.1412 0.0275 0.1686);fill-opacity:1;"/>
<path d="M282.001 380.65C281.681 380.65 281.381 380.44 281.281 380.12C268.771 338.83 235.831 338.04 185.981 336.86C175.141 336.6 163.921 336.34 151.831 335.64C142.131 335.08 131.521 334.95 120.291 334.81C87.1208 334.39 52.8208 333.96 42.2508 322.02C39.6708 319.1 38.5908 315.57 39.0408 311.53C41.0608 293.28 82.4308 278.38 122.431 263.98C143.881 256.25 164.141 248.96 178.091 241.36C190.761 234.46 196.921 228.75 196.391 224.4C195.611 218 180.401 214.01 165.701 210.14C162.881 209.4 160.031 208.65 157.231 207.88C147.831 205.28 135.511 203.43 124.631 201.8C104.651 198.81 93.3208 196.91 92.6008 192.65C92.2908 190.81 93.9808 189 97.9008 186.95C121.031 174.88 122.531 169.96 122.441 168.73C122.421 168.47 122.361 167.69 120.591 167.07C113.301 164.53 101.971 164.59 101.861 164.58C101.451 164.58 101.111 164.25 101.101 163.84C101.101 163.42 101.431 163.09 101.841 163.08C102.321 163.08 113.531 163.03 121.071 165.65C122.861 166.27 123.821 167.27 123.921 168.62C124.291 173.74 110.341 182.13 98.5708 188.28C94.4108 190.45 93.9508 191.79 94.0608 192.4C94.6308 195.79 110.681 198.19 124.831 200.31C135.751 201.95 148.121 203.8 157.611 206.42C160.401 207.19 163.251 207.94 166.061 208.68C181.951 212.86 196.961 216.8 197.861 224.21C198.491 229.37 192.431 235.23 178.791 242.66C164.741 250.31 144.431 257.63 122.921 265.37C83.3508 279.62 42.4408 294.35 40.5208 311.68C40.1108 315.33 41.0508 318.39 43.3708 321.01C53.4908 332.46 87.4508 332.89 120.301 333.3C131.551 333.44 142.181 333.57 151.911 334.13C163.981 334.82 175.181 335.09 186.011 335.35C210.591 335.93 231.821 336.44 248.131 342.05C265.791 348.12 276.771 360.08 282.711 379.67C282.831 380.07 282.611 380.49 282.211 380.61C282.141 380.63 282.061 380.64 281.991 380.64L282.001 380.65Z" fill="#24072B" style="fill:#24072B;fill:color(display-p3 0.1412 0.0275 0.1686);fill-opacity:1;"/>
<path d="M157.42 207.9C157.16 207.9 156.91 207.77 156.77 207.53C134.3 169.31 120.86 167.14 120.73 167.12C120.32 167.07 120.03 166.69 120.08 166.28C120.13 165.87 120.5 165.58 120.92 165.63C121.49 165.7 135.22 167.92 158.06 206.77C158.27 207.13 158.15 207.59 157.79 207.8C157.67 207.87 157.54 207.9 157.41 207.9H157.42Z" fill="#24072B" style="fill:#24072B;fill:color(display-p3 0.1412 0.0275 0.1686);fill-opacity:1;"/>
<path d="M237.49 338.29C237.15 338.29 236.84 338.06 236.76 337.71C236.62 337.12 222.58 278.77 212.43 250.44C202.52 222.78 194.34 220.68 194.26 220.66C193.86 220.57 193.6 220.18 193.68 219.78C193.76 219.38 194.15 219.11 194.54 219.19C194.9 219.26 203.53 221.16 213.84 249.94C224.01 278.35 238.07 336.78 238.21 337.37C238.31 337.77 238.06 338.18 237.66 338.27C237.6 338.28 237.54 338.29 237.48 338.29H237.49Z" fill="#24072B" style="fill:#24072B;fill:color(display-p3 0.1412 0.0275 0.1686);fill-opacity:1;"/>
<path d="M53.3197 199.58C53.2097 199.58 53.0897 199.55 52.9897 199.5C52.6697 199.34 20.4897 182.79 -0.600255 134.22C-0.770255 133.84 -0.600253 133.4 -0.210253 133.23C0.169747 133.06 0.609745 133.23 0.779745 133.62C21.6297 181.66 53.3497 198 53.6597 198.15C54.0297 198.34 54.1797 198.79 53.9897 199.16C53.8597 199.42 53.5897 199.57 53.3197 199.57V199.58Z" fill="#24072B" style="fill:#24072B;fill:color(display-p3 0.1412 0.0275 0.1686);fill-opacity:1;"/>
<path d="M38.3797 104.68C38.3797 104.68 73.6397 106.7 85.2197 106.7C96.7997 106.7 86.1997 112.49 100.39 112.49C114.58 112.49 209.55 112.49 115.4 108.59C105.22 108.17 102.75 96.7801 92.9497 98.8501C83.1497 100.92 81.9097 100.5 72.8097 96.7901C63.7197 93.0701 62.8897 99.6801 55.0297 99.6801C47.1697 99.6801 33.4297 99.3301 33.4297 99.3301L38.3797 104.69V104.68Z" fill="white" style="fill:white;fill:white;fill-opacity:1;"/>
<path d="M162.99 334.61L155.76 309.94L159.57 306.12L147.97 284.06L150.68 282.48L142.94 268.57L145.09 267.84L138.16 248.54C137.79 247.27 135.97 247.32 135.68 248.61L131.43 267.31L132.81 269.12L124.95 281.88L127.81 284.87L121.1 305.38L125.79 308.61L118.99 328.69L162.99 334.6V334.61Z" fill="white" style="fill:white;fill:white;fill-opacity:1;"/>
<path d="M136.84 200.15L134.85 198.65L138.7 187.81L137.36 187.27L139.98 180.41L138.95 180.21L140.85 170.94C140.93 170.33 141.77 170.24 141.99 170.81L145.14 179.08L144.64 180L149.06 185.32L147.96 186.87L152.36 195.8L150.43 197.58L153.21 203.1L136.84 200.14V200.15Z" fill="white" style="fill:white;fill:white;fill-opacity:1;"/>
</g>
<defs>
<clipPath id="clip0_838_6124">
<rect width="340" height="380" fill="white" style="fill:white;fill:white;fill-opacity:1;"/>
</clipPath>
</defs>
</svg>
