<svg width="340" height="380" viewBox="0 0 340 380" fill="none" xmlns="http://www.w3.org/2000/svg">
<g clip-path="url(#clip0_838_6036)">
<path d="M279.48 219.9L283.45 225.86L304.16 227.02L298.03 213.79L286.08 213.13" fill="#E1C2FB" style="fill:#E1C2FB;fill:color(display-p3 0.8824 0.7608 0.9843);fill-opacity:1;"/>
<path d="M75.3813 135.93C71.0313 135.93 68.2913 135.14 68.0913 135.08C67.6913 134.96 67.4713 134.54 67.5913 134.15C67.7113 133.75 68.1213 133.52 68.5213 133.65C68.6013 133.67 76.9113 136.06 87.6313 132.31C88.5013 132.01 89.3113 131.69 90.0713 131.35C89.2513 130.68 88.7013 129.94 88.3313 129.22C86.7313 126.1 88.0713 122.35 89.9913 120.19C91.8113 118.15 94.0713 117.38 96.0413 118.12C98.6413 119.1 100.051 120.83 100.031 123C100.001 125.89 97.4113 128.98 93.2413 131.4C95.5413 132.24 98.7313 132.48 102.661 132.06C105.261 131.78 108.481 131.07 112.211 130.25C119.701 128.6 129.031 126.54 137.261 127.38C137.671 127.42 137.971 127.79 137.931 128.2C137.891 128.61 137.521 128.92 137.111 128.87C129.111 128.06 119.921 130.08 112.531 131.71C108.761 132.54 105.501 133.26 102.821 133.55C97.3113 134.13 93.7913 133.46 91.5313 132.31C90.4713 132.83 89.3213 133.31 88.1113 133.73C83.1813 135.45 78.7813 135.94 75.3713 135.94L75.3813 135.93ZM94.5313 119.34C93.4013 119.34 92.1813 119.98 91.1113 121.18C89.5113 122.97 88.3813 126.03 89.6613 128.53C90.0813 129.35 90.7413 130.04 91.6113 130.6C96.3113 128.14 98.5113 125.12 98.5413 122.98C98.5613 121.06 96.9113 120.04 95.5213 119.52C95.2013 119.4 94.8713 119.34 94.5313 119.34Z" fill="#E1C2FB" style="fill:#E1C2FB;fill:color(display-p3 0.8824 0.7608 0.9843);fill-opacity:1;"/>
<path d="M382.93 272.12C382.93 272.12 257.31 281.87 168.51 281.87C79.7104 281.87 -28.1196 314.54 164.92 368.11C338.6 416.3 382.96 413.89 382.96 413.89" fill="#4C14B5" style="fill:#4C14B5;fill:color(display-p3 0.2980 0.0784 0.7098);fill-opacity:1;"/>
<path d="M383.001 278.6C383.001 278.6 262.791 288.35 177.861 288.35C92.9307 288.35 5.59067 314.16 174.431 342.63C341.411 370.79 382.971 371.45 382.971 371.45" fill="#5920C5" style="fill:#5920C5;fill:color(display-p3 0.3490 0.1255 0.7725);fill-opacity:1;"/>
<path d="M126.58 312.42C126.58 312.42 145.65 307.8 159.43 305.88C173.21 303.96 178.78 304.95 242.58 301.81C242.58 301.81 296.21 300.74 301.25 302.11C306.29 303.48 300.25 309.38 252.06 310.27C244.69 310.41 237.05 310.65 229.35 310.98C224.83 311.18 240.59 316.98 208.4 319.26C183.42 321.02 189.07 313.27 184.8 313.52C151.51 315.52 139.46 317.07 129.88 317.52C115.61 318.18 97.1104 316.09 105.33 315.16C117.71 313.77 126.58 312.42 126.58 312.42Z" fill="#24072B" style="fill:#24072B;fill:color(display-p3 0.1412 0.0275 0.1686);fill-opacity:1;"/>
<path d="M201.71 320.27C189.65 320.27 187.65 317.24 186.39 315.33C185.85 314.51 185.65 314.22 184.85 314.28C164.9 315.48 152.73 316.5 143.85 317.25C138 317.74 133.77 318.1 129.92 318.28C124.56 318.53 118.08 318.42 112.15 317.97C102.68 317.25 102.62 316.45 102.57 315.8C102.49 314.82 103.69 314.61 105.26 314.43C116.6 313.16 125.1 311.9 126.33 311.72L126.41 311.7C126.6 311.65 145.68 307.05 159.34 305.15C166.97 304.09 172.1 303.91 185.81 303.44C196.99 303.06 213.9 302.48 242.56 301.06C244.78 301.02 296.38 300.01 301.46 301.39C303.43 301.93 303.52 302.99 303.47 303.42C302.96 307.53 283.27 310.45 252.09 311.02C244.9 311.15 237.27 311.39 229.4 311.73C229.42 311.76 229.44 311.79 229.45 311.82C229.84 312.51 230.5 313.66 229.82 314.91C228.97 316.51 225.82 318.77 208.46 320C205.92 320.18 203.68 320.26 201.72 320.26L201.71 320.27ZM185 312.77C186.5 312.77 187.08 313.65 187.64 314.5C188.85 316.33 191.1 319.73 208.35 318.51C224.48 317.37 227.89 315.32 228.49 314.21C228.75 313.72 228.52 313.24 228.13 312.57C227.84 312.06 227.51 311.48 227.83 310.9C228.13 310.36 228.78 310.26 229.31 310.24C237.19 309.9 244.84 309.66 252.04 309.53C291.85 308.8 301.66 304.64 301.96 303.24C301.94 303.24 301.7 303.02 301.05 302.84C297.14 301.78 261.1 302.2 242.59 302.56C213.94 303.97 197.03 304.55 185.84 304.94C172.18 305.41 167.07 305.58 159.53 306.63C147.98 308.24 132.5 311.8 128.02 312.85L128.12 312.96L126.7 313.18C126.61 313.19 118.05 314.49 106.21 315.83C110.77 316.52 120.91 317.2 129.84 316.78C133.66 316.6 137.88 316.25 143.71 315.76C152.6 315.01 164.78 313.99 184.75 312.79C184.83 312.79 184.92 312.79 184.99 312.79L185 312.77Z" fill="#24072B" style="fill:#24072B;fill:color(display-p3 0.1412 0.0275 0.1686);fill-opacity:1;"/>
<path d="M123.301 226.23C123.301 226.23 145.911 222.19 161.371 269.98C161.481 270.3 161.511 270.64 161.451 270.98L158.301 292.02C158.131 293.12 158.841 294.17 159.921 294.43L166.341 296C167.451 296.27 168.591 295.64 168.921 294.53C170.341 289.83 173.601 277.21 172.781 263.27C171.731 245.62 164.571 232.97 148.851 227.35C143.441 225.42 123.311 226.22 123.311 226.22L123.301 226.23Z" fill="#24072B" style="fill:#24072B;fill:color(display-p3 0.1412 0.0275 0.1686);fill-opacity:1;"/>
<path d="M166.871 296.82C166.641 296.82 166.411 296.79 166.171 296.74L159.751 295.17C158.281 294.81 157.341 293.41 157.561 291.92L160.711 270.88C160.751 270.66 160.731 270.44 160.661 270.23C147.931 230.86 130.231 227.13 124.961 226.93C124.191 226.95 123.651 226.97 123.441 226.98H123.431L119.131 226.49L123.021 225.5H123.281C123.281 225.5 123.281 225.49 123.301 225.49C123.621 225.44 124.411 225.36 125.571 225.42C131.041 225.28 144.671 225.08 149.111 226.67C164.201 232.06 172.421 244.37 173.541 263.25C174.371 277.31 171.101 289.98 169.651 294.77C169.271 296.02 168.131 296.83 166.871 296.83V296.82ZM131.851 226.81C140.031 229.98 152.431 239.86 162.091 269.75C162.241 270.19 162.271 270.66 162.191 271.11L159.051 292.13C158.941 292.85 159.401 293.53 160.111 293.7L166.531 295.27C167.261 295.45 168.001 295.03 168.211 294.32C169.631 289.6 172.851 277.14 172.041 263.32C170.941 244.84 163.281 233.3 148.601 228.06C145.641 227 137.971 226.79 131.841 226.81H131.851Z" fill="#24072B" style="fill:#24072B;fill:color(display-p3 0.1412 0.0275 0.1686);fill-opacity:1;"/>
<path d="M266.791 232.13C266.791 232.13 283.441 225.86 296.171 238.57C309.161 251.53 308.781 265.81 306.411 277.37C304.341 287.47 297.041 303.25 281.711 306.72C270.501 309.26 261.611 305.2 255.231 301.68C242.121 294.46 239.731 284.65 238.561 281.96L238.711 266.98L251.061 246.57L266.781 232.15H266.791V232.13Z" fill="#481AA4" style="fill:#481AA4;fill:color(display-p3 0.2824 0.1020 0.6431);fill-opacity:1;"/>
<path d="M264.821 252.08C269.611 247.18 275.341 245.2 275.341 245.2C275.341 245.2 288.471 239.94 297.091 253.75C303.261 263.64 301.201 279.52 294.851 287.28C285.641 298.51 274.591 295.84 270.081 293.79C258.221 288.4 258.891 276.23 258.951 275.41" fill="#B191ED" style="fill:#B191ED;fill:color(display-p3 0.6941 0.5686 0.9294);fill-opacity:1;"/>
<path d="M168.3 296.48C168.3 296.48 221.52 289.99 241.56 280.82C241.56 280.82 243.35 277.74 240.44 269.59L244.74 269.74C244.74 269.74 267.87 279.46 275.81 282.04C281.67 283.95 287.27 278.45 288.6 275.06C290.05 271.4 289.97 262.83 283.63 260.09C274.64 256.2 257.83 249.32 249.13 245.99C242.28 243.36 234.44 247.52 234.44 247.52L229.51 246.2L170.99 251.67C170.99 251.67 173.79 263.27 172.81 272.82C171.49 285.61 167.07 294.89 167.07 294.89L168.3 296.48Z" fill="#5920C5" style="fill:#5920C5;fill:color(display-p3 0.3490 0.1255 0.7725);fill-opacity:1;"/>
<path d="M155.752 241.63C161.262 247.3 165.992 254.53 166.812 269.26C167.882 288.26 156.212 315.26 126.992 314.65C97.7715 314.04 83.1015 289.41 88.1715 263.82C93.2315 238.23 115.312 232.21 115.312 232.21C115.312 232.21 128.192 227.49 144.372 234.5" fill="#5920C5" style="fill:#5920C5;fill:color(display-p3 0.3490 0.1255 0.7725);fill-opacity:1;"/>
<path d="M125.232 243.38C125.232 243.38 111.932 233.13 107.492 235.8C106.342 236.49 105.112 237.31 103.872 238.24C97.6615 242.92 90.7515 250.85 88.1915 263.81C83.1315 289.41 97.8015 314.05 127.012 314.64C155.152 315.22 167.012 290.19 166.892 271.37C166.892 270.65 166.822 269.24 166.822 269.24L125.222 243.36L125.232 243.38Z" fill="#481AA4" style="fill:#481AA4;fill:color(display-p3 0.2824 0.1020 0.6431);fill-opacity:1;"/>
<path d="M136.671 251.39L130.401 246.88C130.401 246.88 129.311 247.05 128.741 247.17C125.301 247.93 121.401 249.71 117.821 253.48C107.521 264.35 108.701 277.77 113.281 286.36C119.081 297.26 135.551 302.15 147.621 292.01C159.691 281.87 157.441 268.42 155.761 262.28L155.331 261.07C155.331 261.07 151.241 258.33 148.431 256.86" fill="#B191ED" style="fill:#B191ED;fill:color(display-p3 0.6941 0.5686 0.9294);fill-opacity:1;"/>
<path d="M148.221 226.99L127.291 272.33C127.291 272.33 126.101 276.82 132.181 278.69C138.261 280.57 140.181 274.74 140.181 274.74L159.751 233.73L148.231 226.98L148.221 226.99Z" fill="#5920C5" style="fill:#5920C5;fill:color(display-p3 0.3490 0.1255 0.7725);fill-opacity:1;"/>
<path d="M110.591 194.91C114.351 184.45 116.541 181.79 116.541 181.79C123.411 169.14 130.791 159 133.781 156.39C133.781 156.39 136.571 157.25 141.281 156.79C143.891 156.54 146.921 156.1 149.781 155.68C154.481 155 158.701 154.38 159.751 154.81C160.791 155.24 170.621 160.12 173.211 161.43C175.801 162.74 174.501 164.7 174.121 165.23C173.741 165.76 163.041 176.61 157.571 182.22C152.101 187.84 155.241 189.65 156.081 190.35C156.911 191.05 180.081 200.37 180.081 200.37C180.081 200.37 188.001 201.82 187.371 198.27C186.861 195.45 180.981 194.13 180.981 194.13L155.251 184.63L158.841 180.94L165.131 183.47C165.131 183.47 171.201 181.34 173.691 181.23C177.341 181.07 195.151 181.03 200.371 183.09C205.591 185.14 210.721 195.79 210.721 195.79L210.251 197.93C210.251 197.93 204.931 192.48 199.841 189.24C194.751 186 175.681 188.5 175.681 188.5C175.681 188.5 182.861 191.66 184.661 192.51C186.461 193.36 188.281 197.88 186.931 199.6C185.581 201.33 180.101 200.37 180.101 200.37C200.961 209.92 206.181 216.95 206.181 216.95L203.771 227.53C203.771 227.53 179.281 212.86 166.791 207.2C153.911 201.36 145.741 196.51 123.731 200.99C115.081 202.75 106.501 206.39 110.631 194.92H110.601L110.591 194.91Z" fill="#7C47E1" style="fill:#7C47E1;fill:color(display-p3 0.4862 0.2797 0.8833);fill-opacity:1;"/>
<path d="M234.931 247.38C234.931 247.38 242.921 221.99 244.331 220.45C245.741 218.91 283.511 199.87 283.511 199.87C283.511 199.87 272.451 200.75 263.061 200.94C256.671 201.07 245.011 210.82 245.011 210.82L249.311 199.21C249.311 199.21 251.941 198.17 254.521 197.23C257.101 196.28 273.261 195.36 277.601 195.24C281.941 195.12 283.161 196.08 283.161 196.08C283.161 196.08 291.681 196.26 294.961 196.74C298.231 197.23 296.211 200.59 296.211 200.59C296.211 200.59 286.971 205.46 270.341 215.85C258.741 223.11 246.091 235.59 239.501 242.47L235.951 246.65C235.951 246.65 243.251 244.17 246.721 245.29C250.191 246.41 280.051 258.21 283.641 260.1C287.231 262 289.481 265.66 289.551 270.46C289.551 270.46 289.471 272.83 288.611 275.07C288.611 275.07 288.011 268.12 283.451 266.1C278.341 263.83 251.061 251.4 247.231 250.09C243.401 248.78 233.701 249.88 233.701 249.88L234.931 247.37V247.38Z" fill="#7C47E1" style="fill:#7C47E1;fill:color(display-p3 0.4862 0.2797 0.8833);fill-opacity:1;"/>
<path d="M245.002 210.82C245.002 210.82 240.642 221.8 235.532 228.23C233.142 231.23 230.672 233.8 229.152 241.27C227.042 251.61 228.892 266.54 228.772 265.12C228.122 257.3 225.982 238.75 225.982 238.75L212.352 216.89L245.022 210.81L245.002 210.82Z" fill="#24072B" style="fill:#24072B;fill:color(display-p3 0.1412 0.0275 0.1686);fill-opacity:1;"/>
<path d="M228.721 266.11L228.331 265.83C228.251 265.77 228.161 265.56 228.081 265.24H228.021C228.011 265.1 228.001 264.95 227.981 264.8C227.781 263.71 227.601 261.85 227.481 259.58C226.661 251.43 225.411 240.5 225.241 239.02L211.121 216.37L244.451 210.17L244.491 210.08H245.011L245.081 210.86L245.701 211.1C245.521 211.55 241.241 222.26 236.121 228.7L235.531 229.43C233.331 232.16 231.251 234.74 229.881 241.42C228.541 247.99 228.811 256.27 229.141 261.09C229.291 262.58 229.411 263.94 229.511 265.06L229.551 265.54L229.131 265.87L228.711 266.11H228.721ZM213.561 217.44L226.701 238.51L226.721 238.68C226.721 238.76 227.141 242.3 227.651 246.92C227.821 244.84 228.071 242.85 228.421 241.13C229.861 234.09 232.151 231.25 234.371 228.5L234.951 227.78C238.921 222.79 242.481 214.89 243.781 211.83L213.571 217.45L213.561 217.44Z" fill="#24072B" style="fill:#24072B;fill:color(display-p3 0.1412 0.0275 0.1686);fill-opacity:1;"/>
<path d="M211.36 296.66C211.36 296.66 204.55 307.71 196.76 311.26C188.97 314.81 193.97 319.33 203.22 318.96C212.47 318.59 231.18 316.42 233.67 315.99C236.16 315.56 227.93 296.13 226.57 295.11" fill="#FEF1FF" style="fill:#FEF1FF;fill:color(display-p3 0.9961 0.9451 1.0000);fill-opacity:1;"/>
<path d="M202.17 319.73C196.84 319.73 192.82 318.11 192.24 315.64C191.99 314.58 192.2 312.51 196.45 310.57C203.94 307.16 210.65 296.37 210.72 296.26C210.94 295.91 211.4 295.8 211.75 296.01C212.1 296.23 212.21 296.69 212 297.04C211.72 297.5 204.98 308.33 197.07 311.93C194.71 313 193.45 314.26 193.69 315.28C194.07 316.88 197.73 318.41 203.18 318.2C212.26 317.84 230.29 315.76 233.36 315.27C233.95 313.09 227.68 297.18 226.09 295.68C225.76 295.43 225.7 294.97 225.95 294.64C226.2 294.31 226.68 294.25 227.01 294.5C228.58 295.69 235.61 312.32 234.79 315.67C234.59 316.49 234.02 316.68 233.78 316.72C231.27 317.15 212.55 319.33 203.23 319.7C202.86 319.71 202.5 319.72 202.15 319.72L202.17 319.73Z" fill="#24072B" style="fill:#24072B;fill:color(display-p3 0.1412 0.0275 0.1686);fill-opacity:1;"/>
<path d="M225.56 299.23C225.56 299.23 229.25 273.82 228.77 265.13C228.38 258.04 226.61 243.78 225.98 238.77C225.83 237.61 226.13 236.43 226.82 235.5C232.83 227.42 239.24 221.81 242.27 216.25C250.66 200.9 250.48 192.08 250.48 192.08C249.62 199.13 239.74 200.38 227.91 197.38C220.64 195.53 210.69 195.8 210.69 195.8C210.69 195.8 201.47 237.43 201.81 241.31C202.15 245.19 211.38 296.67 211.38 296.67C211.38 296.67 214.88 292.98 219.56 297.19C220.59 298.11 222.94 300.26 225.57 299.25L225.56 299.23Z" fill="#481AA4" style="fill:#481AA4;fill:color(display-p3 0.2824 0.1020 0.6431);fill-opacity:1;"/>
<path d="M249.291 122.25C249.291 122.25 266.161 123.58 268.491 145.95C270.821 168.32 267.361 172.24 261.571 174.82C255.781 177.4 251.061 174.61 251.061 174.61" fill="#481AA4" style="fill:#481AA4;fill:color(display-p3 0.2824 0.1020 0.6431);fill-opacity:1;"/>
<path d="M110.351 215.53C110.351 215.53 115.811 205.04 122.171 204.34C128.531 203.65 139.051 203.17 139.051 203.17C139.051 203.17 136.921 215.33 130.451 217.93C125.791 219.81 116.211 220.57 111.241 220.85C109.791 220.93 108.831 219.18 109.471 217.65L110.361 215.53H110.351Z" fill="#FEF1FF" style="fill:#FEF1FF;fill:color(display-p3 0.9961 0.9451 1.0000);fill-opacity:1;"/>
<path d="M250.46 192.08C250.46 192.08 250.8 163.61 253.75 147.21C256.7 130.8 254.56 128.61 251.65 124.64C248.74 120.66 239.98 116.61 239.98 116.61C231.81 124.04 221.03 118.99 221.03 118.99C221.03 118.99 216.11 119.08 210.09 123.1C200.86 129.27 194.77 157.07 190.94 162.98C189.02 165.96 176.07 181.06 176.07 181.06L192.47 181.34L203.17 175.18L202.64 184.51C202.64 184.51 209.6 192.08 210.68 195.79C210.68 195.79 219.1 195.28 227.9 197.37C236.69 199.46 248.79 201.61 250.47 192.07H250.45L250.46 192.08Z" fill="white" style="fill:white;fill:white;fill-opacity:1;"/>
<path d="M205.351 107.58C204.351 97.1501 207.811 89.8701 207.811 89.8701L227.461 81.1801L239.051 96.6701L231.241 107.6L205.341 107.57L205.351 107.58Z" fill="#FEF1FF" style="fill:#FEF1FF;fill:color(display-p3 0.9961 0.9451 1.0000);fill-opacity:1;"/>
<path d="M205.182 107.51C205.182 107.51 205.442 114.07 208.552 118.07C208.552 118.07 230.222 111.5 243.772 109.68C243.772 109.68 252.812 103.42 250.682 90.24C249.562 83.31 244.392 76.15 236.652 73.9C227.372 71.2 216.032 74.88 211.982 80.29C207.932 85.7 207.652 89.81 207.652 89.81L224.672 88.9C226.122 88.82 227.432 89.73 227.872 91.11L229.692 96.84C230.262 98.61 229.392 100.51 227.682 101.25C224.122 102.78 217.102 105.29 205.192 107.52L205.182 107.51Z" fill="#481AA4" style="fill:#481AA4;fill:color(display-p3 0.2824 0.1020 0.6431);fill-opacity:1;"/>
<path d="M239.801 110.3L239.971 116.6C239.971 116.6 238.131 118.59 234.611 119.79C230.881 121.06 225.681 120.93 221.031 118.97L221.291 114.5L239.821 110.29L239.801 110.3Z" fill="#FEF1FF" style="fill:#FEF1FF;fill:color(display-p3 0.9961 0.9451 1.0000);fill-opacity:1;"/>
<path d="M169.672 296.84C168.112 296.84 167.152 296.5 166.642 295.81C165.792 294.65 166.532 293.08 167.302 291.41L167.462 291.07C175.412 273.79 171.432 255.85 169.362 248.94C166.882 240.7 158.402 230.49 147.542 227.8C143.812 226.88 134.972 226.93 126.422 226.98C119.962 227.02 113.862 227.06 110.412 226.66C107.422 226.31 105.292 225.27 104.082 223.57C102.602 221.49 103.082 219.22 103.102 219.13C109.112 182.13 133.062 155.66 133.302 155.39C133.442 155.24 133.632 155.15 133.842 155.15C134.082 155.15 134.242 155.23 134.392 155.38C134.392 155.38 136.602 157.34 144.182 156.01C146.062 155.68 147.882 155.31 149.642 154.95C152.442 154.37 154.862 153.88 156.602 153.77C158.362 153.65 160.122 154.02 161.712 154.83L173.812 160.96C174.682 161.4 175.282 162.2 175.442 163.17C175.602 164.14 175.302 165.09 174.622 165.8L159.972 180.84L184.762 191.73C184.822 191.76 184.882 191.79 184.942 191.84C187.372 193.86 188.942 198 187.892 199.62C186.092 202.41 179.232 200.54 178.452 200.32L156.232 191.36C154.852 190.75 153.862 189.51 153.582 188.05C153.302 186.59 153.752 185.07 154.792 184.01L173.532 164.77C173.882 164.41 174.032 163.93 173.952 163.44C173.872 162.95 173.572 162.54 173.132 162.32L161.022 156.19C159.672 155.5 158.182 155.19 156.692 155.29C155.062 155.39 152.682 155.88 149.942 156.45C148.172 156.81 146.332 157.19 144.432 157.52C138.132 158.63 135.162 157.62 133.962 156.94C130.702 160.7 110.062 185.62 104.562 219.45C104.552 219.5 104.202 221.23 105.302 222.76C106.262 224.09 108.032 224.92 110.572 225.21C113.932 225.6 119.992 225.56 126.402 225.52C135.042 225.47 143.982 225.41 147.892 226.39C159.282 229.22 168.192 239.92 170.792 248.56C172.922 255.63 176.992 274 168.822 291.75L168.662 292.09C168.152 293.18 167.522 294.53 167.852 294.97C167.972 295.13 168.602 295.64 171.652 295.24C178.772 294.32 209.592 288.8 209.902 288.75C210.312 288.68 210.702 288.95 210.772 289.36C210.842 289.77 210.572 290.16 210.162 290.23C209.852 290.29 178.992 295.8 171.842 296.73C171.012 296.84 170.292 296.89 169.672 296.89V296.84ZM158.852 181.94L155.872 185C155.162 185.73 154.872 186.71 155.062 187.71C155.252 188.71 155.892 189.51 156.822 189.93L178.942 198.85C181.572 199.6 185.772 200.09 186.632 198.76C187.042 198.13 186.142 194.81 184.052 193.02L158.852 181.95V181.94Z" fill="#24072B" style="fill:#24072B;fill:color(display-p3 0.1412 0.0275 0.1686);fill-opacity:1;"/>
<path d="M210.671 196.54C210.381 196.54 210.101 196.37 209.981 196.08C209.931 195.96 204.901 184.01 197.031 182.75C186.851 181.1 174.081 181.75 172.841 182.11L164.391 184.21C163.991 184.32 163.581 184.07 163.481 183.66C163.381 183.26 163.631 182.85 164.031 182.75L172.451 180.66C174.171 180.15 187.311 179.65 197.271 181.26C205.971 182.66 211.151 194.98 211.371 195.5C211.531 195.88 211.351 196.32 210.961 196.48C210.871 196.52 210.771 196.54 210.671 196.54Z" fill="#24072B" style="fill:#24072B;fill:color(display-p3 0.1412 0.0275 0.1686);fill-opacity:1;"/>
<path d="M224.131 300.24C221.851 300.24 219.971 298.56 219.071 297.76C214.971 294.07 212.021 297.04 211.901 297.17C211.701 297.37 211.411 297.45 211.141 297.37C210.871 297.29 210.671 297.06 210.621 296.79C210.241 294.69 201.391 245.23 201.051 241.37C200.701 237.42 209.571 197.34 209.951 195.63C210.021 195.29 210.321 195.05 210.661 195.04C211.071 195.03 220.801 194.79 228.081 196.65C236.621 198.81 243.571 198.65 247.151 196.19C248.641 195.17 249.501 193.75 249.721 191.98C249.771 191.59 250.101 191.29 250.501 191.32C250.891 191.34 251.201 191.66 251.211 192.05C251.211 192.42 251.291 201.24 242.911 216.59C241.161 219.8 238.371 222.96 235.151 226.61C232.741 229.34 230.011 232.43 227.411 235.93C226.841 236.71 226.591 237.68 226.711 238.66C227.421 244.28 229.131 258.12 229.511 265.08C230.001 273.75 226.451 298.29 226.301 299.33C226.261 299.63 226.041 299.87 225.751 299.95C225.191 300.15 224.651 300.24 224.131 300.24ZM215.041 294.39C216.471 294.39 218.181 294.93 220.031 296.6C220.991 297.46 222.861 299.13 224.871 298.64C225.371 295.13 228.441 273.03 228.001 265.16C227.621 258.25 225.921 244.46 225.211 238.85C225.041 237.48 225.391 236.13 226.191 235.04C228.831 231.49 231.581 228.37 234.011 225.62C237.181 222.03 239.911 218.93 241.581 215.87C246.371 207.1 248.331 200.47 249.141 196.46C248.801 196.8 248.411 197.12 247.981 197.42C244.041 200.12 236.651 200.36 227.691 198.09C221.601 196.54 213.491 196.49 211.261 196.52C208.621 208.48 202.251 238.18 202.521 241.22C202.831 244.69 210.471 287.55 211.861 295.31C212.601 294.86 213.691 294.39 215.021 294.39H215.041Z" fill="#24072B" style="fill:#24072B;fill:color(display-p3 0.1412 0.0275 0.1686);fill-opacity:1;"/>
<path d="M202.17 319.73C196.84 319.73 192.82 318.11 192.24 315.64C191.99 314.58 192.2 312.51 196.45 310.57C203.94 307.16 210.65 296.37 210.72 296.26C210.94 295.91 211.4 295.8 211.75 296.01C212.1 296.23 212.21 296.69 212 297.04C211.72 297.5 204.98 308.33 197.07 311.93C194.71 313 193.45 314.26 193.69 315.28C194.07 316.88 197.73 318.41 203.18 318.2C212.26 317.84 230.29 315.76 233.36 315.27C233.95 313.09 227.68 297.18 226.09 295.68C225.76 295.43 225.7 294.97 225.95 294.64C226.2 294.31 226.68 294.25 227.01 294.5C228.58 295.69 235.61 312.32 234.79 315.67C234.59 316.49 234.02 316.68 233.78 316.72C231.27 317.15 212.55 319.33 203.23 319.7C202.86 319.71 202.5 319.72 202.15 319.72L202.17 319.73Z" fill="#24072B" style="fill:#24072B;fill:color(display-p3 0.1412 0.0275 0.1686);fill-opacity:1;"/>
<path d="M134.592 279.97C133.722 279.97 132.822 279.78 131.892 279.39C125.782 276.84 126.522 272.39 126.562 272.2C126.572 272.14 126.592 272.08 126.612 272.03L147.062 226.76C147.232 226.38 147.672 226.22 148.052 226.38C148.432 226.55 148.602 227 148.432 227.37L128.022 272.55C127.972 273.07 127.872 276.09 132.472 278.01C133.832 278.58 135.092 278.62 136.212 278.15C138.422 277.2 139.472 274.52 139.482 274.49L158.722 233.59C158.902 233.22 159.342 233.05 159.722 233.23C160.102 233.41 160.262 233.85 160.082 234.23L140.862 275.08C140.832 275.16 139.612 278.32 136.812 279.53C136.102 279.84 135.362 279.99 134.592 279.99V279.97Z" fill="#24072B" style="fill:#24072B;fill:color(display-p3 0.1412 0.0275 0.1686);fill-opacity:1;"/>
<path d="M127.932 315.41C127.612 315.41 127.302 315.41 126.982 315.41C113.812 315.14 102.932 310.12 95.5217 300.9C87.6417 291.11 84.6917 277.54 87.4417 263.68C92.5317 237.93 114.892 231.55 115.122 231.49C115.602 231.31 128.412 226.77 144.682 233.81C145.062 233.98 145.242 234.42 145.072 234.8C144.902 235.18 144.462 235.35 144.082 235.19C128.392 228.4 115.702 232.87 115.572 232.92C115.292 233 93.8217 239.16 88.9117 263.97C86.2517 277.4 89.0917 290.51 96.6917 299.96C103.822 308.82 114.302 313.64 127.012 313.91C137.912 314.15 146.982 310.56 154.002 303.29C162.022 294.98 166.762 281.64 166.072 269.31C165.242 254.41 160.362 247.46 155.222 242.16C154.932 241.86 154.942 241.39 155.232 241.1C155.532 240.81 156.002 240.82 156.292 241.12C161.642 246.62 166.702 253.83 167.562 269.23C168.132 279.36 165.152 293.9 155.072 304.33C148.062 311.6 138.692 315.42 127.922 315.42L127.932 315.41Z" fill="#24072B" style="fill:#24072B;fill:color(display-p3 0.1412 0.0275 0.1686);fill-opacity:1;"/>
<path d="M132.8 298.32C131.3 298.32 129.78 298.17 128.26 297.88C121.49 296.57 115.65 292.4 112.63 286.72C108.1 278.2 106.6 264.25 117.29 252.97C120.51 249.56 124.31 247.37 128.58 246.44C126.2 244.66 121.39 241.08 119.36 239.84C112.08 235.37 109.34 235.55 109.31 235.56C108.91 235.59 108.54 235.3 108.49 234.9C108.45 234.49 108.72 234.13 109.13 234.07C109.44 234.03 112.4 233.8 120.15 238.56C122.94 240.28 130.54 246.04 130.86 246.28C131.1 246.46 131.21 246.78 131.13 247.07C131.05 247.36 130.81 247.58 130.51 247.62C125.87 248.25 121.79 250.4 118.38 254C108.23 264.71 109.65 277.94 113.95 286.01C116.76 291.29 122.21 295.17 128.54 296.4C135.19 297.69 141.8 295.93 147.14 291.44C157.77 282.5 157.3 270.76 155.04 262.49C154.93 262.09 155.17 261.68 155.56 261.57C155.96 261.47 156.37 261.7 156.48 262.1C158.86 270.8 159.34 283.15 148.1 292.6C143.62 296.36 138.31 298.33 132.79 298.33L132.8 298.32Z" fill="#24072B" style="fill:#24072B;fill:color(display-p3 0.1412 0.0275 0.1686);fill-opacity:1;"/>
<path d="M251.08 247.32C250.87 247.32 250.67 247.24 250.52 247.07C250.24 246.76 250.27 246.29 250.58 246.01C298.78 202.76 296.02 198.54 295.98 198.5C295.31 197.75 292.95 196.52 284.68 196.77L283.18 196.83C283 196.84 282.82 196.78 282.68 196.67C282.68 196.67 281.62 195.87 280.05 195.92C279.24 195.95 278.3 195.98 277.27 196C271.15 196.17 261.91 196.43 255.18 197.84C252.29 198.45 249.74 200.3 249.71 200.32C249.38 200.56 248.91 200.49 248.66 200.16C248.42 199.83 248.49 199.36 248.82 199.11C248.93 199.03 251.65 197.05 254.86 196.37C261.71 194.92 271.04 194.66 277.21 194.49C278.24 194.46 279.18 194.44 279.98 194.41C281.64 194.37 282.86 195 283.36 195.32L284.62 195.27C291.49 195.06 295.56 195.79 297.09 197.5C298 198.52 299.9 200.64 279.59 220.84C269.44 230.94 257.68 241.64 251.57 247.12C251.43 247.25 251.25 247.31 251.07 247.31L251.08 247.32Z" fill="#24072B" style="fill:#24072B;fill:color(display-p3 0.1412 0.0275 0.1686);fill-opacity:1;"/>
<path d="M274.68 308.27C266.9 308.27 260.39 305.38 254.87 302.33C242.97 295.78 239.7 287.08 238.31 283.37C238.14 282.92 238 282.55 237.87 282.26C237.7 281.88 237.87 281.44 238.26 281.27C238.64 281.1 239.08 281.27 239.25 281.66C239.38 281.97 239.54 282.37 239.71 282.84C241.05 286.4 244.18 294.73 255.59 301.02C262.49 304.82 270.97 308.39 281.55 305.99C295.66 302.79 303.37 288.49 305.68 277.22C307.9 266.36 308.77 252.21 295.64 239.11C283.41 226.9 267.21 232.78 267.05 232.84C266.66 232.98 266.23 232.79 266.08 232.4C265.93 232.01 266.13 231.58 266.52 231.43C266.69 231.37 283.77 225.14 296.7 238.04C310.49 251.8 309.27 267.16 307.15 277.52C304.75 289.23 296.69 304.1 281.88 307.46C279.36 308.03 276.97 308.28 274.68 308.28V308.27Z" fill="#24072B" style="fill:#24072B;fill:color(display-p3 0.1412 0.0275 0.1686);fill-opacity:1;"/>
<path d="M115.671 197.71C115.161 197.71 114.651 197.59 114.201 197.34C113.411 196.92 112.841 196.18 112.641 195.32L111.581 190.93C111.481 190.53 111.731 190.12 112.131 190.02C112.531 189.92 112.941 190.17 113.041 190.57L114.101 194.96C114.211 195.42 114.501 195.79 114.911 196.01C115.321 196.23 115.801 196.26 116.241 196.1C120.601 194.49 131.461 190.42 138.171 187.51C145.081 184.53 158.441 169.38 165.621 161.24L165.771 161.07C166.041 160.76 166.521 160.73 166.831 161C167.141 161.27 167.171 161.75 166.901 162.06L166.751 162.23C158.981 171.03 145.991 185.77 138.771 188.88C132.031 191.8 121.141 195.88 116.771 197.5C116.421 197.63 116.061 197.69 115.691 197.69L115.671 197.71Z" fill="#24072B" style="fill:#24072B;fill:color(display-p3 0.1412 0.0275 0.1686);fill-opacity:1;"/>
<path d="M111.151 221.6C110.331 221.6 109.591 221.2 109.091 220.48C108.461 219.59 108.351 218.39 108.791 217.35L109.641 215.33C109.651 215.28 109.671 215.22 109.701 215.17C109.931 214.73 115.421 204.31 122.111 203.58C128.421 202.89 138.931 202.41 139.031 202.4C139.261 202.38 139.481 202.48 139.631 202.65C139.781 202.82 139.841 203.05 139.811 203.27C139.721 203.78 137.531 215.87 130.751 218.59C126.051 220.48 116.551 221.27 111.301 221.56C111.251 221.56 111.211 221.56 111.161 221.56L111.151 221.6ZM111.071 215.79C111.071 215.79 111.071 215.81 111.061 215.83L110.171 217.95C109.931 218.51 109.991 219.17 110.321 219.63C110.451 219.82 110.751 220.12 111.211 220.11C116.361 219.82 125.681 219.05 130.181 217.24C135.181 215.23 137.491 206.8 138.131 203.98C135.381 204.12 127.411 204.54 122.271 205.1C116.681 205.71 111.631 214.78 111.081 215.8L111.071 215.79Z" fill="#24072B" style="fill:#24072B;fill:color(display-p3 0.1412 0.0275 0.1686);fill-opacity:1;"/>
<path d="M206.141 217.7C205.941 217.7 205.741 217.62 205.601 217.47C199.531 211.06 188.341 205.08 180.031 201.19C179.431 200.91 179.141 200.68 178.121 200.13L178.931 199.02C178.931 199.02 180.071 199.54 180.671 199.83C189.101 203.77 200.461 209.86 206.691 216.44C206.981 216.74 206.961 217.22 206.661 217.5C206.511 217.64 206.331 217.71 206.141 217.71V217.7Z" fill="#24072B" style="fill:#24072B;fill:color(display-p3 0.1412 0.0275 0.1686);fill-opacity:1;"/>
<path d="M278.63 296.33C274.29 296.33 270.92 294.99 269.78 294.47C257.39 288.84 258.17 275.9 258.21 275.35C258.24 274.94 258.6 274.65 259.01 274.66C259.42 274.69 259.73 275.05 259.7 275.46C259.66 275.97 258.94 287.9 270.39 293.1C273.59 294.55 284.76 298.39 294.27 286.8C300.31 279.42 302.53 263.89 296.45 254.14C288.28 241.05 276.12 245.68 275.61 245.89C275.52 245.92 269.94 247.9 265.34 252.6C265.05 252.9 264.57 252.9 264.28 252.61C263.98 252.32 263.98 251.85 264.27 251.55C269.13 246.59 274.84 244.57 275.08 244.49C275.18 244.45 288.87 239.18 297.71 253.35C304.11 263.62 301.78 279.98 295.42 287.75C289.83 294.56 283.59 296.33 278.61 296.33H278.63Z" fill="#24072B" style="fill:#24072B;fill:color(display-p3 0.1412 0.0275 0.1686);fill-opacity:1;"/>
<path d="M277.661 282.94C276.061 282.94 274.441 282.63 272.871 281.99L250.451 272.71C250.251 272.62 249.981 272.5 249.651 272.34C247.851 271.48 244.111 269.71 240.581 270.33C240.171 270.4 239.781 270.13 239.711 269.72C239.641 269.31 239.911 268.92 240.321 268.85C244.331 268.14 248.361 270.06 250.301 270.98C250.601 271.12 250.851 271.24 251.031 271.32L273.451 280.6C279.081 282.93 285.581 280.25 287.931 274.63C290.291 268.98 287.621 262.47 281.981 260.1C281.741 260 257.031 250.03 249.631 246.98C249.381 246.88 249.141 246.79 248.901 246.7C245.971 245.66 242.601 245.66 239.411 246.7L234.691 248.23C234.291 248.36 233.871 248.14 233.741 247.75C233.611 247.36 233.831 246.93 234.221 246.81L238.941 245.28C242.441 244.14 246.161 244.14 249.391 245.28C249.651 245.37 249.921 245.47 250.201 245.59C257.601 248.64 282.301 258.61 282.551 258.71C288.961 261.39 291.991 268.79 289.311 275.2C287.291 280.02 282.591 282.93 277.661 282.93V282.94Z" fill="#24072B" style="fill:#24072B;fill:color(display-p3 0.1412 0.0275 0.1686);fill-opacity:1;"/>
<path d="M250.44 192.83C250.03 192.83 249.69 192.49 249.7 192.07C249.7 191.78 250.07 163.35 253 147.07C255.8 131.54 254.02 129.13 251.33 125.48L251.03 125.07C248.63 121.79 241.88 118.36 240.09 117.48C232.29 124.16 222.34 120.34 220.88 119.72C220.02 119.78 215.66 120.25 210.5 123.7C204.56 127.67 199.76 141.49 196.26 151.59C194.37 157.02 192.89 161.31 191.56 163.37C189.63 166.36 177.16 180.91 176.63 181.53C176.36 181.84 175.89 181.88 175.57 181.61C175.26 181.34 175.22 180.87 175.49 180.55C175.62 180.4 188.43 165.46 190.3 162.55C191.53 160.65 193.07 156.22 194.84 151.1C198.61 140.23 203.31 126.71 209.66 122.46C215.79 118.36 220.79 118.22 221 118.22C221.11 118.21 221.23 118.24 221.33 118.29C221.43 118.34 231.76 123.03 239.46 116.04C239.68 115.84 240.01 115.79 240.28 115.91C240.64 116.08 249.25 120.09 252.24 124.18L252.54 124.58C255.36 128.4 257.39 131.17 254.48 147.33C251.56 163.49 251.2 191.79 251.2 192.08C251.2 192.49 250.86 192.82 250.45 192.82L250.44 192.83Z" fill="#24072B" style="fill:#24072B;fill:color(display-p3 0.1412 0.0275 0.1686);fill-opacity:1;"/>
<path d="M192.371 182.12C192.091 182.12 191.831 181.97 191.701 181.7C191.521 181.33 191.671 180.88 192.041 180.7C194.541 179.48 201.301 176.02 202.621 174.66C202.911 174.36 203.381 174.36 203.681 174.64C203.981 174.93 203.991 175.4 203.701 175.7C201.961 177.5 193.641 181.59 192.701 182.05C192.591 182.1 192.481 182.13 192.371 182.13V182.12Z" fill="#24072B" style="fill:#24072B;fill:color(display-p3 0.1412 0.0275 0.1686);fill-opacity:1;"/>
<path d="M202.37 184.67C202.37 184.67 202.29 184.67 202.25 184.67C201.84 184.6 201.56 184.22 201.63 183.81C202.11 180.84 204.2 163.16 203.69 152.3C203.19 141.3 205.78 136.63 205.89 136.43C206.1 136.07 206.56 135.95 206.91 136.15C207.27 136.36 207.4 136.81 207.19 137.17C207.17 137.21 204.71 141.73 205.19 152.22C205.7 163.2 203.6 181.05 203.11 184.05C203.05 184.42 202.73 184.68 202.37 184.68V184.67Z" fill="#24072B" style="fill:#24072B;fill:color(display-p3 0.1412 0.0275 0.1686);fill-opacity:1;"/>
<path d="M205.971 188.22C205.731 188.22 205.491 188.1 205.341 187.88C205.111 187.53 205.211 187.07 205.561 186.84C211.481 182.96 227.011 172.46 229.001 169.73C229.251 167.68 231.581 148.4 230.701 139.27C230.661 138.86 230.961 138.49 231.381 138.45C231.791 138.42 232.161 138.71 232.201 139.13C233.141 148.9 230.581 169.24 230.471 170.1C230.461 170.21 230.421 170.31 230.361 170.4C228.341 173.64 208.631 186.62 206.391 188.09C206.261 188.17 206.121 188.21 205.981 188.21L205.971 188.22Z" fill="#24072B" style="fill:#24072B;fill:color(display-p3 0.1412 0.0275 0.1686);fill-opacity:1;"/>
<path d="M210.671 196.54C210.361 196.54 210.081 196.35 209.971 196.05C209.831 195.66 210.031 195.23 210.411 195.09C210.641 195 233.751 186.46 241.031 182.67C250.131 177.93 250.301 174.66 250.301 174.63C250.301 174.36 250.451 174.11 250.681 173.98C250.911 173.85 251.201 173.84 251.431 173.98C251.611 174.09 255.921 176.53 261.261 174.15C266.531 171.8 270.081 168.41 267.741 146.05C265.491 124.6 249.891 123.08 249.221 123.02C249.091 123.01 248.961 122.96 248.851 122.89L245.451 120.49C243.881 120.62 234.981 122.15 232.171 139.35C230.501 149.6 231.681 157.71 231.691 157.79C231.751 158.2 231.471 158.58 231.061 158.64C230.651 158.7 230.271 158.42 230.211 158.01C230.161 157.67 228.981 149.6 230.691 139.1C233.921 119.27 245.181 118.97 245.661 118.97C245.821 118.97 245.971 119.02 246.101 119.11L249.561 121.55C251.581 121.82 266.991 124.56 269.231 145.89C271.471 167.29 268.641 172.5 261.871 175.52C257.241 177.58 253.281 176.43 251.571 175.71C250.981 177.27 248.901 180.27 241.721 184.01C234.361 187.85 211.881 196.16 210.931 196.51C210.841 196.54 210.761 196.56 210.671 196.56V196.54Z" fill="#24072B" style="fill:#24072B;fill:color(display-p3 0.1412 0.0275 0.1686);fill-opacity:1;"/>
<path d="M229.211 121.36C226.381 121.36 223.411 120.78 220.731 119.65C220.441 119.53 220.251 119.23 220.271 118.92L220.521 114.45C220.541 114.12 220.781 113.84 221.101 113.76L239.631 109.55C239.851 109.5 240.091 109.55 240.261 109.7C240.441 109.84 240.541 110.06 240.541 110.29L240.711 116.58C240.711 116.78 240.641 116.96 240.511 117.11C240.431 117.2 238.501 119.26 234.841 120.5C233.131 121.08 231.201 121.37 229.201 121.37L229.211 121.36ZM221.801 118.47C225.931 120.08 230.701 120.32 234.361 119.07C237.001 118.18 238.651 116.8 239.211 116.29L239.081 111.22L222.001 115.1L221.811 118.47H221.801Z" fill="#24072B" style="fill:#24072B;fill:color(display-p3 0.1412 0.0275 0.1686);fill-opacity:1;"/>
<path d="M205.181 108.26C204.801 108.26 204.471 107.97 204.431 107.58C203.421 97.06 206.821 89.78 206.961 89.48C207.141 89.11 207.591 88.95 207.961 89.13C208.331 89.31 208.491 89.75 208.311 90.13C208.281 90.2 204.941 97.36 205.921 107.44C205.961 107.85 205.661 108.22 205.251 108.26C205.231 108.26 205.201 108.26 205.181 108.26Z" fill="#24072B" style="fill:#24072B;fill:color(display-p3 0.1412 0.0275 0.1686);fill-opacity:1;"/>
<path d="M208.551 118.83C208.321 118.83 208.102 118.73 207.962 118.54C204.962 114.67 204.501 108.71 204.441 107.69C204.391 107.44 204.461 107.18 204.641 107C204.761 106.88 204.931 106.8 205.091 106.78C216.621 104.61 223.571 102.2 227.361 100.57C228.721 99.9901 229.412 98.4901 228.962 97.0801L227.141 91.3501C226.811 90.3001 225.801 89.6001 224.701 89.6601L207.681 90.5701C207.461 90.5901 207.261 90.5001 207.111 90.3501C206.961 90.2001 206.881 89.9901 206.901 89.7701C206.911 89.5901 207.242 85.3801 211.382 79.8501C215.472 74.3901 226.941 70.3001 236.861 73.1901C245.431 75.6801 250.351 83.4901 251.421 90.1301C253.601 103.62 244.291 110.24 244.201 110.3C244.101 110.37 243.991 110.41 243.871 110.43C230.541 112.23 208.992 118.73 208.772 118.8C208.702 118.82 208.621 118.83 208.551 118.83ZM205.981 108.14C206.131 109.78 206.721 114.17 208.841 117.21C212.181 116.22 231.171 110.66 243.471 108.97C244.561 108.13 251.811 102.02 249.931 90.3701C248.931 84.2001 244.371 76.9401 236.431 74.6301C227.371 71.9901 216.361 75.6901 212.561 80.7501C209.761 84.4901 208.822 87.5901 208.522 89.0201L224.611 88.1601C226.401 88.0501 228.031 89.1901 228.561 90.8901L230.382 96.6101C231.072 98.7501 230.021 101.04 227.951 101.93C224.151 103.57 217.271 105.96 205.971 108.12L205.981 108.14Z" fill="#24072B" style="fill:#24072B;fill:color(display-p3 0.1412 0.0275 0.1686);fill-opacity:1;"/>
<path d="M227.301 286.55C226.991 286.55 226.701 286.35 226.591 286.04C226.461 285.65 226.671 285.22 227.061 285.09L241.091 280.3C242.121 275.29 235.651 256.97 233.001 250.17C232.941 250.01 232.931 249.83 232.981 249.67C233.051 249.45 239.881 228.01 241.151 223.93C241.841 221.7 243.431 219.82 245.491 218.77C253.511 214.68 275.241 203.61 280.531 200.94C283.291 199.55 283.721 198.52 283.731 198.04C283.751 197.29 282.791 196.73 282.791 196.73C282.431 196.53 282.301 196.07 282.501 195.71C282.701 195.35 283.151 195.21 283.511 195.41C283.581 195.45 285.261 196.39 285.231 198.06C285.211 199.55 283.891 200.93 281.211 202.28C275.921 204.96 254.191 216.02 246.171 220.11C244.461 220.98 243.151 222.53 242.581 224.37C241.391 228.21 235.271 247.43 234.491 249.86C235.571 252.66 244.251 275.49 242.421 281.1C242.351 281.32 242.171 281.5 241.951 281.58L227.541 286.5C227.461 286.53 227.381 286.54 227.301 286.54V286.55Z" fill="#24072B" style="fill:#24072B;fill:color(display-p3 0.1412 0.0275 0.1686);fill-opacity:1;"/>
<path d="M304.152 227.77C304.152 227.77 304.122 227.77 304.112 227.77L283.402 226.61C283.162 226.6 282.952 226.47 282.822 226.28L278.852 220.32C278.622 219.97 278.712 219.51 279.062 219.28C279.402 219.05 279.872 219.14 280.102 219.49L283.862 225.14L302.942 226.21L297.532 214.52L286.032 213.88C285.622 213.86 285.302 213.5 285.322 213.09C285.342 212.68 285.692 212.34 286.112 212.38L298.062 213.04C298.342 213.06 298.582 213.22 298.702 213.47L304.832 226.7C304.942 226.94 304.922 227.22 304.772 227.44C304.632 227.65 304.402 227.77 304.152 227.77Z" fill="#24072B" style="fill:#24072B;fill:color(display-p3 0.1412 0.0275 0.1686);fill-opacity:1;"/>
<path d="M166.831 270.01C166.681 270.01 166.541 269.97 166.411 269.88L148.311 257.46C147.971 257.23 147.881 256.76 148.121 256.42C148.351 256.08 148.821 255.99 149.161 256.23L167.261 268.65C167.601 268.88 167.691 269.35 167.451 269.69C167.301 269.9 167.071 270.02 166.831 270.02V270.01Z" fill="#24072B" style="fill:#24072B;fill:color(display-p3 0.1412 0.0275 0.1686);fill-opacity:1;"/>
<path d="M137.052 251.49C136.922 251.49 136.792 251.46 136.672 251.39L130.022 247.53C129.662 247.32 129.542 246.86 129.752 246.5C129.962 246.14 130.422 246.02 130.772 246.23L137.422 250.09C137.782 250.3 137.902 250.76 137.692 251.12C137.552 251.36 137.302 251.49 137.042 251.49H137.052Z" fill="#24072B" style="fill:#24072B;fill:color(display-p3 0.1412 0.0275 0.1686);fill-opacity:1;"/>
<path d="M240.45 286.54C240.45 286.54 240.57 281.19 254.8 273.68C254.8 273.68 246.67 269.42 244.74 269.73C242.81 270.04 240.44 269.58 240.44 269.58C240.44 269.58 241.65 273.59 241.86 276.37C242.07 279.15 241.57 280.81 241.57 280.81L238.57 281.94L240.45 286.53V286.54Z" fill="#24072B" style="fill:#24072B;fill:color(display-p3 0.1412 0.0275 0.1686);fill-opacity:1;"/>
<path d="M241.18 287.29H239.93L237.57 281.52L240.92 280.26C241.04 279.66 241.24 278.32 241.1 276.44C240.9 273.77 239.72 269.85 239.71 269.81L239.35 268.62L240.57 268.85C240.57 268.85 242.84 269.28 244.61 268.99C246.68 268.66 253.74 272.28 255.13 273.01L256.39 273.67L255.13 274.34C241.67 281.45 241.18 286.51 241.18 286.55L241.16 287.28L241.18 287.29ZM239.55 282.38L240.4 284.45C241.57 282.22 244.73 278.36 253.19 273.7C249.98 272.1 245.88 270.33 244.87 270.47C243.7 270.66 242.4 270.59 241.49 270.49C241.87 271.9 242.48 274.37 242.62 276.32C242.83 279.21 242.32 280.96 242.3 281.03L242.19 281.38L239.56 282.37L239.55 282.38Z" fill="#24072B" style="fill:#24072B;fill:color(display-p3 0.1412 0.0275 0.1686);fill-opacity:1;"/>
<path d="M247.82 102.36C247.72 102.36 247.62 102.34 247.52 102.3C247.14 102.13 246.97 101.69 247.13 101.31C247.16 101.24 250.35 93.76 247.05 86.36C244.61 80.89 240.42 77.27 234.91 75.88C228.38 74.24 220.53 75.99 214.9 80.34C214.57 80.6 214.1 80.54 213.85 80.21C213.6 79.88 213.66 79.41 213.98 79.16C219.95 74.53 228.31 72.67 235.27 74.43C241.24 75.93 245.79 79.85 248.42 85.75C251.99 93.77 248.64 101.58 248.5 101.91C248.38 102.19 248.1 102.36 247.81 102.36H247.82Z" fill="white" style="fill:white;fill:white;fill-opacity:1;"/>
<path d="M207.041 192.55C206.801 192.55 206.561 192.43 206.421 192.22C206.391 192.17 203.091 187.28 199.521 185.11C196.681 183.38 182.251 183.01 176.721 183.23C172.631 183.4 170.661 184.34 170.641 184.35C170.271 184.53 169.821 184.38 169.641 184.01C169.461 183.64 169.601 183.19 169.971 183.01C170.061 182.97 172.201 181.91 176.661 181.73C180.671 181.57 196.781 181.68 200.301 183.82C204.161 186.16 207.531 191.17 207.671 191.38C207.901 191.72 207.811 192.19 207.461 192.42C207.331 192.5 207.191 192.55 207.041 192.55Z" fill="white" style="fill:white;fill:white;fill-opacity:1;"/>
<path d="M257.032 216.43C256.762 216.43 256.492 216.28 256.362 216.02C256.172 215.65 256.322 215.2 256.692 215.01C266.632 209.98 281.092 202.47 282.822 201.39C285.802 199.53 285.362 197.8 285.342 197.73L285.102 196.83L286.022 196.76C286.282 196.75 292.392 196.43 295.432 198.07C295.792 198.27 295.932 198.72 295.732 199.09C295.532 199.46 295.082 199.59 294.712 199.39C292.622 198.26 288.552 198.2 286.862 198.23C286.802 199.27 286.242 201.01 283.612 202.65C281.802 203.78 267.422 211.25 257.362 216.34C257.252 216.4 257.142 216.42 257.022 216.42L257.032 216.43Z" fill="white" style="fill:white;fill:white;fill-opacity:1;"/>
<path d="M172.382 163.41C172.262 163.41 172.152 163.38 172.042 163.33L161.922 158.08C159.142 156.64 155.922 156.31 152.852 157.14C148.912 158.23 143.152 159.5 138.082 159.39C137.672 159.39 137.342 159.04 137.352 158.62C137.362 158.21 137.722 157.91 138.122 157.89C143.022 158.01 148.622 156.76 152.462 155.7C155.892 154.76 159.502 155.14 162.622 156.75L172.742 162C173.112 162.19 173.252 162.64 173.062 163.01C172.932 163.27 172.662 163.42 172.392 163.42L172.382 163.41Z" fill="white" style="fill:white;fill:white;fill-opacity:1;"/>
<path d="M254.4 152.45C250.44 152.45 247.68 152.24 247.35 152.21C246.94 152.18 246.63 151.81 246.66 151.4C246.69 150.99 247.06 150.68 247.47 150.71C247.71 150.73 272.11 152.61 282.89 144.78C283.22 144.54 283.69 144.61 283.94 144.95C284.18 145.28 284.11 145.75 283.77 146C276.18 151.52 262.67 152.45 254.4 152.45Z" fill="#E1C2FB" style="fill:#E1C2FB;fill:color(display-p3 0.8824 0.7608 0.9843);fill-opacity:1;"/>
<path d="M6.58083 407.46C6.51083 407.46 6.43083 407.46 6.36083 407.43C5.96083 407.31 5.74083 406.89 5.86083 406.5L20.9408 356.51C20.9908 356.33 21.1108 356.18 21.2708 356.09L39.8308 344.79C43.1008 325.09 58.5608 306.75 58.7208 306.57C58.9808 306.27 59.4208 306.22 59.7408 306.45C60.0608 306.68 60.1408 307.12 59.9308 307.46C57.7908 310.82 57.4908 314.22 59.0108 317.87C72.4408 350.01 221.011 382.41 222.511 382.74C222.911 382.83 223.171 383.23 223.081 383.63C222.991 384.03 222.591 384.29 222.191 384.21C221.811 384.13 184.141 375.95 145.261 363.87C92.9008 347.59 63.4108 332.31 57.6208 318.46C56.6608 316.15 56.3508 313.88 56.7008 311.66C51.9908 318.15 43.4608 331.47 41.2608 345.39C41.2308 345.61 41.1008 345.8 40.9108 345.91L22.3008 357.24L7.30083 406.96C7.20083 407.28 6.90083 407.49 6.58083 407.49V407.46Z" fill="#24072B" style="fill:#24072B;fill:color(display-p3 0.1412 0.0275 0.1686);fill-opacity:1;"/>
<path d="M208.59 185.73C208.59 185.73 204.56 188.51 202.47 188.34C197.58 187.94 193.06 188.86 192.36 189.97C191.66 191.08 199.68 191.84 197.25 193.25C194.58 194.8 189.38 194.88 189.87 196.82C190.38 198.87 193.35 202.56 195.36 202.83C198.6 203.28 203.05 203.24 207.11 201.15C208.91 200.22 214.73 194.25 214.73 194.25" fill="#481AA4" style="fill:#481AA4;fill:color(display-p3 0.2824 0.1020 0.6431);fill-opacity:1;"/>
<path d="M198.639 203.82C197.389 203.82 196.239 203.72 195.239 203.58C192.859 203.25 189.689 199.24 189.129 197C188.649 195.1 190.999 194.47 193.269 193.86C194.469 193.54 195.709 193.21 196.639 192.72C196.119 192.48 195.229 192.21 194.629 192.03C192.829 191.48 191.879 191.16 191.619 190.45C191.509 190.16 191.549 189.84 191.719 189.57C192.779 187.89 198.149 187.23 202.529 187.59C203.849 187.66 206.689 186.13 208.169 185.11C208.509 184.88 208.979 184.96 209.209 185.3C209.439 185.64 209.359 186.11 209.019 186.34C208.579 186.64 204.689 189.28 202.409 189.08C198.159 188.74 194.649 189.42 193.419 190.04C193.879 190.23 194.569 190.44 195.079 190.59C196.969 191.17 198.329 191.58 198.449 192.59C198.489 192.94 198.379 193.45 197.619 193.89C196.499 194.54 194.989 194.95 193.659 195.3C192.469 195.62 190.469 196.16 190.589 196.63C191.059 198.51 193.859 201.86 195.449 202.08C198.389 202.49 202.739 202.54 206.749 200.47C208.139 199.76 212.579 195.35 214.179 193.71C214.469 193.41 214.939 193.41 215.239 193.7C215.539 193.99 215.539 194.46 215.249 194.76C214.649 195.38 209.289 200.85 207.429 201.81C204.449 203.35 201.319 203.81 198.629 203.81L198.639 203.82Z" fill="#24072B" style="fill:#24072B;fill:color(display-p3 0.1412 0.0275 0.1686);fill-opacity:1;"/>
</g>
<defs>
<clipPath id="clip0_838_6036">
<rect width="340" height="380" fill="white" style="fill:white;fill:white;fill-opacity:1;"/>
</clipPath>
</defs>
</svg>
