<svg width="340" height="380" viewBox="0 0 340 380" fill="none" xmlns="http://www.w3.org/2000/svg">
<path d="M324 207H0V90C13.04 107.48 28.32 129.91 54 134C86.1 139.11 117.36 120.69 158.49 160.33C191.39 192.04 288.39 178.87 324 207Z" fill="#4C15B5"/>
<path d="M323.861 297.73C323.861 297.73 326.971 298.2 325.411 300.17C324.161 301.76 266.891 301.1 255.371 300.17C240.561 298.97 245.581 298.25 235.311 298.25C225.041 298.25 212.951 297.23 196.961 303.8C172.881 313.7 158.891 317.34 158.891 317.34L89.4307 326.91L58.2707 331.15L49.9707 323.64L197.411 286.38C197.411 286.38 218.101 286.87 228.401 286.87C238.701 286.87 235.321 290.57 243.891 290.87C252.461 291.16 264.611 292.18 264.611 292.18L323.861 297.73Z" fill="#24072B"/>
<path d="M208.719 211.31C207.029 211.82 205.399 212.6 203.919 213.71C197.279 218.66 188.619 228.23 188.619 228.23L181.529 236.37L185.189 245.76L219.919 248.26C229.149 256.02 245.369 269.71 248.349 272.37C252.259 275.86 254.729 277.05 253.859 279.77C253.299 281.55 253.169 283.58 254.269 285.23L285.559 285.55L225.599 211.31H208.689" fill="#FEF1FF"/>
<path d="M160.94 181.65L174.32 184.52L182.56 184.36L211.43 186.61C211.43 186.61 207.43 197.29 210.11 210.95L184.24 217.84L185.94 242.59L174.03 254.57L139.55 247.85L127.67 203.21L160.94 181.63V181.65Z" fill="#481AA4"/>
<path d="M189.941 226.85C189.941 226.85 191.491 227.41 194.681 234.61L197.501 231.9C197.501 231.9 198.981 235.57 202.741 241.14C206.501 246.69 215.931 258.93 218.961 265.57C221.991 272.21 222.741 274.86 222.741 274.86L198.151 289.26L174.051 254.61L185.961 242.63L185.221 231.92L189.961 226.88V226.86H189.951L189.941 226.85Z" fill="#481AA4"/>
<path d="M177.73 121C177.73 121 182.42 123.89 181.93 128.31C181.44 132.75 182.75 135.52 172.96 138.6C163.17 141.68 157.1 140.86 157.1 140.86L161.98 148.45C161.98 148.45 159.87 154.72 161.81 158.69C163.77 162.66 165.46 167.69 170.66 164.49C175.85 161.29 182.96 155.29 188.72 158.01C188.72 158.01 190.91 165.97 189.55 173.03C188.18 180.09 182.87 185.35 172.97 184.51C163.07 183.67 160 179.19 159.53 178.41C159.06 177.62 143.01 151.36 141.35 147.84C139.68 144.32 139.05 126.63 149.11 124.76C159.17 122.89 156.01 127.38 177.74 120.99H177.72L177.73 121Z" fill="#481AA4"/>
<path d="M271 292.95C271 292.95 259.9 293.5 253.05 292.68C248.01 292.08 252.46 285.61 252.46 285.61C252.46 285.61 252.87 285.36 257.34 285.78C261.81 286.19 270.51 285.54 270.51 285.54L271.01 292.95H271Z" fill="#E1C2FB"/>
<path d="M296.17 278.46C296.17 278.46 308.7 285.23 321.97 287.85C321.97 287.85 326.33 288.4 325.95 294C325.57 299.61 317.58 299.81 317.58 299.81C317.58 299.81 277.29 300.89 269.26 299.22C264.28 298.19 268.67 292.15 268.67 292.15C268.67 292.15 269.08 291.9 273.55 292.32C278.02 292.73 286.72 292.08 286.72 292.08C286.72 292.08 289.35 291.24 290.67 288.69C291.99 286.14 296.16 278.46 296.16 278.46H296.17Z" fill="#E1C2FB"/>
<path d="M205.721 186.17L228.941 188.06C229.841 188.19 230.711 188.46 231.531 188.85C234.101 190.07 239.951 192.99 243.311 195.79C247.431 199.22 245.371 203.38 240.981 206.67C239.351 207.9 237.461 210.29 232.211 210.95C223.361 212.05 210.111 210.95 210.111 210.95" fill="#FEF1FF"/>
<path d="M222.57 212.19C216.03 212.19 210.14 211.71 210.05 211.7L210.17 210.21C210.3 210.21 223.44 211.29 232.11 210.21C236.24 209.69 238.11 208.1 239.61 206.82C239.93 206.55 240.23 206.29 240.52 206.07C243.22 204.05 244.73 201.89 244.78 200C244.81 198.7 244.15 197.47 242.82 196.36C239.52 193.61 233.59 190.66 231.2 189.52C230.44 189.16 229.64 188.92 228.82 188.8L205.65 186.91L205.77 185.42L228.99 187.31C230 187.46 230.94 187.74 231.83 188.16C234.87 189.61 240.46 192.44 243.78 195.2C245.48 196.62 246.32 198.25 246.28 200.03C246.22 202.42 244.54 204.92 241.42 207.26C241.15 207.46 240.88 207.7 240.58 207.95C239.01 209.28 236.87 211.11 232.29 211.69C229.33 212.06 225.86 212.18 222.56 212.18L222.57 212.19Z" fill="#24072B"/>
<path d="M185.2 232.63C185.02 232.63 184.84 232.57 184.69 232.43C184.38 232.15 184.36 231.68 184.64 231.37C185.13 230.83 196.84 218.03 203.46 213.1C204.95 211.99 206.64 211.14 208.49 210.58C208.89 210.46 209.31 210.69 209.42 211.08C209.53 211.47 209.31 211.89 208.92 212.01C207.24 212.51 205.7 213.28 204.35 214.29C197.84 219.14 185.86 232.24 185.74 232.37C185.59 232.53 185.39 232.61 185.19 232.61L185.2 232.63Z" fill="#24072B"/>
<path d="M254.289 286.16C254.049 286.16 253.809 286.04 253.669 285.83C252.599 284.23 252.409 281.94 253.159 279.55C253.669 277.94 252.769 277.08 250.059 274.82C249.399 274.27 248.659 273.65 247.859 272.94C245.019 270.41 233.839 260.94 224.009 252.68C223.689 252.41 223.649 251.94 223.919 251.62C224.189 251.3 224.659 251.26 224.979 251.53C234.809 259.8 246.009 269.28 248.859 271.82C249.639 272.52 250.369 273.12 251.019 273.67C253.679 275.89 255.429 277.35 254.589 280C254.299 280.92 253.749 283.26 254.909 284.99C255.139 285.33 255.049 285.8 254.709 286.03C254.579 286.12 254.439 286.16 254.289 286.16Z" fill="#24072B"/>
<path d="M296.17 278.46C296.17 278.46 292.31 285.4 289.88 289.65C287.44 293.9 284.61 291.98 280.13 292.16C275.65 292.35 271.52 291.81 271.52 291.81L270.81 287.59C270.81 287.59 271.66 284.27 271.01 283.33C270.36 282.39 227.83 246.22 227.83 246.22L217.76 263.42C217.76 263.42 197.6 234.85 197.5 231.88L214.98 215.74C214.98 215.74 220.67 209.67 229.2 210.95C237.73 212.23 243.91 221.25 243.91 221.25L283.25 269.72C283.25 269.72 288.11 275 292.23 277.37C296.35 279.73 296.17 278.47 296.17 278.47V278.45V278.46Z" fill="#FEF1FF"/>
<path d="M295.14 279.94C289.49 276.88 285.18 273.43 281.98 269.38C266.26 249.43 242.99 221.22 239.44 217.13C234.07 210.96 223.9 209.93 217.24 214.88C210.13 220.17 180.21 249.74 179.9 250.04L178.85 248.97C180.08 247.75 209.15 219.03 216.35 213.68C223.74 208.18 234.6 209.29 240.58 216.15C244.73 220.95 268.2 249.47 283.16 268.46C286.23 272.35 290.39 275.67 295.86 278.63L295.15 279.95L295.14 279.94Z" fill="#24072B"/>
<path d="M271.109 292.59C270.989 292.41 270.919 292.31 270.859 292.2C269.829 290.52 269.679 288.12 270.459 285.64C271.029 283.85 270.029 282.9 267.059 280.42C266.339 279.82 265.539 279.15 264.679 278.38C259.579 273.82 242.539 259.49 228.039 247.37C226.689 249.77 222.479 257.23 218.399 263.81L217.119 263.02C222.019 255.11 227.119 245.94 227.169 245.85C227.279 245.65 227.469 245.52 227.689 245.48C227.909 245.44 228.139 245.5 228.309 245.64C242.969 257.88 260.489 272.61 265.679 277.26C266.529 278.02 267.319 278.68 268.029 279.27C270.899 281.67 272.799 283.25 271.899 286.1C271.589 287.08 270.999 289.56 272.149 291.44C272.209 291.54 272.259 291.61 272.309 291.69L271.739 292.18L271.119 292.6L271.109 292.59Z" fill="#24072B"/>
<path d="M198.14 289.98C197.9 289.98 197.67 289.87 197.52 289.66C197.28 289.32 197.37 288.85 197.71 288.62C205.03 283.53 219.03 275.97 221.87 274.45C220.52 268.95 215.79 260.71 207.43 249.29C199.74 238.78 196.92 232.46 196.81 232.19C196.64 231.81 196.81 231.37 197.19 231.2C197.57 231.03 198.01 231.2 198.18 231.58C198.21 231.64 201.06 238.04 208.64 248.4C217.4 260.38 222.25 268.97 223.46 274.68C223.53 275.01 223.37 275.34 223.08 275.5C222.92 275.59 206.62 284.25 198.57 289.85C198.44 289.94 198.29 289.98 198.14 289.98Z" fill="#24072B"/>
<path d="M180.099 135.01C180.099 135.01 185.549 145.57 188.499 157.17C191.449 168.78 190.209 179.49 182.689 182.97C173.009 187.44 160.959 180.85 160.959 180.85L141.339 147.85C141.339 147.85 139.049 136.39 143.029 129.61C146.999 122.83 152.719 124.61 158.729 124.65C165.339 124.69 175.749 122.34 177.729 121.02C177.729 121.02 181.269 122.89 181.879 127.9C182.489 132.92 180.099 135.01 180.099 135.01Z" fill="#24072B"/>
<path d="M175.07 185.28C167.62 185.28 160.97 181.7 160.59 181.5L160.41 181.4L140.59 147.99C140.49 147.51 138.3 136.17 142.37 129.23C145.89 123.22 150.88 123.51 155.7 123.78C156.69 123.84 157.71 123.9 158.73 123.9C158.78 123.9 158.84 123.9 158.9 123.9C165.32 123.9 175.45 121.64 177.32 120.39L177.69 120.14L178.08 120.35C178.24 120.43 181.97 122.47 182.62 127.8C183.12 131.89 181.73 134.2 181 135.11C182.07 137.28 186.64 146.78 189.23 156.97C192.62 170.3 190.29 180.27 183 183.63C180.42 184.82 177.69 185.27 175.07 185.27V185.28ZM161.49 180.28C162.99 181.05 173.78 186.25 182.37 182.29C190.11 178.71 190.24 167.06 187.77 157.36C185.2 147.24 180.65 137.81 179.63 135.77H178.08L179.58 134.46C179.66 134.39 181.66 132.52 181.11 128.01C180.66 124.31 178.53 122.49 177.69 121.91C174.73 123.4 164.88 125.42 158.86 125.42H158.7C157.65 125.42 156.61 125.35 155.6 125.3C150.83 125.03 146.71 124.79 143.65 130.01C140.08 136.09 141.8 146.36 142.03 147.6L161.48 180.3L161.49 180.28Z" fill="#24072B"/>
<path d="M185.97 243.04L184.24 217.83L210.11 210.94C210.11 210.94 207.07 201.67 211.43 186.6L182.56 184.36L175.08 184.72L145.52 176.9L127.67 203.23L141.06 253.54L174.03 254.58L185.97 243.06V243.04Z" fill="#5920C5"/>
<path d="M174.009 255.33L141.039 254.29C140.709 254.28 140.419 254.05 140.339 253.73L126.949 203.42C126.889 203.21 126.929 202.99 127.049 202.81L144.899 176.48C145.079 176.22 145.399 176.09 145.709 176.18L175.149 183.97L182.509 183.61L211.479 185.86C211.699 185.88 211.909 186 212.039 186.18C212.169 186.37 212.209 186.6 212.139 186.82C207.899 201.46 210.779 210.63 210.809 210.72C210.869 210.92 210.849 211.13 210.759 211.31C210.659 211.49 210.489 211.62 210.289 211.68L185.009 218.41L186.699 243C186.699 243 186.699 243.03 186.699 243.05C186.699 243.26 186.619 243.46 186.469 243.6L174.529 255.12C174.389 255.25 174.199 255.33 174.009 255.33ZM141.639 252.8L173.729 253.82L185.189 242.76L183.489 217.89C183.469 217.53 183.699 217.21 184.039 217.11L209.179 210.41C208.559 207.93 207.059 199.64 210.459 187.28L182.499 185.11L175.119 185.47C175.039 185.47 174.969 185.47 174.889 185.45L145.849 177.77L128.489 203.37L141.639 252.81V252.8Z" fill="#24072B"/>
<path d="M180.1 135.01C180.1 135.01 172.53 141.28 157.08 140.86C157.08 140.86 161.41 147.23 161.96 148.45C162.51 149.67 161.01 152.11 161.01 154.69C161.01 157.27 162.5 161.48 164.81 164.04C167.12 166.6 170.2 165.06 174.23 162.36C177.41 160.24 184.96 155.09 188.82 158.46C188.82 158.46 185.49 144.82 180.11 135H180.1V135.01Z" fill="#FEF1FF"/>
<path d="M167.581 166.11C166.381 166.11 165.261 165.66 164.261 164.55C161.761 161.77 160.271 157.36 160.271 154.7C160.271 153.37 160.621 152.13 160.931 151.03C161.191 150.11 161.461 149.16 161.281 148.77C160.851 147.82 157.661 143.05 156.461 141.29L155.641 140.08L157.101 140.12C172.041 140.51 179.551 134.5 179.621 134.44L179.831 134.27H180.551L180.761 134.66C186.121 144.45 189.511 158.17 189.541 158.3L190.101 160.6L188.321 159.04C184.961 156.11 177.851 160.86 174.811 162.89L174.641 163C172.151 164.67 169.721 166.12 167.571 166.12L167.581 166.11ZM158.511 141.63C159.821 143.57 162.221 147.19 162.651 148.15C163.051 149.04 162.731 150.15 162.371 151.44C162.091 152.44 161.761 153.58 161.761 154.7C161.761 157.03 163.141 161.08 165.361 163.55C167.191 165.58 169.641 164.54 173.811 161.75L173.981 161.64C177.151 159.52 183.311 155.4 187.641 156.93C186.591 153.09 183.801 143.6 179.861 136.13C177.691 137.62 170.691 141.64 158.561 141.64H158.511V141.63Z" fill="#24072B"/>
<path d="M179.939 171C179.589 171 179.239 170.95 178.909 170.84C176.899 170.22 176.079 167.93 176.049 167.83C175.909 167.44 176.119 167.01 176.509 166.87C176.899 166.73 177.329 166.94 177.459 167.33C177.479 167.38 178.079 169.01 179.359 169.41C180.139 169.65 181.059 169.38 182.119 168.61C182.449 168.36 182.919 168.44 183.169 168.77C183.419 169.1 183.339 169.57 183.009 169.82C181.939 170.6 180.909 170.99 179.949 170.99L179.939 171Z" fill="#FEF1FF"/>
<path d="M296.121 300.75C283.511 300.75 269.701 300.54 267.821 299.67C267.051 299.31 266.511 298.7 266.271 297.9C265.541 295.56 267.451 292.23 267.671 291.86C267.741 291.74 267.851 291.64 267.981 291.57C268.081 291.52 268.221 291.48 268.341 291.48L285.411 291.51C287.001 291.51 288.461 290.66 289.221 289.29L295.511 278.09C295.711 277.74 296.151 277.61 296.511 277.79C296.661 277.87 311.411 285.46 322.081 287.11C323.501 287.33 324.681 288.06 325.511 289.24C326.581 290.77 326.981 293.03 326.551 295.14C325.841 298.61 322.741 300.49 317.591 300.58C316.721 300.59 306.861 300.74 296.131 300.74L296.121 300.75ZM268.761 292.98C268.201 294.05 267.301 296.18 267.701 297.46C267.821 297.86 268.061 298.13 268.451 298.31C270.281 299.16 291.391 299.5 317.561 299.09C321.981 299.02 324.511 297.59 325.071 294.85C325.421 293.14 325.111 291.32 324.271 290.11C323.681 289.26 322.861 288.75 321.851 288.6C312.101 287.09 299.481 280.97 296.461 279.46L290.521 290.03C289.491 291.87 287.531 293.02 285.401 293.02L268.761 292.99V292.98Z" fill="#24072B"/>
<path d="M267.779 293.97H267.769C253.329 293.76 252.099 293.18 251.629 292.96C250.869 292.61 250.329 292 250.079 291.2C249.349 288.86 251.259 285.53 251.479 285.16C251.609 284.93 251.859 284.79 252.129 284.79L270.989 284.82C271.399 284.82 271.739 285.16 271.739 285.57C271.739 285.98 271.399 286.32 270.989 286.32L252.569 286.29C252.009 287.36 251.119 289.48 251.519 290.75C251.639 291.15 251.879 291.42 252.269 291.6C252.699 291.8 255.049 292.29 267.789 292.47C268.199 292.47 268.539 292.82 268.529 293.23C268.529 293.64 268.189 293.97 267.779 293.97Z" fill="#24072B"/>
<path d="M181.27 148.4C182.16 148.4 182.89 147.68 182.89 146.78C182.89 145.88 182.17 145.16 181.27 145.16C180.37 145.16 179.65 145.88 179.65 146.78C179.65 147.68 180.38 148.4 181.27 148.4Z" fill="#24072B"/>
<path d="M171.181 150.9C172.071 150.9 172.801 150.18 172.801 149.28C172.801 148.38 172.081 147.66 171.181 147.66C170.281 147.66 169.561 148.38 169.561 149.28C169.561 150.18 170.281 150.9 171.181 150.9Z" fill="#24072B"/>
<path d="M176.999 145.02C176.909 145.02 176.809 145 176.719 144.97C176.339 144.82 176.149 144.38 176.299 144C176.329 143.92 177.059 142.15 179.279 141.86C179.679 141.81 180.069 142.1 180.119 142.51C180.169 142.92 179.879 143.3 179.469 143.35C178.139 143.52 177.689 144.55 177.689 144.56C177.569 144.85 177.289 145.03 176.989 145.03L176.999 145.02Z" fill="#24072B"/>
<path d="M166.95 148.82C166.57 148.82 166.24 148.53 166.2 148.13C166.2 148.05 166.05 146.12 167.91 144.88C168.25 144.65 168.72 144.74 168.95 145.09C169.18 145.43 169.09 145.9 168.74 146.13C167.63 146.88 167.69 148 167.69 148.01C167.73 148.42 167.42 148.79 167.01 148.82C166.99 148.82 166.97 148.82 166.94 148.82H166.95Z" fill="#24072B"/>
<path d="M179.299 156.77C178.929 156.77 178.609 156.5 178.559 156.12C178.499 155.71 178.789 155.33 179.199 155.28C179.579 155.23 180.749 154.95 181.119 154.38C181.199 154.26 181.279 154.07 181.179 153.73C180.749 152.23 178.209 152.3 178.189 152.3C177.849 152.34 177.549 152.1 177.449 151.78L176.289 148.23C176.159 147.84 176.379 147.41 176.769 147.28C177.159 147.15 177.589 147.37 177.719 147.76L178.709 150.8C179.789 150.88 182.039 151.28 182.619 153.29C182.819 153.97 182.739 154.63 182.379 155.18C181.569 156.43 179.619 156.72 179.399 156.75C179.369 156.75 179.329 156.75 179.299 156.75V156.77Z" fill="#24072B"/>
<path d="M175.081 185.47C175.021 185.47 174.951 185.47 174.891 185.45L167.481 183.49C167.081 183.38 166.841 182.97 166.951 182.57C167.061 182.17 167.471 181.93 167.871 182.04L175.171 183.97L181.791 183.72C182.211 183.68 182.551 184.03 182.571 184.44C182.591 184.85 182.261 185.2 181.851 185.22L175.121 185.48C175.121 185.48 175.101 185.48 175.091 185.48L175.081 185.47Z" fill="#FEF1FF"/>
<path d="M171.73 223.29C171.43 223.29 171.14 223.1 171.03 222.8C170.88 222.41 171.08 221.98 171.47 221.83L183.98 217.12C184.37 216.98 184.8 217.17 184.95 217.56C185.1 217.95 184.9 218.38 184.51 218.53L172 223.24C171.91 223.27 171.82 223.29 171.74 223.29H171.73Z" fill="#24072B"/>
<path d="M185.389 235.61C185.389 235.61 187.529 237.1 194.679 234.6L185.969 243.05L185.389 235.61Z" fill="#24072B"/>
<path d="M185.969 243.55C185.909 243.55 185.849 243.54 185.789 243.52C185.609 243.45 185.479 243.28 185.469 243.09L184.889 235.65C184.869 235.46 184.969 235.27 185.139 235.18C185.309 235.09 185.509 235.09 185.669 235.2C185.729 235.23 187.869 236.45 194.519 234.13C194.739 234.05 194.989 234.13 195.109 234.34C195.229 234.54 195.199 234.8 195.029 234.96L186.319 243.41C186.219 243.5 186.099 243.55 185.969 243.55ZM185.949 236.36L186.379 241.94L192.799 235.71C189.069 236.77 186.979 236.62 185.949 236.35V236.36Z" fill="#24072B"/>
<path d="M194.67 235.34C194.36 235.34 194.06 235.14 193.96 234.83C193.94 234.77 192.07 229.24 189.5 227.45C189.16 227.21 189.08 226.74 189.31 226.41C189.55 226.07 190.01 225.99 190.35 226.22C193.32 228.29 195.29 234.11 195.37 234.36C195.5 234.75 195.29 235.18 194.9 235.31C194.82 235.34 194.74 235.35 194.66 235.35L194.67 235.34Z" fill="#24072B"/>
<path d="M89.4304 326.91L84.3504 302.81C84.3504 302.81 74.4304 311.63 71.5504 314.72C68.6704 317.8 60.9004 327.95 60.9004 327.95L89.4204 326.91H89.4304Z" fill="#FEF1FF"/>
<path d="M183.89 268.17C183.83 266 183 258.02 174.23 251.9C163.98 244.74 152.59 244.51 145.52 244.24L142.59 244.58L136.34 223.34C136.34 223.34 128.89 222.04 119.37 224.58C110.52 226.94 105 233.22 105 233.22C105 233.22 111.84 249.58 115.75 257.06L120.06 265.39C120.06 265.39 123.4 272.31 135.44 269.56C173.48 260.91 171.24 262.4 171.24 262.4C171.24 262.4 172.01 262.23 176.09 264.25C180.87 266.61 183.88 268.53 183.87 268.16L183.89 268.17Z" fill="#FEF1FF"/>
<path d="M97.1307 192.16L119.531 189.66L127.661 202.01C127.661 202.01 132.361 206.36 135.331 214.32C138.301 222.29 138.761 223.77 138.761 223.77C138.761 223.77 118.541 220.09 104.851 232.92L112.441 250.63C112.441 250.63 92.3207 251.11 77.9107 258.44C63.5007 265.77 41.9007 285.22 41.9007 285.22C41.9007 285.22 39.2607 275.63 46.4807 258.04C53.6907 240.44 72.0107 218.6 72.0107 218.6C72.0107 218.6 87.1307 198.99 93.6807 194.08C94.6207 193.38 97.1207 192.17 97.1207 192.17L97.1307 192.16Z" fill="#6F53F5"/>
<path d="M145.52 159.85L110.59 166.59L116 195.3L121.88 196.96C121.88 196.96 125.2 201.53 128.9 202.44C132.6 203.35 139.47 202.73 145.52 196.01C154.93 185.56 157.09 177.52 157.09 177.52L152.41 162.44L145.52 159.85Z" fill="#FEF1FF"/>
<path d="M146.29 152.05C146.29 152.05 146.32 152.07 146.35 152.07C146.86 151.98 152.39 151.03 155.46 155.38C158.53 159.74 160.8 161.57 160.97 173.17C161.14 184.7 161.59 204.94 143.83 206.62C143.76 206.62 143.72 206.54 143.78 206.5C145 205.82 149.75 202.92 149.75 199.2C149.75 194.95 148.73 195.34 149.83 189.36C149.87 189.24 153.21 180.28 149.03 171.01C146.26 164.86 145.64 160.91 145.52 160.01C145.52 159.95 145.44 159.94 145.4 159.99C144.64 161.23 139.22 169.16 121.79 171.54C121.77 171.54 121.74 171.54 121.73 171.52C121.53 171.24 120.04 169.17 118.12 168.91C116.79 168.73 114.86 170.28 114.35 171.01C113.93 171.62 112.96 175.12 113.74 176.67C114.59 178.4 117.18 178.17 117.14 178.49C116.74 181.24 116.65 181.9 117.14 185.38C117.54 188.3 119.51 194.34 121.34 196.91C122.29 198.24 105.15 194.95 102.23 192.44C99.2997 189.93 89.6597 186.78 96.9997 172.12C104.33 157.46 120.87 141.72 137.49 146.24C143.03 147.75 145.99 151.65 146.27 152.04L146.29 152.05Z" fill="#24072B"/>
<path d="M143.481 207.17L143.281 206.73C143.211 206.49 143.301 206.24 143.501 206.1C144.491 205.54 149.251 202.71 149.251 199.21C149.251 197.73 149.121 196.81 149.011 196C148.791 194.44 148.621 193.21 149.341 189.28C149.701 188.26 152.481 179.87 148.581 171.23C146.411 166.43 145.551 162.96 145.211 161.17C143.271 163.73 137.081 169.97 121.871 172.04L121.501 172.09L121.281 171.73C121.171 171.59 119.761 169.64 118.061 169.41C117.021 169.3 115.261 170.59 114.771 171.3C114.421 171.8 113.521 175.1 114.201 176.45C114.671 177.41 115.911 177.65 116.641 177.78C117.121 177.87 117.721 177.99 117.651 178.55C117.261 181.22 117.171 181.85 117.651 185.3C118.031 188.07 119.931 194.03 121.761 196.61C121.961 196.89 121.931 197.23 121.691 197.45C120.321 198.7 104.431 194.98 101.921 192.81C101.521 192.47 100.981 192.1 100.351 191.69C96.5107 189.12 90.0907 184.83 96.5607 171.9C100.551 163.92 106.721 156.52 113.471 151.59C121.561 145.68 129.921 143.67 137.621 145.76C142.821 147.18 145.801 150.62 146.511 151.54C147.651 151.36 152.861 150.85 155.851 155.09C156.161 155.53 156.461 155.94 156.751 156.34C159.391 159.96 161.291 162.57 161.451 173.16V173.47C161.631 185.41 161.921 205.4 143.861 207.12L143.461 207.16L143.481 207.17ZM145.191 159.4L145.661 159.5C145.881 159.58 146.031 159.79 146.031 160.02C146.161 160.99 146.791 164.82 149.491 170.81C153.551 179.82 150.651 188.55 150.311 189.52C149.631 193.23 149.791 194.39 150.001 195.86C150.121 196.7 150.251 197.65 150.251 199.21C150.251 202.12 147.671 204.5 145.731 205.87C160.911 203.03 160.641 184.65 160.481 173.5V173.19C160.321 162.91 158.491 160.41 155.961 156.94C155.671 156.54 155.361 156.12 155.051 155.68C152.201 151.64 147.021 152.47 146.441 152.57L146.241 152.61L146.161 152.56C146.011 152.52 145.891 152.41 145.831 152.27C145.411 151.7 142.591 148.15 137.381 146.73C121.901 142.52 105.261 156.79 97.4707 172.35C91.3907 184.5 97.1307 188.33 100.921 190.87C101.571 191.31 102.141 191.69 102.591 192.07C105.081 194.21 117.761 196.73 120.611 196.73H120.651C118.841 193.84 117.051 188.15 116.681 185.45C116.221 182.14 116.261 181.33 116.631 178.79C116.581 178.79 116.531 178.77 116.481 178.76C115.621 178.6 114.021 178.29 113.331 176.89C112.461 175.15 113.471 171.46 113.981 170.72C114.521 169.93 116.621 168.2 118.221 168.41C120.051 168.66 121.491 170.33 122.011 171.01C138.781 168.67 144.101 161.21 145.001 159.73L145.211 159.39L145.191 159.4Z" fill="#24072B"/>
<path d="M89.4292 326.91C89.4292 326.91 80.9592 318.49 84.3492 302.81L79.5092 306.77C79.5092 306.77 74.8292 296.39 71.6292 296.35C69.9492 296.33 52.6092 306.06 52.6092 306.06C52.6092 306.06 47.4392 303.46 44.2892 295.31C41.1492 287.16 42.1792 284.71 42.1792 284.71C42.1792 284.71 60.3592 268.04 73.0992 261.17C88.2992 252.96 97.9992 251.84 112.479 250.62L119.199 263.48C119.199 263.48 121.279 271.37 132.299 269.89C143.319 268.41 165.689 261.34 171.759 262.23C177.829 263.12 186.949 269.91 188.239 270.93C189.529 271.95 196.119 277.1 197.529 280.56C198.939 284.04 199.439 284.73 198.409 288.26C197.379 291.79 196.579 299.41 186.709 305.08C176.839 310.75 163.269 319.71 129.129 323.12C94.9892 326.54 89.4492 326.89 89.4492 326.89H89.4292V326.91Z" fill="#642EE8"/>
<path d="M25.0109 323.32C24.9609 322.81 25.1809 322.33 25.5909 322.04C26.8309 321.14 30.3509 318.81 39.9309 313.14C51.6109 306.22 66.6009 298.66 70.8009 296.56C71.5209 296.2 72.3809 296.34 72.9609 296.9C74.3709 298.29 77.0209 301.36 79.5109 306.78C79.5109 306.78 65.3609 319.67 59.5009 330.45C59.2509 330.91 58.7909 331.17 58.2709 331.15L29.7809 329.8C27.4109 329.69 25.4909 327.87 25.2409 325.51L25.0209 323.35V323.33L25.0109 323.32Z" fill="#E1C2FB"/>
<path d="M52.5895 306.83C52.4695 306.83 52.3395 306.8 52.2195 306.73C42.4395 301.25 41.1995 285.93 41.1495 285.28C41.1295 285.06 41.2095 284.85 41.3695 284.69C71.6195 254.78 91.4295 251.23 112.4 249.88C112.78 249.87 113.17 250.17 113.2 250.58C113.229 250.99 112.91 251.35 112.5 251.38C91.1695 252.75 72.4695 256.14 42.6795 285.51C42.9195 287.78 44.6395 300.77 52.9495 305.43C53.3095 305.63 53.4395 306.09 53.2395 306.45C53.0995 306.7 52.8495 306.83 52.5795 306.83H52.5895Z" fill="#24072B"/>
<path d="M60.8906 328.7C60.4806 328.7 60.1406 328.37 60.1406 327.95C60.1406 327.54 60.4706 327.2 60.8906 327.2C61.4706 327.2 119.661 326.79 157.021 317.06C186.451 309.39 194.241 297.1 194.311 296.98C196.181 293.74 198.161 287.35 198.171 284.55C198.171 280.45 189.911 271.55 179.251 266.23C177.351 265.28 174.651 264.15 171.441 262.95C171.051 262.81 170.851 262.37 171.001 261.99C171.151 261.61 171.581 261.41 171.961 261.55C175.221 262.77 177.971 263.92 179.921 264.89C191.221 270.53 199.671 279.92 199.671 284.55C199.661 287.97 197.441 294.56 195.611 297.73C193.571 301.27 182.721 311.92 157.401 318.51C119.851 328.29 61.4806 328.7 60.9006 328.7H60.8906Z" fill="#24072B"/>
<path d="M79.4892 307.52C79.2892 307.52 79.0792 307.44 78.9392 307.27C78.6592 306.96 78.6792 306.49 78.9892 306.21C89.8892 296.28 107.119 283.89 127.309 281.27C139.459 279.69 146.809 282.37 147.119 282.49C147.509 282.63 147.699 283.07 147.559 283.45C147.419 283.83 146.979 284.03 146.599 283.89C146.309 283.78 117.129 273.49 79.9992 307.32C79.8592 307.45 79.6792 307.52 79.4992 307.52H79.4892Z" fill="#24072B"/>
<path d="M89.4295 327.66C89.2395 327.66 89.0595 327.59 88.9095 327.45C88.5695 327.12 80.5295 319.19 83.6595 302.38C83.7395 301.97 84.1295 301.71 84.5395 301.78C84.9495 301.86 85.2195 302.25 85.1395 302.66C82.1695 318.62 89.8695 326.3 89.9495 326.38C90.2495 326.67 90.2595 327.14 89.9695 327.44C89.8195 327.59 89.6295 327.67 89.4295 327.67V327.66Z" fill="#24072B"/>
<path d="M58.3196 331.9C58.3196 331.9 58.2596 331.9 58.2296 331.9L29.7396 330.55C26.9896 330.42 24.7796 328.33 24.4896 325.59L24.2796 323.51C24.2796 323.51 24.2596 323.44 24.2596 323.41C24.1796 322.63 24.5196 321.88 25.1596 321.44C26.3196 320.6 29.7396 318.31 39.5496 312.51C50.7496 305.88 64.8996 298.69 70.4596 295.9C71.4596 295.4 72.6696 295.59 73.4796 296.37C74.8896 297.76 77.6296 300.92 80.1896 306.48C80.3296 306.78 80.2496 307.13 80.0096 307.35C79.8696 307.48 65.8796 320.28 60.1596 330.82C59.7896 331.5 59.0896 331.92 58.3296 331.92L58.3196 331.9ZM25.7496 323.18C25.7496 323.18 25.7596 323.24 25.7596 323.27L25.9796 325.43C26.1896 327.43 27.7996 328.95 29.8096 329.05L58.2996 330.4C58.5296 330.4 58.7196 330.3 58.8396 330.09C64.1996 320.22 76.1896 308.84 78.5896 306.6C76.1996 301.57 73.7196 298.71 72.4296 297.43C72.0796 297.09 71.5596 297.01 71.1296 297.23C65.5796 300.01 51.4696 307.18 40.3096 313.79C30.5596 319.56 27.1796 321.82 26.0296 322.65C25.8496 322.78 25.7496 322.97 25.7496 323.18Z" fill="#24072B"/>
<path d="M105.011 233.98C105.011 233.98 104.921 233.98 104.881 233.97C104.641 233.93 104.431 233.77 104.331 233.54L98.4607 220.6C98.2907 220.22 98.4607 219.78 98.8307 219.61C99.2107 219.44 99.6507 219.61 99.8207 219.98L105.241 231.94C117.201 220.45 133.081 222.04 137.661 222.8L137.351 221.83C133.401 210.05 129.811 205.33 127.111 202.53C126.821 202.23 126.831 201.76 127.131 201.47C127.431 201.18 127.901 201.19 128.191 201.49C130.991 204.4 134.721 209.29 138.771 221.36L139.481 223.54C139.561 223.8 139.501 224.08 139.321 224.28C139.141 224.48 138.851 224.56 138.591 224.5C138.391 224.45 119.021 219.94 105.541 233.75C105.401 233.9 105.201 233.98 105.001 233.98H105.011Z" fill="#24072B"/>
<path d="M41.9107 285.97C41.5707 285.97 41.2607 285.74 41.1807 285.39C40.9307 284.33 35.5608 258.94 71.3708 218.1C73.4308 215.68 91.6507 194.35 93.9408 192.91C96.4007 191.35 98.3207 191.14 103.451 190.57C103.861 190.52 104.231 190.82 104.281 191.23C104.331 191.64 104.031 192.01 103.621 192.06C98.3107 192.65 96.8407 192.85 94.7507 194.17C93.1707 195.17 80.5807 209.62 72.5108 219.08C54.0808 240.1 46.9508 256.93 44.2008 267.34C41.2408 278.6 42.6308 284.99 42.6508 285.05C42.7408 285.45 42.4907 285.86 42.0907 285.95C42.0307 285.96 41.9807 285.97 41.9207 285.97H41.9107Z" fill="#24072B"/>
<path d="M184.239 268.93C183.859 268.93 183.539 268.64 183.489 268.26C183.489 268.22 182.989 263.84 180.579 259.75C175.139 250.51 162.089 245 145.659 245H145.529L142.689 245.34C142.339 245.37 141.989 245.16 141.879 244.81L135.629 223.57C135.509 223.17 135.739 222.76 136.139 222.64C136.539 222.52 136.949 222.75 137.069 223.15L143.139 243.78L145.439 243.51H145.589C162.639 243.51 176.159 249.3 181.869 259C184.449 263.38 184.959 267.92 184.979 268.11C185.019 268.52 184.729 268.89 184.309 268.94C184.279 268.94 184.259 268.94 184.229 268.94L184.239 268.93Z" fill="#24072B"/>
<path d="M129.479 270.65C122.869 270.65 121.199 268.11 119.919 266.16L119.809 265.99C118.279 263.7 115.229 257.67 115.099 257.41L104.339 233.53C104.169 233.15 104.339 232.71 104.719 232.54C105.099 232.37 105.539 232.54 105.709 232.92L116.459 256.76C116.459 256.76 119.589 262.93 121.069 265.16L121.189 265.34C122.579 267.45 124.299 270.08 133.869 268.84C138.189 268.28 144.609 266.75 150.809 265.27C159.719 263.15 168.139 261.14 171.819 261.5C172.229 261.54 172.529 261.91 172.489 262.32C172.449 262.73 172.089 263.05 171.669 262.99C168.249 262.66 159.559 264.72 151.159 266.72C144.919 268.21 138.459 269.75 134.059 270.32C132.319 270.55 130.809 270.65 129.489 270.65H129.479Z" fill="#24072B"/>
<path d="M132.5 203.72C130.71 203.72 128.97 203.38 127.37 202.69C120.23 199.63 115.38 189.16 116.35 179.11C115.26 178.86 113.31 178.16 112.78 176.28C111.83 172.91 113.38 169.67 116.48 168.56C117.82 168.08 119.05 168.1 120.12 168.61C121.23 169.14 121.88 170.08 122.22 170.7C125.35 170.01 140.37 166.39 144.9 159.43C145.13 159.08 145.59 158.98 145.94 159.21C146.29 159.44 146.39 159.9 146.16 160.25C140.77 168.53 122.7 172.15 121.93 172.3C121.56 172.37 121.2 172.16 121.08 171.81C121.08 171.81 120.8 171.03 120.13 170.42C119.31 169.67 118.25 169.52 116.98 169.97C114.61 170.81 113.48 173.24 114.22 175.87C114.68 177.48 117.21 177.75 117.24 177.75C117.44 177.77 117.63 177.87 117.76 178.03C117.89 178.19 117.95 178.39 117.92 178.59C116.74 188.07 121.34 198.48 127.96 201.32C131.04 202.64 134.71 202.51 138.29 200.97C143.19 198.85 147.22 194.31 149.35 188.52C149.49 188.13 149.92 187.93 150.31 188.07C150.7 188.21 150.9 188.64 150.76 189.03C148.5 195.21 144.17 200.06 138.89 202.34C136.76 203.26 134.59 203.72 132.51 203.72H132.5Z" fill="#24072B"/>
<path d="M143.52 207.41C143.19 207.41 142.89 207.19 142.8 206.87C142.7 206.53 142.86 206.16 143.18 206C143.24 205.97 149.02 202.97 149.02 199.22C149.02 197.75 148.9 196.88 148.78 196.04C148.57 194.52 148.38 193.21 149.12 189.23C149.12 189.18 149.14 189.13 149.16 189.09C149.19 189.01 152.44 180.65 148.37 171.32C145.01 163.6 144.79 160.03 144.78 159.88C144.76 159.47 145.08 159.11 145.49 159.09C145.9 159.07 146.26 159.38 146.28 159.8C146.28 159.83 146.52 163.3 149.75 170.72C153.92 180.28 150.94 188.65 150.58 189.58C149.91 193.26 150.06 194.4 150.27 195.83C150.39 196.68 150.52 197.64 150.52 199.22C150.52 201.78 148.6 203.93 146.82 205.37C160.64 201.85 160.39 184.3 160.24 173.51V173.2C160.07 162.38 157.6 158.5 154.95 155.93C151.24 152.35 146.45 152.83 146.4 152.84C146.13 152.87 145.86 152.75 145.7 152.53C145.67 152.49 142.8 148.48 137.32 146.99C121.96 142.81 105.44 157 97.6999 172.48C95.2699 177.34 94.5699 181.95 95.7599 185.12C96.9799 188.37 99.9899 191.08 104.22 192.76C104.32 192.8 104.4 192.83 104.44 192.85C108.62 194.75 119.84 196.17 121.39 196.17C121.8 196.17 122.14 196.51 122.14 196.92C122.14 197.33 121.8 197.67 121.39 197.67C119.73 197.67 108.27 196.24 103.82 194.22L103.67 194.16C99.0399 192.33 95.7299 189.3 94.3599 185.65C93.0199 182.09 93.7499 177.04 96.3699 171.81C100.38 163.8 106.57 156.36 113.36 151.4C121.52 145.45 129.94 143.42 137.73 145.54C142.84 146.93 145.82 150.24 146.69 151.32C148.08 151.26 152.43 151.39 156.01 154.86C158.75 157.52 161.58 161.78 161.75 173.18V173.49C161.92 184.82 162.22 205.91 143.6 207.41C143.58 207.41 143.56 207.41 143.54 207.41H143.52Z" fill="#24072B"/>
<path d="M160.981 181.58H160.961C160.551 181.57 160.221 181.22 160.231 180.81C160.301 178.21 160.271 175.72 160.231 173.53V173.18C160.061 162.35 157.591 158.48 154.941 155.92C151.221 152.32 146.441 152.82 146.391 152.83C146.111 152.85 145.851 152.74 145.691 152.52C145.671 152.5 144.061 150.25 140.961 148.49C140.601 148.29 140.471 147.83 140.681 147.47C140.881 147.11 141.341 146.98 141.701 147.19C144.401 148.72 146.051 150.56 146.661 151.32C148.051 151.26 152.401 151.39 155.991 154.86C158.731 157.52 161.561 161.78 161.731 173.18V173.53C161.771 175.74 161.801 178.24 161.731 180.87C161.721 181.28 161.391 181.6 160.981 181.6V181.58Z" fill="#FEF1FF"/>
<path d="M121.371 197.67C119.711 197.67 108.251 196.24 103.801 194.22L103.641 194.16C99.0106 192.32 95.7106 189.3 94.3306 185.65C92.9906 182.09 93.7206 177.04 96.3406 171.81C96.5206 171.44 96.9806 171.29 97.3506 171.47C97.7206 171.65 97.8706 172.1 97.6906 172.48C95.2606 177.34 94.5606 181.95 95.7506 185.12C96.9706 188.37 99.9706 191.08 104.211 192.76C104.321 192.8 104.391 192.83 104.431 192.85C108.611 194.75 119.831 196.17 121.381 196.17C121.791 196.17 122.131 196.51 122.131 196.92C122.131 197.33 121.791 197.67 121.381 197.67H121.371Z" fill="#24072B"/>
<path d="M146.14 184.02C147.03 184.02 147.76 183.3 147.76 182.4C147.76 181.5 147.04 180.78 146.14 180.78C145.24 180.78 144.52 181.5 144.52 182.4C144.52 183.3 145.24 184.02 146.14 184.02Z" fill="#24072B"/>
<path d="M134.36 179.31C135.25 179.31 135.98 178.59 135.98 177.69C135.98 176.79 135.25 176.07 134.36 176.07C133.47 176.07 132.74 176.79 132.74 177.69C132.74 178.59 133.46 179.31 134.36 179.31Z" fill="#24072B"/>
<path d="M139.32 189.73C138.52 189.73 137.61 189.5 136.65 188.88C136.3 188.65 136.21 188.19 136.43 187.84C136.66 187.49 137.12 187.39 137.47 187.62C138.83 188.51 139.9 188.24 140.46 187.97C138.93 183.91 141.64 179.97 141.77 179.8C142.01 179.46 142.47 179.38 142.81 179.62C143.15 179.86 143.23 180.33 142.99 180.66C142.96 180.7 140.38 184.45 142.07 187.92C142.21 188.22 142.15 188.58 141.9 188.8C141.44 189.22 140.5 189.73 139.31 189.73H139.32Z" fill="#24072B"/>
<path d="M132.73 190.91C132.63 190.91 132.53 190.89 132.43 190.85C131.06 190.26 130.17 189.41 129.79 188.33C129.26 186.82 129.97 185.45 130 185.39C130.19 185.02 130.64 184.89 131.01 185.08C131.37 185.27 131.51 185.72 131.32 186.09C131.31 186.11 130.89 186.97 131.2 187.85C131.44 188.51 132.05 189.06 133.02 189.47C133.4 189.63 133.58 190.07 133.41 190.46C133.29 190.74 133.01 190.91 132.72 190.91H132.73Z" fill="#24072B"/>
<path d="M129.621 177C129.621 177 129.561 177 129.531 177C129.121 176.95 128.831 176.58 128.871 176.17C129.011 174.89 130.141 172.4 133.391 172.11C133.791 172.06 134.171 172.38 134.201 172.79C134.241 173.2 133.931 173.57 133.521 173.6C130.751 173.85 130.391 176.08 130.361 176.33C130.311 176.71 129.991 176.99 129.621 176.99V177Z" fill="#24072B"/>
<path d="M148.531 178.96C148.371 178.96 148.201 178.91 148.071 178.8C147.021 177.97 146.001 178.37 145.951 178.38C145.571 178.53 145.131 178.35 144.971 177.97C144.811 177.59 144.991 177.16 145.371 177C145.451 176.97 147.221 176.23 148.991 177.62C149.321 177.88 149.371 178.35 149.121 178.67C148.971 178.86 148.751 178.96 148.531 178.96Z" fill="#24072B"/>
<path d="M73.4297 297.18C73.4297 297.18 82.3897 301.45 99.4197 291.99C99.4197 291.99 88.8097 298.89 85.4297 301.49C84.7197 302.05 79.4897 306.79 79.4897 306.79C77.1697 302.54 76.2397 300.78 73.4297 297.19V297.18Z" fill="#24072B"/>
<path d="M79.4905 307.28C79.4905 307.28 79.4305 307.28 79.4105 307.28C79.2605 307.25 79.1305 307.16 79.0505 307.03L78.8405 306.64C76.7105 302.73 75.7405 300.95 73.0405 297.5C72.9005 297.32 72.9005 297.06 73.0405 296.88C73.1905 296.7 73.4405 296.64 73.6405 296.74C73.7305 296.78 82.6105 300.76 99.1705 291.56C99.4005 291.43 99.7005 291.51 99.8405 291.74C99.9805 291.97 99.9105 292.27 99.6805 292.42C99.5705 292.49 89.0405 299.34 85.7305 301.89C85.0405 302.43 79.8805 307.11 79.8205 307.16C79.7305 307.24 79.6105 307.29 79.4805 307.29L79.4905 307.28ZM74.8105 298.16C76.8205 300.84 77.8105 302.65 79.6305 305.99C80.9405 304.8 84.5305 301.57 85.1205 301.1C86.7205 299.87 89.9506 297.67 92.9105 295.69C83.5905 299.47 77.5105 298.83 74.8105 298.17V298.16Z" fill="#24072B"/>
<path d="M60.8495 185.92C60.5995 185.92 60.3495 185.79 60.2095 185.56C59.9895 185.21 60.0995 184.75 60.4595 184.53C60.5595 184.47 70.0995 178.5 68.9095 172.76C68.6995 171.73 68.2695 171.11 67.6195 170.89C65.5495 170.19 61.5695 173.03 60.2095 174.18C60.0095 174.35 59.7195 174.4 59.4695 174.31C59.2195 174.22 59.0295 174 58.9895 173.73C58.8195 172.8 58.0895 170.28 56.6595 169.75C55.8995 169.47 54.9495 169.78 53.8295 170.69C52.9495 171.4 52.5195 172.23 52.5195 173.22C52.5195 176.58 57.3295 180.51 57.3695 180.55C57.6895 180.81 57.7395 181.28 57.4795 181.6C57.2195 181.92 56.7495 181.97 56.4295 181.71C56.2095 181.53 51.0195 177.3 51.0195 173.22C51.0195 171.77 51.6395 170.53 52.8795 169.53C54.4395 168.26 55.8895 167.87 57.1795 168.35C58.8795 168.99 59.7595 170.98 60.1595 172.29C61.8895 170.98 65.5595 168.59 68.0895 169.46C69.2695 169.87 70.0395 170.87 70.3595 172.44C71.7595 179.21 61.6595 185.52 61.2295 185.79C61.1095 185.87 60.9695 185.9 60.8395 185.9L60.8495 185.92Z" fill="#E1C2FB"/>
<path d="M250.86 336.48C252.41 335.21 254.78 334.28 257.25 335.76C262.32 338.81 266.07 339.67 266.61 340.84C267.29 342.31 264.22 342.82 264.22 342.82C264.22 342.82 264.24 344.24 262.89 344.74C260.99 345.44 259.46 344.69 259.46 344.69C259.46 344.69 259.03 345.99 256.66 346.29C254.86 346.52 253.45 345.35 253.45 345.35C253.45 345.35 252.17 346.53 250.07 346.22C248.47 345.98 247.4 344.43 247.4 344.43C247.4 344.43 245.86 344.72 245.47 344.57C243.92 343.99 243.5 341.99 244.68 340.82L250.87 336.5V336.48H250.86Z" fill="#E1C2FB"/>
<path d="M256.189 347.07C254.999 347.07 254.019 346.6 253.459 346.26C252.819 346.66 251.609 347.2 249.959 346.96C248.589 346.75 247.579 345.79 247.089 345.24C246.169 345.39 245.539 345.4 245.199 345.26C244.239 344.9 243.539 344.08 243.319 343.07C243.099 342.05 243.409 341.01 244.149 340.28C244.179 340.25 244.209 340.22 244.249 340.2L250.299 335.98C250.299 335.98 250.359 335.92 250.389 335.89C251.479 335 254.359 333.14 257.639 335.11C260.009 336.54 262.049 337.46 263.689 338.2C265.689 339.1 266.899 339.65 267.299 340.52C267.529 341.02 267.519 341.52 267.279 341.98C266.829 342.83 265.639 343.25 264.899 343.44C264.729 344.16 264.249 345.03 263.149 345.44C261.739 345.96 260.499 345.79 259.779 345.59C259.339 346.12 258.459 346.81 256.749 347.03C256.559 347.05 256.369 347.07 256.179 347.07H256.189ZM253.449 344.6C253.619 344.6 253.789 344.66 253.929 344.77C253.929 344.77 255.119 345.73 256.569 345.54C258.379 345.31 258.749 344.46 258.759 344.42C258.839 344.23 258.999 344.06 259.189 343.99C259.379 343.92 259.609 343.91 259.789 344C259.839 344.02 261.079 344.59 262.629 344.02C263.439 343.72 263.469 342.9 263.469 342.81C263.469 342.45 263.739 342.13 264.099 342.07C264.839 341.94 265.789 341.59 265.949 341.27C265.949 341.25 265.969 341.23 265.929 341.14C265.759 340.78 264.389 340.16 263.069 339.56C261.479 338.84 259.309 337.86 256.869 336.39C254.589 335.02 252.559 336.1 251.469 336.94C251.419 337 251.369 337.05 251.299 337.1L245.169 341.38C244.819 341.75 244.679 342.25 244.789 342.75C244.899 343.27 245.249 343.67 245.739 343.85C245.889 343.88 246.619 343.8 247.269 343.68C247.559 343.63 247.859 343.75 248.029 343.99C248.029 344 248.949 345.28 250.189 345.46C251.889 345.7 252.939 344.79 252.949 344.78C253.089 344.65 253.279 344.58 253.459 344.58L253.449 344.6Z" fill="#24072B"/>
<path d="M216.25 322.22C214.87 321.03 212.92 320.8 211.31 321.66C206.67 324.14 197.55 329.15 196.97 330.62C196.24 332.47 200.06 332.86 200.06 332.86C200.06 332.86 200.14 334.6 201.84 335.11C204.22 335.82 206.04 334.78 206.04 334.78C206.04 334.78 206.67 336.34 209.61 336.52C211.84 336.66 213.48 335.11 213.48 335.11C213.48 335.11 215.15 336.46 217.69 335.91C219.64 335.5 220.84 333.51 220.84 333.51C220.84 333.51 222.75 333.75 223.23 333.53C225.09 332.7 225.45 330.2 223.91 328.87L216.25 322.21V322.22Z" fill="#E1C2FB"/>
<path d="M209.901 337.29C209.791 337.29 209.681 337.29 209.571 337.28C207.431 337.15 206.321 336.32 205.791 335.72C204.981 336.02 203.451 336.37 201.641 335.83C200.161 335.39 199.621 334.25 199.431 333.53C198.551 333.38 197.001 332.97 196.391 331.98C196.091 331.49 196.051 330.92 196.281 330.35C196.471 329.88 197.031 328.43 210.961 321C212.841 319.99 215.111 320.25 216.741 321.65L224.401 328.31C225.321 329.1 225.761 330.3 225.591 331.5C225.411 332.71 224.651 333.72 223.541 334.22C223.061 334.43 222.001 334.39 221.211 334.31C220.701 334.99 219.531 336.3 217.851 336.65C215.831 337.09 214.291 336.46 213.531 336.04C212.871 336.52 211.551 337.28 209.901 337.28V337.29ZM206.041 334.04C206.121 334.04 206.211 334.05 206.291 334.08C206.491 334.15 206.661 334.31 206.741 334.5C206.751 334.53 207.301 335.63 209.661 335.78C211.531 335.9 212.961 334.59 212.971 334.57C213.251 334.32 213.661 334.3 213.951 334.53C214.001 334.57 215.401 335.64 217.531 335.18C219.131 334.84 220.191 333.14 220.201 333.12C220.351 332.87 220.641 332.73 220.931 332.77C221.781 332.88 222.721 332.91 222.941 332.84C223.551 332.56 223.991 331.98 224.101 331.28C224.211 330.58 223.951 329.9 223.421 329.44L215.761 322.78C214.611 321.78 213.001 321.6 211.671 322.31C201.891 327.52 198.021 330.19 197.671 330.89C197.601 331.07 197.641 331.14 197.671 331.18C197.961 331.66 199.321 332.01 200.141 332.1C200.511 332.14 200.801 332.44 200.811 332.81C200.811 332.93 200.921 334.04 202.061 334.38C204.081 334.98 205.611 334.16 205.681 334.12C205.791 334.06 205.921 334.03 206.051 334.03L206.041 334.04Z" fill="#24072B"/>
</svg>
