<svg width="340" height="380" viewBox="0 0 340 380" fill="none" xmlns="http://www.w3.org/2000/svg">
<g clip-path="url(#clip0_951_8231)">
<path d="M21 177H341V85C326.826 98.7414 291.911 107.283 264 110.5C229.111 114.522 218.777 118.724 168.734 140.301C75.5 180.5 25 156.5 21 177Z" fill="#4C15B5"/>
<path d="M142.858 294.478C144.408 293.208 146.778 292.278 149.248 293.758C154.318 296.808 158.068 297.668 158.608 298.838C159.288 300.308 156.218 300.818 156.218 300.818C156.218 300.818 156.238 302.238 154.888 302.738C152.988 303.438 151.458 302.688 151.458 302.688C151.458 302.688 151.028 303.988 148.658 304.288C146.858 304.518 145.448 303.348 145.448 303.348C145.448 303.348 144.168 304.528 142.068 304.218C140.468 303.978 139.398 302.428 139.398 302.428C139.398 302.428 137.858 302.718 137.468 302.568C135.918 301.988 135.498 299.988 136.678 298.818L142.868 294.498L142.858 294.478Z" fill="#E1C2FB" stroke="#24072B" stroke-width="1.5" stroke-linejoin="round"/>
<path d="M102.249 283.224C100.873 282.035 98.9164 281.805 97.3097 282.664C92.6697 285.139 83.5475 290.153 82.9729 291.623C82.2482 293.472 86.0626 293.863 86.0626 293.863C86.0626 293.863 86.141 295.605 87.8459 296.114C90.2262 296.821 92.0454 295.788 92.0454 295.788C92.0454 295.788 92.6775 297.349 95.6145 297.533C97.8427 297.674 99.4854 296.127 99.4854 296.127C99.4854 296.127 101.151 297.476 103.696 296.928C105.643 296.515 106.845 294.524 106.845 294.524C106.845 294.524 108.752 294.759 109.232 294.546C111.092 293.711 111.455 291.217 109.913 289.886L102.249 283.224Z" fill="#E1C2FB" stroke="#24072B" stroke-width="1.5" stroke-linejoin="round"/>
<path d="M2.01074 181.553H340.999V77.07C325.989 92.6743 288.996 102.373 259.43 106.03C222.47 110.595 211.527 115.365 158.507 139.873C59.7447 185.528 6.2481 158.271 2.01074 181.553Z" fill="#4C15B5"/>
<path d="M56.0477 278.574C55.9312 279.994 84.83 277.257 94.6183 276.439C94.6183 276.439 142.522 279.71 148.051 281.618C161.357 286.206 155.488 280.71 165.446 280.312C174.291 279.96 183.698 279.96 186.272 282.334C188.847 284.707 192.724 304.457 202.523 304.457C212.321 304.457 234.335 301.901 258.922 304.457C258.922 304.457 250.066 291.533 238.032 290.454C225.998 289.375 197.618 279.744 197.618 279.744L166.78 277.246L134.248 260.79C134.248 260.79 103.019 264.367 99.3111 264.855C95.6034 265.344 93.8343 264.924 88.8449 263.856C83.8554 262.788 68.1877 272.635 68.1877 272.635C68.1877 272.635 56.2808 275.622 56.0371 278.574H56.0477Z" fill="#24072B"/>
<path d="M59.7543 251.284C59.7543 251.284 55.0403 267.933 59.7543 271.828C64.4684 275.735 75.3902 279.869 82.3288 271.828C89.2675 263.788 95.56 254.918 95.56 254.918" fill="#FEF1FF"/>
<path d="M85.4552 181.121L124.079 185.607L127.627 213.931L129.386 224.675L95.5613 254.929C95.5613 254.929 90.7837 254.43 84.3641 254.77C74.9465 255.259 62.2874 255.94 58.5903 249.626C58.5903 249.626 70.2431 204.039 73.1774 197.112L85.4764 181.133H85.4552V181.121Z" fill="#6F53F5"/>
<path d="M97.2664 241.097C97.2664 241.097 69.7024 209.786 70.2427 198.804C70.783 187.822 72.7004 187.697 73.4737 176.261C74.247 164.824 78.0182 162.621 83.1455 161.633C88.2727 160.645 96.7897 159.793 96.7897 159.793C96.7897 159.793 89.6816 152.65 88.8871 136.296L120.54 126.336L130.773 149.095C131.324 146.994 129.936 156.102 123.305 164.041C123.305 164.041 126.674 164.188 130.244 168.595C132.066 170.843 133.856 175.216 135.445 179.179C137.384 184.017 145.064 200.246 146.377 206.879C147.691 213.511 151.229 223.13 151.229 223.13L138.824 226.901L133.655 212.012L124.078 185.607L89.3214 181.667L86.4718 198.1C86.4188 198.781 86.5565 199.463 86.8743 200.042L101.069 226.901L97.2664 241.108V241.097Z" fill="#FEF1FF"/>
<path d="M91.4725 149.277C91.4725 149.277 89.9894 152.309 87.9767 150.367C85.9639 148.425 84.2902 138.67 89.8305 142.292" fill="#FEF1FF"/>
<path d="M89.3328 151.866C88.8137 151.866 88.1463 151.673 87.4365 151.003C85.8052 149.424 84.4174 143.791 85.9323 141.6C86.4408 140.873 87.6696 139.896 90.2332 141.565L89.4069 143.019C88.6336 142.508 87.6166 142.02 87.2035 142.622C86.2925 143.928 87.3094 148.595 88.4959 149.742C89.015 150.242 89.3434 150.185 89.4493 150.163C90.0531 150.049 90.604 149.186 90.7523 148.891L92.1612 149.686C92.0659 149.879 91.2078 151.559 89.7353 151.843C89.6082 151.866 89.4705 151.877 89.3222 151.877L89.3328 151.866Z" fill="#24072B"/>
<path d="M130.497 150.969C130.497 150.969 132.065 153.956 134.014 151.946C135.974 149.935 137.351 140.135 131.927 143.928" fill="#FEF1FF"/>
<path d="M132.628 153.49C132.501 153.49 132.395 153.49 132.289 153.467C130.806 153.229 129.906 151.571 129.8 151.389L131.188 150.549C131.346 150.844 131.918 151.684 132.522 151.787C132.628 151.798 132.957 151.855 133.455 151.332C134.609 150.151 135.488 145.45 134.535 144.178C134.111 143.598 133.116 144.109 132.353 144.643L131.484 143.212C133.995 141.463 135.255 142.395 135.785 143.11C137.374 145.256 136.145 150.935 134.556 152.559C133.846 153.297 133.147 153.49 132.618 153.49H132.628Z" fill="#24072B"/>
<path d="M89.131 128.221C89.131 128.221 84.8619 145.926 65.7408 142.724C65.7408 142.724 64.3636 135.376 67.5311 127.335C69.8404 121.464 79.2474 109.414 93.4107 119.987" fill="#24072B"/>
<path d="M70.1679 143.678C68.759 143.678 67.2654 143.553 65.6552 143.292C65.4327 143.258 65.2632 143.076 65.2208 142.837C65.1679 142.531 63.8437 135.228 67.0429 127.12C68.3247 123.849 72.1913 117.796 78.4838 115.842C83.3038 114.343 88.431 115.592 93.7065 119.533C93.9501 119.715 94.0031 120.067 93.8336 120.328C93.6641 120.589 93.3357 120.646 93.0921 120.465C88.092 116.728 83.2614 115.536 78.7698 116.933C72.8481 118.772 69.2145 124.485 68.0069 127.563C65.348 134.309 65.973 140.623 66.1848 142.236C84.2784 145.029 88.431 128.789 88.6005 128.085C88.6746 127.778 88.95 127.597 89.2467 127.676C89.5327 127.756 89.7022 128.062 89.628 128.369C89.5856 128.539 85.7402 143.678 70.1468 143.678H70.1679Z" fill="#24072B"/>
<path d="M126.643 117.75C127.744 116.739 134.694 111.379 143.041 115.729C152.533 120.68 157.289 137.25 157.289 137.25C157.289 137.25 149.482 141.554 142.745 140.078C138.952 139.249 135.668 137.08 133.369 134.638" fill="#24072B"/>
<path d="M145.762 140.952C144.713 140.952 143.665 140.861 142.626 140.634C139.078 139.862 135.645 137.874 132.986 135.047C132.775 134.831 132.775 134.467 132.986 134.24C133.188 134.013 133.527 134.013 133.739 134.24C136.26 136.921 139.491 138.794 142.849 139.533C148.463 140.759 154.968 137.795 156.641 136.966C155.783 134.274 151.112 120.578 142.807 116.251C134.162 111.754 127.054 118.125 126.98 118.193C126.758 118.398 126.419 118.375 126.228 118.136C126.037 117.898 126.058 117.534 126.281 117.33C126.588 117.046 133.993 110.402 143.251 115.229C152.838 120.226 157.574 136.409 157.775 137.091C157.849 137.352 157.743 137.636 157.51 137.761C157.235 137.909 151.62 140.964 145.751 140.964L145.762 140.952Z" fill="#24072B"/>
<path d="M111.484 115.57C111.484 115.57 118.19 110.255 125.234 116.319C130.87 121.18 132.692 128.619 133.37 134.626C134.09 141.032 130.775 149.072 130.775 149.072C130.775 149.072 119.81 144.916 112.893 132.639C112.893 132.639 104.683 144.916 90.7316 146.415C90.7316 146.415 83.6976 126.995 96.3461 117.182C105.255 110.277 111.484 115.558 111.484 115.558V115.57Z" fill="#24072B"/>
<path d="M131.198 150.14L130.499 149.879C130.054 149.708 119.799 145.711 112.808 134.127C110.498 137.136 102.755 145.983 90.7948 147.267L90.191 147.335L89.9685 146.733C89.8943 146.528 88.157 141.668 87.9769 135.512C87.7333 127.256 90.4558 120.68 95.8584 116.501C100.678 112.765 104.767 112.503 107.363 112.946C109.365 113.287 110.795 114.082 111.484 114.548C113.232 113.423 119.386 110.221 125.711 115.661C130.403 119.715 133.158 125.882 134.132 134.536C134.874 141.1 131.611 149.095 131.473 149.424L131.177 150.14H131.198ZM112.946 131.094L113.571 132.196C119.259 142.281 127.84 146.812 130.34 147.959C131.113 145.836 133.137 139.703 132.586 134.717C131.664 126.529 129.101 120.726 124.736 116.967C118.274 111.402 112.204 116.035 111.95 116.24L110.689 117.228V115.979C109.397 115.081 104.121 112.185 96.8118 117.852C86.0489 126.2 90.2439 142.156 91.2715 145.472C104.333 143.735 112.172 132.242 112.246 132.128L112.946 131.072V131.094Z" fill="#24072B"/>
<path d="M112.415 169.254C111.864 169.254 111.303 169.219 110.72 169.163C93.1031 167.38 89.9781 146.744 89.9463 146.54L91.5141 146.279C91.6306 147.074 94.4909 165.812 110.868 167.47C125.413 168.947 129.958 149.072 130 148.868L131.547 149.254C131.504 149.459 126.97 169.242 112.415 169.242V169.254Z" fill="#24072B"/>
<path d="M95.0107 239.916C94.8836 239.757 81.8113 223.641 76.1862 214.465C70.54 205.255 69.0887 202.586 69.5018 196.305C69.6819 193.625 70.2116 191.149 70.7836 188.526C71.504 185.198 72.3197 181.428 72.6692 176.181C73.3048 166.698 76.0274 163.552 79.9257 161.747C83.3474 160.157 95.6463 158.964 96.1654 158.919L96.3031 160.611C96.176 160.622 83.7499 161.826 80.5507 163.302C77.7117 164.62 74.8939 166.709 74.2477 176.306C73.8875 181.678 73.0612 185.516 72.3197 188.912C71.7476 191.581 71.2497 193.875 71.0802 196.419C70.7201 201.95 71.7158 204.073 77.5104 213.522C83.072 222.608 96.0806 238.632 96.2078 238.791L95.0107 239.904V239.916Z" fill="#24072B"/>
<path d="M97.8382 222.006C97.7641 221.87 90.7512 208.525 86.8211 201.779C86.0689 200.473 85.7194 198.974 85.8147 197.43L89.3423 176.874C89.6389 173.194 89.5754 163.143 85.624 161.86L86.0795 160.225C92.0648 162.167 90.9631 176.488 90.9101 177.09L87.3825 197.634C87.319 198.724 87.5838 199.871 88.1664 200.871C92.1178 207.651 99.1518 221.029 99.2259 221.166L97.8382 222.006Z" fill="#24072B"/>
<path d="M150.489 223.369C150.319 222.835 146.41 210.263 145.626 207.06C145.139 205.107 142.162 197.816 139.281 190.775C137.522 186.47 135.859 182.416 134.726 179.463C130.34 168.084 128.656 167.323 123.655 165.074L123.009 164.779L123.624 163.212L124.27 163.507C129.567 165.892 131.558 166.778 136.187 178.816C137.321 181.746 138.974 185.8 140.732 190.093C143.772 197.521 146.643 204.551 147.152 206.629C147.936 209.786 151.95 222.699 151.993 222.835L150.489 223.369Z" fill="#24072B"/>
<path d="M138.825 227.741C138.507 227.741 138.2 227.525 138.084 227.185L132.914 212.307L125.689 192.387L127.766 209.797L129.757 222.086C129.831 222.551 129.545 222.994 129.111 223.074C128.687 223.142 128.263 222.846 128.189 222.381L126.198 210.059L123.306 185.721C123.253 185.289 123.507 184.892 123.899 184.79C124.291 184.676 124.694 184.903 124.831 185.312L134.408 211.728L139.577 226.617C139.726 227.06 139.524 227.548 139.111 227.707C139.016 227.741 138.931 227.764 138.836 227.764L138.825 227.741Z" fill="#24072B"/>
<path d="M75.454 256.133C59.8182 256.133 57.9007 250.137 57.816 249.842L57.7524 249.614L57.8054 249.387C62.2334 229.706 70.581 204.164 70.6658 203.915L72.1701 204.482C72.0853 204.732 63.8436 229.956 59.4156 249.512C59.9559 250.546 63.7589 255.952 83.0601 254.021C92.52 253.078 95.6556 254.055 95.7827 254.1L95.3166 255.724C95.3166 255.724 92.2445 254.805 83.2084 255.724C80.3058 256.02 77.7422 256.145 75.454 256.145V256.133Z" fill="#24072B"/>
<path d="M72.2973 277.257C67.0112 277.257 61.8946 274.679 59.2675 272.498C54.2674 268.365 58.4941 252.794 58.992 251.034L60.5175 251.534C59.2463 256.008 56.7356 268.262 60.2421 271.158C64.3523 274.565 75.0092 279.063 81.7466 271.249C88.5794 263.334 94.8613 254.487 94.9248 254.407L96.1854 255.441C96.1219 255.531 89.787 264.435 82.9013 272.419C79.8081 275.996 76.005 277.268 72.2867 277.268L72.2973 277.257Z" fill="#24072B"/>
<path d="M124.693 186.516L89.2471 182.496L89.4166 180.803L123.474 184.665C125.974 172.615 122.288 163.814 122.256 163.723L123.697 163.007C123.866 163.405 127.796 172.797 124.862 185.789L124.703 186.516H124.693Z" fill="#24072B"/>
<path d="M88.8872 133.559C88.8872 133.559 88.8131 133.559 88.7707 133.559C88.3364 133.491 88.0397 133.059 88.1033 132.594C88.1563 132.23 89.3745 123.599 93.2199 119.261C97.0335 114.968 99.9785 113.878 100.106 113.832C100.519 113.684 100.974 113.923 101.112 114.377C101.25 114.832 101.027 115.309 100.604 115.456C100.582 115.456 97.881 116.478 94.3746 120.43C90.8788 124.371 89.6923 132.753 89.6817 132.832C89.6288 133.252 89.2792 133.559 88.8978 133.559H88.8872Z" fill="#FEF1FF"/>
<path d="M133.56 136.387C133.56 136.387 133.497 136.387 133.454 136.387C133.02 136.33 132.713 135.898 132.766 135.433C132.766 135.41 133.031 132.809 131.516 128.437C131.368 127.994 131.569 127.506 131.982 127.347C132.395 127.188 132.851 127.403 132.999 127.846C134.673 132.65 134.344 135.535 134.334 135.66C134.281 136.091 133.942 136.398 133.55 136.398L133.56 136.387Z" fill="#FEF1FF"/>
<path d="M108.019 154.421C108.93 154.421 109.682 153.626 109.682 152.638C109.682 151.65 108.94 150.855 108.019 150.855C107.097 150.855 106.355 151.65 106.355 152.638C106.355 153.626 107.097 154.421 108.019 154.421Z" fill="#24072B"/>
<path d="M120.191 155.762C121.102 155.762 121.854 154.967 121.854 153.979C121.854 152.99 121.113 152.195 120.191 152.195C119.269 152.195 118.528 152.99 118.528 153.979C118.528 154.967 119.269 155.762 120.191 155.762Z" fill="#24072B"/>
<path d="M101.842 149.106C101.757 149.106 101.683 149.095 101.598 149.061C101.185 148.925 100.952 148.448 101.079 148.005C101.471 146.642 103.113 144.178 106.429 144.552C106.863 144.598 107.181 145.018 107.139 145.484C107.096 145.949 106.704 146.29 106.27 146.245C103.473 145.938 102.679 148.255 102.594 148.516C102.488 148.879 102.17 149.106 101.842 149.106Z" fill="#24072B"/>
<path d="M124.533 152.559C124.216 152.559 123.919 152.355 123.792 152.025C122.881 149.572 120.857 149.924 120.773 149.947C120.338 150.026 119.925 149.72 119.851 149.265C119.777 148.8 120.063 148.357 120.487 148.277C121.652 148.05 124.152 148.414 125.264 151.401C125.423 151.832 125.232 152.332 124.819 152.502C124.724 152.548 124.629 152.559 124.523 152.559H124.533Z" fill="#24072B"/>
<path d="M110.677 163.257C109.798 163.257 109.024 163.03 108.357 162.587C106.895 161.622 106.524 159.952 106.514 159.884C106.418 159.43 106.683 158.964 107.107 158.862C107.531 158.76 107.954 159.044 108.06 159.498C108.124 159.782 108.791 162.19 111.884 161.383C112.308 161.27 112.742 161.554 112.848 162.008C112.954 162.462 112.69 162.928 112.266 163.041C111.704 163.189 111.185 163.257 110.687 163.257H110.677Z" fill="#24072B"/>
<path d="M114.173 158.487C113.326 158.487 112.659 158.078 112.351 157.772C112.034 157.454 112.012 156.909 112.309 156.568C112.606 156.227 113.103 156.205 113.421 156.511C113.474 156.557 113.887 156.92 114.523 156.738C114.544 156.738 114.597 156.716 114.629 156.625C114.629 156.591 114.671 156.488 114.608 156.386C114.046 155.455 113.4 154.035 113.527 152.559C113.57 152.093 113.962 151.753 114.396 151.787C114.83 151.832 115.159 152.241 115.116 152.718C115.031 153.763 115.593 154.887 115.942 155.455C116.26 155.977 116.334 156.636 116.123 157.215C115.921 157.783 115.498 158.203 114.957 158.374C114.692 158.453 114.428 158.487 114.184 158.487H114.173Z" fill="#24072B"/>
<path d="M78.7822 255.304C78.7822 255.304 82.5958 254.895 86.7485 257.666C92.7867 261.709 95.5622 254.929 95.5622 254.929C95.5622 254.929 92.7973 254.055 86.2294 254.623C79.6615 255.191 78.7928 255.304 78.7928 255.304H78.7822Z" fill="#24072B"/>
<path d="M90.3924 259.518C89.1424 259.518 87.8288 259.063 86.4623 258.143C82.7228 255.656 79.2376 255.838 78.8562 255.861C78.8456 255.861 78.8456 255.861 78.835 255.861H78.8244C78.549 255.849 78.2948 255.611 78.2842 255.327C78.2736 255.02 78.4431 254.77 78.7291 254.736C78.7397 254.736 78.782 254.736 78.835 254.736C79.0787 254.702 80.4876 254.555 86.1868 254.066C92.7759 253.498 95.5938 254.362 95.7103 254.396C95.8586 254.441 95.9751 254.555 96.0387 254.702C96.1023 254.85 96.1023 255.02 96.0387 255.168C95.9857 255.293 94.7039 258.371 91.9496 259.279C91.4412 259.449 90.9221 259.529 90.3924 259.529V259.518ZM83.4855 255.429C84.5766 255.804 85.7843 256.349 87.0237 257.178C88.6975 258.302 90.2441 258.632 91.6318 258.178C93.2314 257.655 94.2696 256.167 94.7569 255.316C93.6022 255.1 90.8903 254.782 86.2716 255.179C85.2016 255.27 84.28 255.35 83.4855 255.418V255.429Z" fill="#24072B"/>
<path d="M84.1083 224.527C84.1083 224.527 75.0721 217.997 70.231 208.548L71.4068 204.21C74.6908 212.125 84.1083 224.527 84.1083 224.527Z" fill="#24072B"/>
<path d="M84.1091 225.095C84.0031 225.095 83.9078 225.061 83.8124 225.004C83.7171 224.936 74.6174 218.292 69.7656 208.832C69.702 208.696 69.6808 208.548 69.7232 208.4L70.8991 204.062C70.9626 203.835 71.1533 203.676 71.3758 203.653C71.6194 203.619 71.8101 203.767 71.8949 203.994C75.1153 211.751 84.4269 224.062 84.5222 224.186C84.6917 224.402 84.6811 224.72 84.501 224.925C84.3951 225.05 84.2574 225.106 84.1091 225.106V225.095ZM70.8037 208.48C73.6852 214.011 78.0496 218.542 81.0476 221.268C78.2509 217.338 73.9288 210.944 71.5241 205.811L70.8037 208.48Z" fill="#24072B"/>
<path d="M101.451 284.582C92.6376 284.582 87.7329 284.06 90.4024 282.379C93.0719 280.698 95.6144 276.065 95.6144 270.579V222.767C95.6144 222.12 96.1017 221.586 96.7161 221.586H105.932C106.536 221.586 107.034 222.108 107.034 222.767V232.409H115.742V222.767C115.742 222.12 116.229 221.586 116.844 221.586H129.948V232.693H138.825V224.3C138.825 223.653 139.312 223.119 139.927 223.119H151.24C151.844 223.119 152.342 223.641 152.342 224.3V256.872C152.342 268.762 152.056 281.175 155.001 284.23" fill="#E1C2FB"/>
<path d="M181.25 278.574C173.708 277.325 176.006 243.8 176.006 243.8L164.947 235.01L152.341 241.29L148.061 277.995" fill="#E1C2FB"/>
<path d="M115.339 285.593V269.046C115.339 263.686 119.312 259.688 124.418 259.688C129.248 259.688 132.744 263.583 133.348 269.421C133.952 275.258 134.259 285.593 134.259 285.593" fill="#5920C5"/>
<path d="M101.451 285.434C90.2962 285.434 89.1945 284.594 88.9191 283.503C88.7496 282.833 89.1098 282.209 89.9996 281.641C92.3937 280.13 94.8196 275.849 94.8196 270.579V222.767C94.8196 221.643 95.6671 220.734 96.7158 220.734H105.932C106.981 220.734 107.828 221.643 107.828 222.767V231.557H114.947V222.767C114.947 221.643 115.795 220.734 116.843 220.734H128.899C129.916 220.734 130.742 221.62 130.742 222.71V231.83H138.03V224.289C138.03 223.164 138.878 222.256 139.926 222.256H151.24C152.289 222.256 153.136 223.164 153.136 224.289V259.779C153.115 270.238 153.094 281.05 155.552 283.605C155.869 283.935 155.88 284.469 155.573 284.809C155.266 285.15 154.768 285.161 154.45 284.832C151.505 281.777 151.526 271.09 151.547 259.779V224.289C151.547 224.107 151.41 223.959 151.24 223.959H139.926C139.757 223.959 139.619 224.107 139.619 224.289V233.533H129.153V222.71C129.153 222.562 129.036 222.438 128.899 222.438H116.843C116.674 222.438 116.536 222.585 116.536 222.767V233.261H106.239V222.767C106.239 222.585 106.102 222.438 105.932 222.438H96.7158C96.5463 222.438 96.4086 222.585 96.4086 222.767V270.579C96.4086 276.462 93.6226 281.311 90.8471 283.083C91.8111 283.367 94.4171 283.73 101.451 283.73C101.885 283.73 102.246 284.117 102.246 284.582C102.246 285.048 101.885 285.434 101.451 285.434Z" fill="#24072B"/>
<path d="M134.26 284.957C133.836 284.957 133.486 284.594 133.465 284.139C133.465 284.048 133.147 275.258 132.554 269.512C131.993 264.06 128.793 260.54 124.408 260.54C119.683 260.54 116.124 264.197 116.124 269.046V284.105C116.124 284.571 115.764 284.957 115.329 284.957C114.895 284.957 114.535 284.571 114.535 284.105V269.046C114.535 263.231 118.783 258.836 124.408 258.836C129.577 258.836 133.476 263.05 134.132 269.33C134.736 275.133 135.043 283.992 135.043 284.071C135.065 284.537 134.715 284.934 134.281 284.957C134.281 284.957 134.26 284.957 134.249 284.957H134.26Z" fill="#24072B"/>
<path d="M131.759 264.14C118.412 264.401 115.329 284.094 115.329 284.094V269.035C115.329 263.674 119.302 259.677 124.408 259.677C127.162 259.677 129.482 260.937 131.081 263.118L131.749 264.151H131.759V264.14Z" fill="#24072B"/>
<path d="M115.329 284.946C115.329 284.946 115.287 284.946 115.266 284.946C114.852 284.912 114.535 284.537 114.535 284.094V269.035C114.535 263.22 118.783 258.825 124.408 258.825C127.331 258.825 129.927 260.165 131.707 262.595L132.31 263.527C132.395 263.606 132.459 263.708 132.501 263.822C132.628 264.151 132.543 264.526 132.3 264.764H132.289C132.12 264.946 131.887 265.014 131.664 264.992C131.664 264.992 131.654 264.992 131.643 264.992C119.228 265.366 116.145 284.048 116.113 284.23C116.05 284.639 115.711 284.946 115.329 284.946ZM124.408 260.528C119.683 260.528 116.124 264.185 116.124 269.035V278.029C118.115 272.328 122.278 264.412 130.276 263.39C128.815 261.528 126.791 260.528 124.408 260.528Z" fill="#24072B"/>
<path d="M181.124 279.415C173.369 278.132 174.852 249.376 175.181 244.209L164.852 235.998L152.67 242.062L152.002 240.518L165.032 234.022L176.823 243.391L176.791 243.857C175.922 256.519 176.399 276.905 181.367 277.723L181.124 279.403V279.415Z" fill="#24072B"/>
<path d="M188.158 261.437L183.434 264.855C183.434 264.855 182.353 270.75 182.353 272.76C182.353 276.837 191.241 282.333 191.241 282.333L210.849 263.084L188.158 261.437Z" fill="#FEF1FF"/>
<path d="M196.866 233.828L219.504 228.366C219.504 228.366 232.852 240.881 239.695 248.933C246.538 256.985 250.956 262.981 250.14 270.011C249.324 277.041 246.92 284.594 246.92 284.594L222.735 279.755C222.735 279.755 221.697 273.6 218.296 270.034C216.591 268.251 208.773 263.742 208.773 263.742L192.491 251.568C192.491 251.568 190.944 240.245 196.876 233.817L196.866 233.828Z" fill="#6F53F5"/>
<path d="M209.42 264.367C209.42 264.367 192.788 274.929 191.443 280.948C190.087 286.967 191.019 291.896 191.411 292.782C191.792 293.656 195.267 301.924 217.672 300.777C240.077 299.63 251.221 300.357 253.7 302.242C256.179 304.127 263.139 305.388 263.891 299.982C264.643 294.576 262.185 284.4 255.247 283.958C248.308 283.515 232.948 281.38 229.769 280.937C226.581 280.482 222.735 279.767 222.735 279.767C222.735 279.767 222.047 273.134 218.297 270.045C214.547 266.956 209.43 264.378 209.43 264.378L209.42 264.367Z" fill="#FEF1FF"/>
<path d="M213.91 242.028C207.49 246.151 195.033 251.602 192.49 251.579C191.028 251.557 181.229 251.613 170.837 249.898C169.873 249.739 167.85 248.433 166.314 247.355C165.551 246.821 164.566 247.468 164.661 248.433C164.799 249.955 164.926 250.273 164.216 250.262C162.002 250.239 158.231 249.331 158.009 253.533C157.648 260.233 165.435 261.721 171.049 263.106C173.941 263.822 184.397 265.196 195.234 265.866C202.045 266.286 220.065 262.073 225.181 253.919C231.792 243.391 218.603 239.041 213.921 242.051V242.028H213.91Z" fill="#FEF1FF"/>
<path d="M247.313 284.321C247.196 284.321 247.08 284.298 246.974 284.242C246.571 284.037 246.412 283.537 246.592 283.106C246.645 282.981 251.9 270.84 247.662 261.562C243.732 252.953 228.456 238.099 225.427 235.203C225.098 234.885 225.067 234.351 225.363 233.999C225.66 233.647 226.158 233.613 226.486 233.931C229.548 236.861 245.024 251.92 249.082 260.812C253.658 270.829 248.245 283.31 248.012 283.833C247.874 284.139 247.588 284.321 247.291 284.321H247.313Z" fill="#24072B"/>
<path d="M192.481 252.431C192.089 252.431 191.739 252.113 191.697 251.681C190.309 239.586 196.072 233.465 196.316 233.215C196.633 232.886 197.131 232.897 197.438 233.238C197.746 233.579 197.735 234.112 197.417 234.442C197.364 234.499 191.983 240.268 193.265 251.477C193.318 251.943 193.01 252.374 192.576 252.431C192.544 252.431 192.513 252.431 192.481 252.431Z" fill="#24072B"/>
<path d="M196.165 266.741C195.816 266.741 195.488 266.741 195.191 266.718C183.962 266.025 173.686 264.64 170.868 263.935L169.915 263.708C164.396 262.368 156.832 260.54 157.214 253.487C157.447 249.024 161.091 249.24 163.262 249.376C163.506 249.387 163.739 249.41 163.962 249.41C163.962 249.285 163.94 249.149 163.93 249.024L163.887 248.524C163.813 247.752 164.152 247.025 164.767 246.616C165.392 246.207 166.154 246.219 166.769 246.65C169.746 248.74 170.741 249.024 170.974 249.069C177.299 250.114 184.386 250.671 192.034 250.739H192.521C192.521 250.739 192.521 250.739 192.532 250.739C194.873 250.739 207.151 245.39 213.517 241.313L213.761 241.188C216.823 239.45 222.808 240.143 225.975 243.709C227.416 245.333 229.323 248.888 225.859 254.407C220.753 262.539 203.591 266.752 196.187 266.752L196.165 266.741ZM161.875 251.011C160.021 251.011 158.919 251.443 158.803 253.578C158.506 259.188 165.032 260.767 170.275 262.039L171.229 262.277C174.046 262.97 184.555 264.356 195.286 265.014C201.536 265.378 219.587 261.323 224.524 253.442C226.664 250.035 226.759 247.071 224.81 244.867C222.172 241.892 216.759 241.222 214.333 242.778L213.126 243.55V243.493C206.505 247.479 195.18 252.431 192.5 252.431H192.002C184.28 252.363 177.119 251.795 170.72 250.739C169.83 250.591 168.199 249.694 165.879 248.07C165.752 247.979 165.635 248.025 165.582 248.07C165.529 248.104 165.434 248.195 165.455 248.354L165.498 248.842C165.582 249.728 165.635 250.273 165.254 250.716C164.904 251.125 164.396 251.125 164.195 251.114C163.877 251.114 163.527 251.091 163.156 251.068C162.69 251.045 162.256 251.023 161.864 251.023L161.875 251.011Z" fill="#24072B"/>
<path d="M259.716 304.706C257.777 304.706 255.521 303.911 253.423 303.026C247.152 300.38 236.326 300.743 217.724 301.617C194.916 302.696 191.198 294.667 190.679 293.054C189.842 290.476 190.212 284.855 190.509 281.743C190.604 280.709 190.975 279.721 191.558 278.892C192.787 277.155 195.912 273.362 203.126 267.445C213.539 258.893 225.986 259.961 226.516 260.017C226.95 260.063 227.279 260.472 227.236 260.937C227.194 261.403 226.802 261.755 226.378 261.709C226.251 261.709 213.995 260.653 204.09 268.796C197.024 274.6 193.994 278.256 192.818 279.926C192.405 280.505 192.151 281.198 192.087 281.913C191.611 286.899 191.643 290.863 192.172 292.498C192.448 293.372 195.541 300.947 217.649 299.925C237.014 299.017 247.417 298.665 254.006 301.447C256.76 302.605 260.129 303.764 261.76 302.401C263.01 301.356 263.392 298.767 262.904 294.701C261.654 284.276 254.292 284.344 249.377 284.366C248.561 284.366 247.851 284.366 247.269 284.321C244.44 284.071 240.595 283.401 236.527 282.697C226.919 281.039 214.959 278.961 211.643 281.55C211.283 281.822 210.785 281.743 210.531 281.357C210.276 280.982 210.351 280.448 210.711 280.164C214.567 277.155 226.368 279.199 236.781 281.005C240.817 281.709 244.631 282.368 247.406 282.617C247.915 282.663 248.593 282.663 249.366 282.651C254.133 282.606 263.053 282.549 264.483 294.474C265.055 299.244 264.483 302.276 262.735 303.741C261.898 304.445 260.86 304.718 259.716 304.718V304.706Z" fill="#24072B"/>
<path d="M222.724 280.607C222.342 280.607 222.003 280.312 221.94 279.903C219.938 267.24 208.783 265.56 208.666 265.548C208.232 265.491 207.925 265.06 207.978 264.594C208.031 264.129 208.423 263.799 208.867 263.856C208.995 263.879 221.294 265.719 223.497 279.619C223.571 280.085 223.274 280.528 222.851 280.607C222.808 280.607 222.766 280.619 222.713 280.619L222.724 280.607Z" fill="#24072B"/>
<path d="M191.241 283.185C191.114 283.185 190.976 283.151 190.849 283.072C186.357 280.369 181.559 276.235 181.559 272.76C181.559 270 182.618 264.889 182.66 264.674C182.756 264.208 183.19 263.935 183.614 264.026C184.037 264.129 184.313 264.583 184.218 265.048C184.207 265.094 183.158 270.193 183.158 272.771C183.158 274.997 186.569 278.552 191.643 281.607C192.025 281.834 192.163 282.356 191.951 282.765C191.802 283.049 191.538 283.197 191.252 283.197L191.241 283.185Z" fill="#24072B"/>
<path d="M216.443 230.399C207.672 237.179 197.364 235.6 191.813 230.967C183.455 223.982 185.118 213.034 185.118 213.034L193.233 200.837L211.824 197.509L220.087 207.549V225.265L216.443 230.376V230.399Z" fill="#FEF1FF"/>
<path d="M203.475 235.816C198.751 235.816 194.397 234.203 191.325 231.637C182.691 224.425 184.259 213.363 184.333 212.898L184.365 212.705L192.776 200.053L212.13 196.589L220.88 207.231V225.561L217.236 230.671V230.819L216.908 231.103C212.596 234.43 207.872 235.839 203.475 235.839V235.816ZM185.88 213.352C185.721 214.794 185.011 224.198 192.299 230.296C197.744 234.839 207.564 236.123 215.849 229.808L219.291 224.981V207.878L211.516 198.441L193.687 201.632L185.88 213.363V213.352Z" fill="#24072B"/>
<path d="M200.764 205.743C200.764 205.743 193.931 215.317 185.128 213.057C180.403 211.842 171.632 206.504 175.827 195.124C179.015 186.493 186.791 188.095 186.791 188.095C186.791 188.095 186.473 178.101 196.516 177.203C206.569 176.317 209.461 184.21 209.461 184.21C209.461 184.21 217.491 172.093 228.423 182.303C239.355 192.512 232.184 204.096 232.184 204.096C232.184 204.096 242.258 210.206 239.048 223.153C235.838 236.089 221.378 237.304 216.484 230.399C213.391 226.026 213.995 221.631 213.995 221.631C213.995 221.631 201.685 220.802 200.753 205.777V205.754L200.764 205.743Z" fill="#24072B"/>
<path d="M225.404 235.123C221.579 235.123 218.031 233.522 216.06 230.739C213.497 227.117 213.359 223.505 213.423 222.131C211.071 221.756 201.727 219.496 200.34 207.151C198.21 209.65 192.32 215.476 185 213.613C181.844 212.807 177.437 210.354 175.382 206.118C173.803 202.87 173.793 199.111 175.339 194.92C178.115 187.39 184.322 187.288 186.282 187.459C186.431 185.142 187.585 177.43 196.473 176.635C204.81 175.909 208.444 181.087 209.556 183.166C210.742 181.667 213.878 178.294 218.327 177.726C221.834 177.271 225.34 178.68 228.762 181.871C238.624 191.081 234.111 201.53 232.893 203.903C234.864 205.334 242.427 211.694 239.556 223.289C238.063 229.331 233.847 233.635 228.285 234.805C227.321 235.01 226.357 235.112 225.404 235.112V235.123ZM200.816 205.754H201.282C202.172 220.075 213.55 221.029 214.026 221.063L214.598 221.109L214.514 221.722C214.514 221.722 213.984 225.947 216.897 230.069C219.111 233.193 223.603 234.669 228.073 233.715C233.306 232.613 237.12 228.707 238.529 223.017C241.59 210.661 232.311 204.846 231.919 204.596L231.431 204.301L231.739 203.79C232.025 203.335 238.518 192.49 228.073 182.734C224.885 179.759 221.643 178.441 218.454 178.85C213.274 179.509 209.927 184.483 209.884 184.54L209.323 185.392L208.963 184.415C208.846 184.108 206.081 176.931 196.558 177.76C187.151 178.6 187.31 187.686 187.32 188.072L187.342 188.776L186.695 188.64C186.399 188.583 179.301 187.243 176.324 195.317C174.905 199.179 174.905 202.631 176.324 205.573C178.221 209.468 182.32 211.739 185.255 212.489C192.967 214.465 199.238 206.833 200.213 205.561V205.539L200.382 205.334L200.827 205.732L200.816 205.754Z" fill="#24072B"/>
<path d="M197.639 222.21C198.56 222.21 199.302 221.415 199.302 220.427C199.302 219.439 198.56 218.644 197.639 218.644C196.717 218.644 195.976 219.439 195.976 220.427C195.976 221.415 196.717 222.21 197.639 222.21Z" fill="#24072B"/>
<path d="M191.411 225.379C191.411 225.379 191.326 225.379 191.294 225.379C190.097 225.311 189.292 224.221 189.197 224.107C188.932 223.732 188.995 223.198 189.345 222.915C189.695 222.631 190.193 222.699 190.457 223.074C190.574 223.221 190.976 223.664 191.39 223.687C191.474 223.698 191.739 223.71 192.121 223.278C192.428 222.937 192.926 222.926 193.243 223.255C193.561 223.585 193.572 224.118 193.265 224.459C192.587 225.22 191.898 225.39 191.411 225.39V225.379Z" fill="#24072B"/>
<path d="M185.848 265.105C185.848 265.105 196.727 267.956 199.799 271.363L209.418 264.367C209.418 264.367 197.712 267.445 185.848 265.105Z" fill="#24072B"/>
<path d="M199.799 271.931C199.662 271.931 199.524 271.874 199.418 271.76C196.484 268.512 185.827 265.684 185.721 265.662C185.445 265.594 185.265 265.287 185.329 264.992C185.392 264.696 185.657 264.503 185.943 264.549C197.553 266.843 209.174 263.845 209.291 263.822C209.545 263.754 209.799 263.89 209.905 264.14C210.011 264.39 209.927 264.685 209.715 264.844L200.096 271.84C200.011 271.908 199.905 271.942 199.799 271.942V271.931ZM191.907 266.445C194.852 267.536 198.136 269.001 199.852 270.636L206.96 265.469C203.825 266.048 198.178 266.82 191.907 266.445Z" fill="#24072B"/>
<path d="M249.622 275.451C249.622 275.451 248.594 280.823 247.313 283.458L234.844 281.618C234.844 281.618 246.296 282.288 249.611 275.451H249.622Z" fill="#24072B"/>
<path d="M247.312 284.026C247.312 284.026 247.27 284.026 247.238 284.026L234.769 282.186C234.483 282.14 234.282 281.868 234.314 281.573C234.346 281.266 234.547 281.039 234.875 281.062C234.981 281.062 246.03 281.629 249.145 275.201C249.314 274.861 249.801 274.804 250.034 275.099C250.13 275.236 250.183 275.406 250.151 275.576C250.109 275.803 249.092 281.062 247.789 283.73C247.693 283.924 247.513 284.037 247.323 284.037L247.312 284.026ZM240.204 281.834L247.005 282.833C247.609 281.47 248.138 279.517 248.52 277.95C246.306 280.289 243.011 281.357 240.204 281.834Z" fill="#24072B"/>
<path d="M164.662 176.51C164.609 176.51 164.556 176.51 164.492 176.488C164.058 176.397 163.793 175.943 163.878 175.477C165.573 166.869 172.448 160.77 178.518 155.387C181.198 153.013 183.804 150.696 185.743 148.334C182.872 148.118 180.33 147.119 178.444 145.688C175.361 143.349 174.122 139.93 175.128 136.546C176.135 133.15 180.234 131.06 184.27 131.878C187.565 132.548 190.944 135.421 190.573 141.509C190.467 143.258 189.906 144.893 189.027 146.472C191.665 146.074 194.408 144.95 196.972 142.894C206.792 135.013 210.987 122.565 208.773 107.858C208.699 107.393 208.995 106.961 209.43 106.882C209.853 106.802 210.267 107.12 210.341 107.586C212.618 122.724 208.084 136.091 197.925 144.257C194.578 146.937 191.061 148.152 187.809 148.346C185.711 151.207 182.671 153.899 179.535 156.693C173.666 161.894 167.024 167.8 165.435 175.818C165.361 176.215 165.022 176.488 164.662 176.488V176.51ZM182.533 133.423C179.821 133.423 177.3 134.91 176.654 137.08C175.859 139.76 176.855 142.395 179.376 144.314C181.325 145.802 184.027 146.699 187.035 146.642C188.169 144.95 188.9 143.212 189.006 141.406C189.376 135.319 185.616 133.888 183.984 133.559C183.497 133.457 183.01 133.411 182.533 133.411V133.423Z" fill="#E1C2FB"/>
<path d="M131.102 314.973C132.744 313.531 135.255 312.475 137.871 314.155C143.242 317.619 147.215 318.596 147.787 319.925C148.507 321.594 145.255 322.173 145.255 322.173C145.255 322.173 145.276 323.786 143.846 324.354C141.833 325.149 140.213 324.297 140.213 324.297C140.213 324.297 139.757 325.773 137.246 326.114C135.34 326.375 133.846 325.047 133.846 325.047C133.846 325.047 132.49 326.387 130.265 326.035C128.57 325.762 127.437 324.002 127.437 324.002C127.437 324.002 125.806 324.331 125.392 324.161C123.75 323.502 123.306 321.231 124.556 319.902L131.113 314.996V314.973H131.102Z" fill="#E1C2FB"/>
<path d="M136.748 327C135.487 327 134.449 326.466 133.856 326.08C133.178 326.534 131.885 327.136 130.148 326.875C128.697 326.637 127.627 325.546 127.108 324.922C126.133 325.092 125.466 325.103 125.106 324.944C124.089 324.536 123.347 323.604 123.114 322.469C122.881 321.31 123.209 320.129 123.993 319.289C124.025 319.255 124.057 319.221 124.099 319.198L130.508 314.405C130.508 314.405 130.572 314.337 130.604 314.303C131.758 313.292 134.809 311.18 138.284 313.417C140.794 315.041 142.955 316.086 144.693 316.926C146.811 317.949 148.093 318.573 148.517 319.561C148.761 320.129 148.75 320.697 148.496 321.219C148.019 322.185 146.759 322.662 145.975 322.877C145.795 323.695 145.286 324.695 144.121 325.149C142.627 325.739 141.314 325.546 140.551 325.319C140.085 325.932 139.152 326.705 137.341 326.955C137.14 326.977 136.938 327 136.737 327H136.748ZM133.845 324.195C134.025 324.195 134.205 324.263 134.354 324.388C134.354 324.388 135.614 325.478 137.15 325.262C139.068 325.001 139.46 324.036 139.47 324.002C139.555 323.786 139.724 323.593 139.926 323.513C140.127 323.434 140.36 323.423 140.561 323.525C140.614 323.548 141.928 324.195 143.57 323.548C144.428 323.207 144.46 322.276 144.46 322.173C144.46 321.764 144.746 321.401 145.127 321.333C145.911 321.185 146.917 320.776 147.087 320.424C147.087 320.402 147.108 320.379 147.066 320.277C146.886 319.868 145.434 319.164 144.036 318.482C142.352 317.665 140.053 316.552 137.468 314.882C135.053 313.326 132.902 314.553 131.748 315.507C131.695 315.575 131.642 315.632 131.568 315.689L125.074 320.549C124.703 320.97 124.555 321.537 124.671 322.117C124.788 322.696 125.159 323.161 125.678 323.366C125.837 323.389 126.61 323.309 127.298 323.173C127.606 323.116 127.923 323.252 128.104 323.525C128.104 323.536 129.068 324.99 130.392 325.194C132.193 325.478 133.273 324.456 133.315 324.422C133.464 324.274 133.665 324.206 133.856 324.206L133.845 324.195Z" fill="#24072B"/>
<path d="M88.082 302.185C86.6201 300.834 84.5544 300.573 82.8489 301.549C77.9335 304.366 68.2724 310.056 67.6579 311.725C66.8952 313.826 70.9313 314.269 70.9313 314.269C70.9313 314.269 71.016 316.245 72.8169 316.824C75.3381 317.631 77.2661 316.449 77.2661 316.449C77.2661 316.449 77.9335 318.221 81.048 318.426C83.4103 318.585 85.1476 316.824 85.1476 316.824C85.1476 316.824 86.9167 318.357 89.6075 317.733C91.6732 317.267 92.9444 315.007 92.9444 315.007C92.9444 315.007 94.9677 315.28 95.4762 315.03C97.4466 314.087 97.8279 311.248 96.1966 309.738L88.082 302.174V302.185Z" fill="#E1C2FB"/>
<path d="M81.3563 319.3C81.2398 319.3 81.1233 319.3 81.0067 319.289C78.7398 319.141 77.5639 318.198 77.0024 317.517C76.1444 317.858 74.5236 318.255 72.6062 317.642C71.0384 317.142 70.4769 315.848 70.265 315.03C69.3328 314.848 67.6909 314.394 67.0552 313.27C66.7374 312.713 66.6951 312.077 66.9387 311.418C67.14 310.885 67.7332 309.238 82.4898 300.8C84.492 299.653 86.8861 299.948 88.6128 301.538L96.7274 309.102C97.7019 309.999 98.168 311.362 97.988 312.724C97.7973 314.099 96.9922 315.246 95.8163 315.814C95.2972 316.052 94.1849 316.007 93.3481 315.916C92.8078 316.688 91.5684 318.176 89.7993 318.573C87.6594 319.073 86.028 318.357 85.2229 317.88C84.5238 318.426 83.1254 319.289 81.3775 319.289L81.3563 319.3ZM77.2673 315.609C77.352 315.609 77.4474 315.62 77.5321 315.654C77.744 315.734 77.9241 315.916 78.0088 316.131C78.0194 316.166 78.6021 317.415 81.1021 317.585C83.0725 317.721 84.5979 316.234 84.6085 316.211C84.8945 315.927 85.35 315.904 85.6467 316.166C85.6996 316.211 87.1721 317.426 89.4391 316.904C91.134 316.518 92.2569 314.587 92.2675 314.564C92.4264 314.28 92.7336 314.11 93.0408 314.167C93.9413 314.292 94.9371 314.326 95.1701 314.246C95.8163 313.928 96.2824 313.27 96.399 312.475C96.5155 311.68 96.24 310.907 95.6786 310.385L87.5641 302.821C86.3458 301.686 84.6403 301.481 83.2208 302.288C72.8604 308.204 68.7608 311.237 68.39 312.032C68.3159 312.236 68.3582 312.316 68.39 312.361C68.6972 312.906 70.1379 313.304 71.0066 313.406C71.3985 313.451 71.7057 313.792 71.7163 314.212C71.7163 314.348 71.8329 315.609 73.0405 315.995C75.1804 316.677 76.8012 315.734 76.8753 315.7C76.9918 315.632 77.1296 315.598 77.2673 315.598V315.609Z" fill="#24072B"/>
</g>
<defs>
<clipPath id="clip0_951_8231">
<rect width="340" height="380" fill="white"/>
</clipPath>
</defs>
</svg>
