<svg width="340" height="380" viewBox="0 0 340 380" fill="none" xmlns="http://www.w3.org/2000/svg">
<g clip-path="url(#clip0_838_6407)">
<path d="M358.57 231.28C358.57 231.28 112.75 239.74 87.0605 242.92C87.0605 242.92 80.7305 254.94 93.2705 264.71C105.8 274.48 143.28 302.01 153.65 297.74C164.02 293.48 191.58 297.07 211.04 307.42C233.42 319.31 205.31 325.44 265.3 336.69C325.29 347.93 303.77 367.66 361.76 373.01L365.96 346.46L358.56 285.96C358.56 285.96 316.611 291.21 277.311 284.61C247.051 279.52 215.861 262.09 203.741 262.56C175.911 263.64 154.72 265.17 132.89 261.57C101.34 256.36 83.5305 246.41 94.7505 244.37C105.961 242.33 243.811 237.86 288.391 248.14C332.961 258.43 358.57 248.25 358.57 248.25V231.28Z" fill="#4C14B5" style="fill:#4C14B5;fill:color(display-p3 0.2980 0.0784 0.7098);fill-opacity:1;"/>
<path d="M270.721 246.86C278.851 241.8 288.301 238.01 295.411 237.08C302.521 236.15 297.071 232.52 295.211 233.33C293.351 234.14 249.071 229.32 249.071 229.32L206.291 262.14C206.291 262.14 207.371 268.69 209.031 268.32C264.611 256.16 259.731 253.71 270.731 246.85L270.721 246.86Z" fill="#24072B" style="fill:#24072B;fill:color(display-p3 0.1412 0.0275 0.1686);fill-opacity:1;"/>
<path d="M153.15 91.4301L173.99 93.4401L214.42 102.9C214.42 102.9 219.13 105.42 219.39 110.19C219.66 114.96 214.64 115.66 214.64 115.66L170.83 114.74L151.07 112.72L153.14 91.4301H153.15Z" fill="#24072B" style="fill:#24072B;fill:color(display-p3 0.1412 0.0275 0.1686);fill-opacity:1;"/>
<path d="M214.65 116.4H214.63L170.82 115.48L151 113.46C150.59 113.42 150.29 113.05 150.33 112.64L152.4 91.3501C152.44 90.9401 152.82 90.6301 153.22 90.6801L174.06 92.6901C174.06 92.6901 174.13 92.6901 174.16 92.7101L214.59 102.17C214.65 102.18 214.71 102.21 214.77 102.24C214.98 102.35 219.85 105.02 220.14 110.15C220.38 114.47 216.72 116.13 214.74 116.41C214.71 116.41 214.67 116.41 214.64 116.41L214.65 116.4ZM151.9 112.04L170.91 113.98L214.6 114.9C215.12 114.81 218.87 114.04 218.65 110.22C218.43 106.26 214.74 103.94 214.15 103.59L173.87 94.1701L153.83 92.2401L151.9 112.04Z" fill="#24072B" style="fill:#24072B;fill:color(display-p3 0.1412 0.0275 0.1686);fill-opacity:1;"/>
<path d="M331.17 289.56C328.27 289.56 325.26 289.53 322.16 289.46C299.51 288.96 267.52 286.21 243.75 276C207.4 260.39 185.85 261.15 163.04 261.96C157.27 262.16 151.31 262.38 145.05 262.32C113.42 262.03 93.8296 252.22 87.8796 247.08C86.5396 245.92 86.0596 244.83 86.4496 243.84C87.6396 240.83 97.4096 240.98 100.36 241.1L100.3 242.6C94.7296 242.38 88.3896 243 87.8396 244.39C87.7096 244.71 88.0896 245.29 88.8496 245.95C94.6496 250.97 113.86 260.53 145.05 260.83C151.27 260.89 157.22 260.68 162.97 260.47C185.96 259.65 207.67 258.88 244.32 274.63C267.86 284.74 299.64 287.46 322.15 287.97C346.57 288.51 365.67 286.64 365.86 286.62L366.01 288.11C365.84 288.13 351.19 289.57 331.14 289.57L331.17 289.56Z" fill="#24072B" style="fill:#24072B;fill:color(display-p3 0.1412 0.0275 0.1686);fill-opacity:1;"/>
<path d="M265.55 235.32C265.55 235.32 270.38 237.23 276.01 237.01C281.63 236.79 298.3 237.93 299.6 225.66C300.9 213.39 302.08 203.9 298.75 195.84C295.42 187.78 292.68 188.92 292.18 181.27C291.68 173.63 291.7 148.46 290.62 146.65C289.54 144.83 289.93 143.42 283.37 141.23C283.37 141.23 290.85 138.48 291.89 130.14C292.93 121.8 292.02 112.86 284.15 108.33C279.08 105.41 274.18 108.71 274.18 108.71L261.35 111.77C261.35 111.77 258.68 115.98 247 114.71L246.21 140.45L220.9 169.88L246.72 217.77L265.53 235.3L265.55 235.32Z" fill="#642EE8" style="fill:#642EE8;fill:color(display-p3 0.3922 0.1804 0.9098);fill-opacity:1;"/>
<path d="M197.391 176.13C197.391 176.13 195.881 181.01 196.611 185.35C197.341 189.7 203.431 209.67 203.431 209.67C203.431 209.67 212.301 210.96 219.661 215.52C227.011 220.09 233.741 224.98 242.061 224.03C250.391 223.08 260.761 214.34 260.761 214.34C260.761 214.34 234.441 189.33 232.311 186.21C228.631 180.82 228.101 171.07 228.101 171.07L235.901 169.06C235.901 169.06 236.291 176.22 239.201 180.14C245.541 188.67 254.811 197.81 254.641 197.13C253.311 191.76 252.441 185.81 252.961 180.37C254.391 165.31 254.941 162.36 254.941 162.36C254.941 162.36 264.101 156.8 261.711 147.59C259.311 138.38 252.851 138.11 248.171 138.58C243.491 139.05 216.031 137.33 216.031 137.33L210.861 137.84L201.781 140.45L197.391 176.11H197.371L197.391 176.13Z" fill="#6F53F5" style="fill:#6F53F5;fill:color(display-p3 0.4353 0.3255 0.9608);fill-opacity:1;"/>
<path d="M210.4 77.23L214.01 72.63C214.83 71.59 216.08 70.98 217.41 71C222.7 71.1 236.77 72.49 248.32 83.91C249.39 84.97 249.84 86.51 249.5 87.98L248.3 93.28" fill="#6F53F5" style="fill:#6F53F5;fill:color(display-p3 0.4353 0.3255 0.9608);fill-opacity:1;"/>
<path d="M190.66 90.29C190.66 90.29 180.42 82.46 184.7 77.52C188.98 72.58 209.06 74.9 236.93 87.45C267.35 101.14 270.02 117.22 246.93 114.72" fill="#642EE8" style="fill:#642EE8;fill:color(display-p3 0.3922 0.1804 0.9098);fill-opacity:1;"/>
<path d="M146.571 289.88L137.791 242.97C137.791 242.97 135.651 228.97 144.401 224.4C144.401 224.4 149.301 221.55 150.401 222C151.511 222.45 165.571 227.27 168.411 243.98C168.411 243.98 169.451 241.22 178.471 238.17C178.471 238.17 188.321 240.04 193.881 246.36C199.441 252.69 201.941 264.55 201.941 264.55C201.941 264.55 191.281 266.77 187.751 268.68C186.111 269.57 171.771 288.84 171.771 288.84L171.411 299.37C171.411 299.37 166.951 302.3 162.411 301.49L159.131 305.52C159.131 305.52 150.261 307.83 147.141 304.2C144.031 300.58 144.201 293.49 144.201 293.49L146.551 289.88H146.571Z" fill="#FEF1FF" style="fill:#FEF1FF;fill:color(display-p3 0.9961 0.9451 1.0000);fill-opacity:1;"/>
<path d="M235.971 142.3C235.971 142.3 247.401 141.83 252.851 147.86C258.291 153.88 260.031 159.74 254.951 162.39C250.021 164.96 237.161 170.92 200.641 175.73C198.201 176.05 193.211 175.88 190.731 172.13C189.501 170.27 188.521 168.89 187.601 165.06C187.601 165.06 172.141 167.92 168.241 169.02C155.991 172.5 152.001 166.36 153.761 157.75C157.561 139.04 161.641 114.16 161.641 114.16L178.301 114.85L173.631 119.5L172.241 148.05L188.111 144.9C188.111 144.9 187.811 124.02 187.511 121.82C187.021 118.08 184.831 115.69 184.871 115.01C184.911 114.33 187.721 113.84 187.601 104.89C187.561 102.08 183.751 95.82 187.741 93.59C191.731 91.37 199.511 90.94 199.981 91.28C200.451 91.62 203.661 95.2 204.171 98.79C204.681 102.38 204.411 109.26 201.341 116.35C201.341 116.35 211.041 116.23 212.491 115.74C213.931 115.25 218.341 113.07 217.091 106.97L214.341 100.6C214.341 100.6 220.151 101.28 221.321 102.17C222.491 103.06 226.041 106.24 225.991 116.24C225.941 126.23 224.481 130.68 224.751 133.87C225.021 137.07 226.211 140.54 226.211 140.54C226.211 140.54 221.141 143.33 217.721 140.47L216.361 133.35C216.361 133.35 206.831 133.78 201.541 121.76C201.541 121.76 202.161 131.89 204.101 139.68C206.051 147.47 207.271 151.86 207.271 151.86L235.961 142.28H235.991L235.971 142.3Z" fill="#FEF1FF" style="fill:#FEF1FF;fill:color(display-p3 0.9961 0.9451 1.0000);fill-opacity:1;"/>
<path d="M202.432 93.78C202.432 93.78 204.462 90.31 208.362 89.86C212.262 89.41 217.142 88.95 223.402 90.46C229.662 91.97 237.982 96.93 240.102 101.02C242.212 105.11 241.692 105.96 245.662 112.61C249.622 119.26 254.252 126.29 254.972 132.15L248.192 138.59L229.952 144.31C229.952 144.31 226.342 142.81 225.722 138.76C225.102 134.71 225.682 126.41 225.772 120.97C225.872 115.53 225.402 104.32 221.352 102.18C218.432 100.64 204.192 98.21 204.192 98.21L202.452 93.77H202.442L202.432 93.78Z" fill="#24072B" style="fill:#24072B;fill:color(display-p3 0.1412 0.0275 0.1686);fill-opacity:1;"/>
<path d="M229.921 144.85L229.751 144.78C229.591 144.71 225.871 143.12 225.221 138.85C224.761 135.83 224.951 130.49 225.121 125.78C225.181 124.07 225.241 122.42 225.271 120.98C225.411 113.25 224.391 104.37 221.121 102.64C218.301 101.15 204.251 98.74 204.111 98.72L203.831 98.67L202.281 94.71L199.621 97.64L202.011 93.54C202.101 93.39 204.211 89.84 208.311 89.37C212.671 88.87 217.431 88.51 223.521 89.98C229.681 91.47 238.271 96.41 240.541 100.8C241.361 102.38 241.781 103.47 242.231 104.62C242.931 106.42 243.661 108.29 246.091 112.37C246.561 113.16 247.041 113.96 247.531 114.76C251.111 120.7 254.821 126.84 255.471 132.11L255.501 132.36L248.451 139.05L229.931 144.86L229.921 144.85ZM204.551 97.77C206.621 98.13 218.821 100.29 221.581 101.75C226.201 104.19 226.341 117.09 226.271 120.99C226.241 122.44 226.191 124.09 226.121 125.81C225.951 130.48 225.761 135.77 226.211 138.7C226.711 141.96 229.311 143.45 229.981 143.79L247.921 138.17L254.431 131.99C253.721 126.98 250.131 121.03 246.661 115.28C246.181 114.48 245.691 113.68 245.221 112.89C242.751 108.74 242.011 106.84 241.291 104.99C240.851 103.87 240.441 102.81 239.651 101.27C237.721 97.53 229.761 92.53 223.281 90.96C216.851 89.41 211.781 89.99 208.421 90.38C205.351 90.73 203.501 93.12 203.001 93.85L204.551 97.79V97.77Z" fill="#24072B" style="fill:#24072B;fill:color(display-p3 0.1412 0.0275 0.1686);fill-opacity:1;"/>
<path d="M179.631 105.09C180.411 99.23 177.361 93.98 172.811 93.37C168.261 92.76 163.941 97.03 163.161 102.89C162.381 108.75 165.431 114 169.981 114.6C174.531 115.21 178.851 110.94 179.631 105.08V105.09Z" fill="#6F53F5" style="fill:#6F53F5;fill:color(display-p3 0.4353 0.3255 0.9608);fill-opacity:1;"/>
<path d="M159.971 103.13C160.751 97.2701 157.701 92.0201 153.151 91.4101C148.601 90.8001 144.281 95.0701 143.501 100.93C142.721 106.79 145.771 112.04 150.321 112.65C154.871 113.26 159.191 108.99 159.971 103.13Z" fill="#6F53F5" style="fill:#6F53F5;fill:color(display-p3 0.4353 0.3255 0.9608);fill-opacity:1;"/>
<path d="M153.271 102.38C153.861 97.98 152.661 94.19 150.591 93.92C148.531 93.64 146.381 96.99 145.791 101.39C145.201 105.79 146.401 109.58 148.471 109.85C150.541 110.13 152.681 106.78 153.271 102.39V102.38Z" fill="#6F53F5" style="fill:#6F53F5;fill:color(display-p3 0.4353 0.3255 0.9608);fill-opacity:1;"/>
<path d="M172.021 104.33C172.611 99.9301 171.411 96.1401 169.341 95.8701C167.281 95.5901 165.131 98.9401 164.541 103.33C163.951 107.73 165.151 111.52 167.221 111.79C169.291 112.06 171.431 108.72 172.021 104.33Z" fill="#6F53F5" style="fill:#6F53F5;fill:color(display-p3 0.4353 0.3255 0.9608);fill-opacity:1;"/>
<path d="M168.43 243.98C168.43 243.98 166.29 234.87 162.03 230.33C155.62 223.48 150.41 222.02 150.41 222.02L144.4 224.42C144.4 224.42 145.02 220.5 147.38 219.5C149.74 218.5 156.21 216.05 156.21 216.05C156.21 216.05 157.71 215.52 160.67 217.1C163.63 218.68 169.22 221.37 173.44 226.96C177.66 232.55 178.48 238.17 178.48 238.17C178.48 238.17 173.19 240.27 171.42 241.42C169.66 242.57 168.41 243.98 168.41 243.98" fill="#642EE8" style="fill:#642EE8;fill:color(display-p3 0.3922 0.1804 0.9098);fill-opacity:1;"/>
<path d="M178.49 238.17C178.49 238.17 181.26 233.26 185.46 232.23C189.66 231.2 192.98 232.05 195.69 233.28C198.4 234.51 203.94 236.83 207.87 242.56C211.8 248.29 213.6 254.23 213.29 260.04C212.98 265.85 212.3 266.99 210.62 267.92C208.94 268.84 202.44 270.85 199.92 269.91C197.4 268.96 196.72 267.56 196.57 265.84L201.96 264.57C201.96 264.57 201.27 256.94 197.03 250.73C192.79 244.54 190.07 242.44 185.88 240.22C181.69 238 178.48 238.18 178.48 238.18L178.49 238.17Z" fill="#642EE8" style="fill:#642EE8;fill:color(display-p3 0.3922 0.1804 0.9098);fill-opacity:1;"/>
<path d="M161.951 217.53L203.431 209.68C203.431 209.68 212.231 210.66 224.861 218.32C228.771 220.69 236.731 227.92 248.421 222.43C257.951 217.96 260.231 213.86 260.231 213.86C260.231 213.86 265.121 223.92 265.451 233.45C265.781 243.03 262.331 252.46 239.831 259.25C223.911 264.06 213.061 263.92 213.061 263.92C213.061 263.92 215.031 249.89 206.211 240.48C199.621 233.46 186.821 226.46 178.441 237.33C178.441 237.33 177.431 225.43 161.951 217.54" fill="#642EE8" style="fill:#642EE8;fill:color(display-p3 0.3922 0.1804 0.9098);fill-opacity:1;"/>
<path d="M150.791 347.65L151.681 352.61C152.281 355.95 154.651 358.69 157.851 359.78C163.461 361.68 172.391 362.49 178.981 352.59C179.961 351.12 180.351 349.35 180.131 347.61L178.841 337.87" fill="#6F53F5" style="fill:#6F53F5;fill:color(display-p3 0.4353 0.3255 0.9608);fill-opacity:1;"/>
<path d="M164.58 361.71C161.9 361.71 159.46 361.13 157.61 360.51C154.13 359.32 151.58 356.35 150.94 352.76L150.05 347.8C149.98 347.39 150.25 347 150.66 346.93C151.08 346.86 151.46 347.13 151.53 347.54L152.42 352.5C152.96 355.56 155.14 358.09 158.1 359.1C163.93 361.08 172.18 361.48 178.36 352.2C179.23 350.9 179.59 349.31 179.39 347.73L178.11 337.99C178.06 337.58 178.34 337.2 178.76 337.15C179.17 337.08 179.55 337.39 179.6 337.8L180.89 347.54C181.14 349.49 180.69 351.44 179.62 353.04C175.08 359.86 169.43 361.73 164.6 361.73L164.58 361.71Z" fill="#24072B" style="fill:#24072B;fill:color(display-p3 0.1412 0.0275 0.1686);fill-opacity:1;"/>
<path d="M103.711 324.01L100.831 327.58C99.3914 329.37 99.0214 331.78 99.8614 333.91C101.611 338.36 105.621 345.47 113.731 347.34C125.771 350.1 137.601 335.52 137.601 335.52" fill="#6F53F5" style="fill:#6F53F5;fill:color(display-p3 0.4353 0.3255 0.9608);fill-opacity:1;"/>
<path d="M116.871 348.45C115.781 348.45 114.671 348.33 113.561 348.08C105.021 346.11 100.871 338.53 99.161 334.19C98.221 331.8 98.641 329.09 100.241 327.11L103.121 323.54C103.381 323.22 103.851 323.17 104.171 323.43C104.491 323.69 104.541 324.16 104.281 324.48L101.401 328.05C100.131 329.61 99.811 331.76 100.551 333.64C102.151 337.71 106.021 344.8 113.891 346.62C114.871 346.84 115.851 346.95 116.821 346.95C127.221 346.95 136.901 335.19 137.011 335.06C137.271 334.74 137.741 334.69 138.061 334.95C138.381 335.21 138.431 335.68 138.171 336C137.721 336.55 127.931 348.45 116.871 348.45Z" fill="#24072B" style="fill:#24072B;fill:color(display-p3 0.1412 0.0275 0.1686);fill-opacity:1;"/>
<path d="M162.42 301.5C163.35 301.62 162.62 301.42 163.72 301.3C168.58 300.74 171.42 299.39 171.42 299.39C171.42 299.39 169.43 309.13 174.7 322.76C177.2 329.21 182.79 344.95 175.04 350.75C167.29 356.55 157.87 357.28 152.11 350.76C148.21 346.34 152.84 321.38 154.68 307.35L157.92 307.39L162.43 301.5H162.42Z" fill="#642EE8" style="fill:#642EE8;fill:color(display-p3 0.3922 0.1804 0.9098);fill-opacity:1;"/>
<path d="M251.87 147.01C251.87 147.01 259.94 157.03 248.24 164.89C246.92 165.77 252.19 163.69 252.19 163.69C252.19 163.69 257.16 162.72 257.95 158.01C258.74 153.3 254.23 149.31 254.23 149.31" fill="#24072B" style="fill:#24072B;fill:color(display-p3 0.1412 0.0275 0.1686);fill-opacity:1;"/>
<path d="M221.611 142.55C218.811 142.55 217.291 141.12 217.201 141.04C217.091 140.93 217.011 140.79 216.991 140.64L215.631 133.52C215.551 133.11 215.821 132.72 216.231 132.64C216.631 132.55 217.031 132.83 217.111 133.24L218.421 140.1C219.071 140.59 221.591 142.08 225.881 139.91C226.251 139.72 226.701 139.87 226.891 140.24C227.081 140.61 226.931 141.06 226.561 141.25C224.631 142.23 222.971 142.56 221.621 142.56L221.611 142.55Z" fill="#24072B" style="fill:#24072B;fill:color(display-p3 0.1412 0.0275 0.1686);fill-opacity:1;"/>
<path d="M207.381 87.8C221.991 87.06 234.161 94.79 238.401 98.88C239.601 100.04 240.491 101.46 240.961 103.06C241.381 104.53 242.341 106.99 244.501 110.68C247.751 116.24 249.301 118.61 251.631 122.86C253.961 127.11 254.951 132.16 254.951 132.16C254.951 132.16 252.491 135.01 249.241 137.74C248.901 138.03 248.171 138.6 248.171 138.6C248.171 138.6 243.531 139.44 230.031 144.35C230.031 144.35 225.741 143.05 225.161 135.57C224.491 126.98 228.531 115.32 223.331 104.29C222.711 102.97 221.741 102.23 219.671 102.04L205.061 101.29C205.061 101.29 203.491 95.21 202.451 94.16C202.451 94.16 205.261 87.92 207.391 87.82H207.381V87.8Z" fill="#24072B" style="fill:#24072B;fill:color(display-p3 0.1412 0.0275 0.1686);fill-opacity:1;"/>
<path d="M230.031 145.1C229.961 145.1 229.881 145.09 229.811 145.07C229.611 145.01 225.021 143.53 224.411 135.63C224.191 132.77 224.471 129.61 224.771 126.27C225.381 119.52 226.071 111.86 222.651 104.61C222.181 103.61 221.511 102.96 219.601 102.78L205.021 102.03C204.691 102.01 204.411 101.79 204.331 101.47C203.701 99.03 202.531 95.31 201.911 94.68C201.691 94.46 201.631 94.13 201.761 93.84C202.461 92.29 204.901 87.26 207.291 87.06C207.311 87.06 207.321 87.06 207.341 87.06C222.261 86.29 234.531 94.11 238.921 98.35C240.231 99.62 241.191 101.18 241.681 102.86C242.081 104.24 243.011 106.65 245.151 110.31C246.361 112.38 247.341 114.01 248.211 115.46C249.671 117.9 250.831 119.83 252.291 122.51C254.651 126.81 255.641 131.81 255.681 132.02C255.721 132.25 255.661 132.48 255.511 132.65C255.411 132.77 252.981 135.58 249.721 138.31C249.371 138.6 248.631 139.19 248.631 139.19C248.531 139.27 248.421 139.32 248.301 139.34C248.251 139.34 243.521 140.24 230.281 145.06C230.201 145.09 230.111 145.1 230.021 145.1H230.031ZM205.651 100.56L219.721 101.29C221.961 101.5 223.231 102.3 224.021 103.97C227.611 111.59 226.901 119.46 226.281 126.4C225.981 129.68 225.711 132.78 225.921 135.51C226.381 141.47 229.231 143.18 230.051 143.55C241.951 139.23 246.871 138.11 247.861 137.9C248.091 137.72 248.531 137.37 248.771 137.17C251.361 135 253.451 132.72 254.151 131.95C253.881 130.74 252.881 126.68 250.991 123.23C249.541 120.58 248.391 118.66 246.941 116.23C246.071 114.78 245.091 113.15 243.881 111.07C241.661 107.28 240.691 104.74 240.271 103.28C239.851 101.85 239.041 100.52 237.911 99.43C233.001 94.69 220.851 87.89 207.491 88.55C207.491 88.55 207.471 88.55 207.461 88.55C206.501 88.6 204.621 91.36 203.351 94.06C204.271 95.52 205.271 99.04 205.681 100.56H205.651Z" fill="#24072B" style="fill:#24072B;fill:color(display-p3 0.1412 0.0275 0.1686);fill-opacity:1;"/>
<path d="M216.47 134.1C215.91 134.1 215.32 134.06 214.7 133.98C205.17 132.75 201.07 121.9 200.9 121.44C200.76 121.05 200.96 120.62 201.34 120.48C201.73 120.34 202.16 120.54 202.3 120.92C202.34 121.02 206.26 131.37 214.88 132.49C222.55 133.49 224.66 127.09 224.75 126.82C224.87 126.43 225.29 126.2 225.69 126.33C226.09 126.45 226.31 126.87 226.18 127.27C226.16 127.34 223.95 134.1 216.45 134.1H216.47Z" fill="#24072B" style="fill:#24072B;fill:color(display-p3 0.1412 0.0275 0.1686);fill-opacity:1;"/>
<path d="M251.341 115.71C249.951 115.71 248.451 115.63 246.851 115.45C246.441 115.41 246.141 115.03 246.181 114.62C246.221 114.21 246.601 113.91 247.011 113.95C255.111 114.83 260.491 113.37 261.391 110.05C262.651 105.42 255.431 96.5701 236.621 88.1101C220.211 80.7201 208.651 77.8001 201.841 76.6401C193.301 75.2001 187.261 75.6901 185.261 77.9901C184.591 78.7701 184.311 79.6501 184.421 80.6901C184.841 84.8401 191.051 89.6301 191.111 89.6801C191.441 89.9301 191.501 90.4001 191.251 90.7301C191.001 91.0601 190.531 91.1201 190.201 90.8701C189.921 90.6601 183.421 85.6301 182.931 80.8401C182.781 79.3901 183.181 78.1001 184.131 77.0101C189.251 71.1001 211.581 75.1901 237.231 86.7401C254.311 94.4201 264.601 103.95 262.831 110.44C261.901 113.86 257.791 115.69 251.331 115.69L251.341 115.71Z" fill="#24072B" style="fill:#24072B;fill:color(display-p3 0.1412 0.0275 0.1686);fill-opacity:1;"/>
<path d="M248.31 94.0301C248.26 94.0301 248.2 94.0301 248.14 94.0101C247.74 93.9201 247.48 93.5201 247.57 93.1101L248.77 87.8101C249.05 86.6001 248.68 85.3101 247.79 84.4401C236.5 73.2801 222.77 71.8401 217.39 71.7501C216.36 71.7201 215.27 72.23 214.59 73.09L210.98 77.6901C210.73 78.0101 210.25 78.0701 209.93 77.8201C209.6 77.5601 209.55 77.09 209.8 76.77L213.41 72.1701C214.37 70.9501 215.9 70.2401 217.41 70.2601C222.97 70.3601 237.16 71.8401 248.84 83.3901C250.09 84.6301 250.62 86.4601 250.22 88.1601L249.02 93.4601C248.94 93.8101 248.63 94.0401 248.29 94.0401L248.31 94.0301Z" fill="#24072B" style="fill:#24072B;fill:color(display-p3 0.1412 0.0275 0.1686);fill-opacity:1;"/>
<path d="M201.96 117.07C201.56 117.07 201.23 116.76 201.21 116.36C201.19 115.95 201.5 115.59 201.92 115.57L211.09 115.07C213.98 114.91 216.29 112.65 216.46 109.81C216.67 106.28 214.63 104.06 214.1 103.54L204.54 101.13C204.14 101.03 203.9 100.62 204 100.22C204.1 99.82 204.52 99.58 204.91 99.68L214.65 102.14C214.76 102.17 214.87 102.22 214.95 102.3C215.08 102.42 218.24 105.18 217.95 109.91C217.74 113.5 214.82 116.37 211.16 116.58L201.99 117.08C201.99 117.08 201.96 117.08 201.95 117.08L201.96 117.07Z" fill="#24072B" style="fill:#24072B;fill:color(display-p3 0.1412 0.0275 0.1686);fill-opacity:1;"/>
<path d="M185.381 96.7301C185.331 96.7301 185.271 96.7301 185.211 96.7101L173.001 93.9501L153.131 92.1601C152.721 92.1201 152.411 91.7601 152.451 91.3501C152.491 90.9401 152.851 90.6301 153.261 90.6701L173.231 92.4801L185.541 95.2601C185.941 95.3501 186.201 95.7501 186.111 96.1601C186.031 96.5101 185.721 96.7401 185.381 96.7401V96.7301Z" fill="#24072B" style="fill:#24072B;fill:color(display-p3 0.1412 0.0275 0.1686);fill-opacity:1;"/>
<path d="M199.17 176.62C196.92 176.62 191.87 175.43 189.69 171.96C187.88 169.08 187.05 165.94 186.91 155C186.86 151.07 186.95 146.2 187.05 141.48C187.22 132.81 187.4 123.84 186.64 121.32C186.06 119.4 185.49 118.48 185.04 117.74C184.58 116.99 184.18 116.34 184.15 115.15C184.11 114.91 184.18 114.66 184.36 114.48C184.5 114.34 187.57 111.16 186.84 104.62C186.67 103.13 186.28 101.54 185.9 100.01C185.4 98 184.97 96.26 185.1 94.98C185.32 92.86 187.31 92.5 190.33 91.95C191.29 91.78 192.39 91.58 193.63 91.3C200.34 89.79 201.1 90.18 202.8 93.23L203.11 93.78C205.08 97.24 207.49 105.97 202.57 114.33C202.39 115.79 201.06 128.76 207.84 150.87L241.53 139.77C242.01 139.58 254.19 135.03 259.17 141.26C262.26 145.13 263.34 149.91 262.12 154.39C260.88 158.95 257.45 162.51 252.45 164.41C241.14 168.72 229.37 172.6 199.73 176.59C199.57 176.61 199.38 176.62 199.16 176.62H199.17ZM185.64 115.28C185.69 115.95 185.91 116.31 186.3 116.96C186.77 117.73 187.42 118.78 188.06 120.89C188.89 123.64 188.72 132.32 188.54 141.52C188.45 146.22 188.35 151.09 188.4 154.99C188.53 165.57 189.3 168.53 190.95 171.17C193.01 174.45 198.17 175.28 199.54 175.11C231.41 170.83 242.78 166.5 251.92 163.02C256.45 161.29 259.56 158.1 260.67 154.01C261.76 150 260.79 145.7 258 142.21C253.69 136.82 242.15 141.15 242.03 141.2L207.58 152.55C207.39 152.61 207.18 152.6 207 152.51C206.82 152.42 206.69 152.26 206.63 152.07C199.08 127.86 201.01 114.54 201.1 113.99C201.11 113.9 201.15 113.8 201.2 113.72C205.87 105.91 203.63 97.77 201.8 94.55L201.48 93.98C200.15 91.6 200.04 91.41 193.94 92.78C192.66 93.07 191.55 93.27 190.57 93.45C187.46 94.02 186.66 94.26 186.57 95.16C186.47 96.18 186.89 97.87 187.34 99.67C187.73 101.25 188.14 102.89 188.32 104.48C189.02 110.77 186.47 114.34 185.65 115.31L185.64 115.28Z" fill="#24072B" style="fill:#24072B;fill:color(display-p3 0.1412 0.0275 0.1686);fill-opacity:1;"/>
<path d="M182.011 115.65H182.001L170.871 115.47L151.051 113.45C150.641 113.41 150.341 113.04 150.381 112.63C150.421 112.22 150.801 111.92 151.201 111.96L170.951 113.98L182.011 114.16C182.431 114.16 182.761 114.51 182.751 114.92C182.751 115.33 182.411 115.66 182.001 115.66L182.011 115.65Z" fill="#24072B" style="fill:#24072B;fill:color(display-p3 0.1412 0.0275 0.1686);fill-opacity:1;"/>
<path d="M170.861 115.43C170.541 115.43 170.221 115.41 169.901 115.37C164.951 114.71 161.601 109.08 162.431 102.81C163.261 96.55 167.991 91.98 172.931 92.65C177.881 93.31 181.231 98.94 180.401 105.21C179.621 111.07 175.451 115.44 170.861 115.44V115.43ZM171.971 94.08C168.131 94.08 164.611 97.9 163.931 103.01C163.211 108.45 165.981 113.33 170.111 113.88C174.241 114.44 178.191 110.45 178.921 105C179.641 99.56 176.871 94.68 172.741 94.13C172.481 94.1 172.231 94.08 171.971 94.08Z" fill="#24072B" style="fill:#24072B;fill:color(display-p3 0.1412 0.0275 0.1686);fill-opacity:1;"/>
<path d="M151.231 113.45C150.911 113.45 150.581 113.43 150.251 113.38C145.301 112.72 141.951 107.09 142.791 100.82C143.191 97.8201 144.481 95.1101 146.421 93.2001C148.411 91.2401 150.851 90.3201 153.281 90.6601C155.721 90.9801 157.831 92.4901 159.241 94.9101C160.611 97.2701 161.151 100.22 160.751 103.22C160.351 106.22 159.061 108.93 157.121 110.84C155.391 112.54 153.331 113.45 151.231 113.45ZM152.321 92.1001C150.611 92.1001 148.911 92.8601 147.471 94.2801C145.761 95.9601 144.631 98.3601 144.271 101.03C143.551 106.47 146.321 111.35 150.451 111.9C152.431 112.17 154.411 111.41 156.061 109.78C157.771 108.1 158.901 105.7 159.261 103.03C159.621 100.36 159.151 97.7501 157.941 95.6801C156.771 93.6701 155.041 92.4201 153.081 92.1601C152.821 92.1301 152.571 92.1101 152.311 92.1101L152.321 92.1001Z" fill="#24072B" style="fill:#24072B;fill:color(display-p3 0.1412 0.0275 0.1686);fill-opacity:1;"/>
<path d="M172.231 148.79C172.051 148.79 171.881 148.73 171.741 148.61C171.571 148.46 171.471 148.24 171.481 148.01L172.881 119.46C172.881 119.27 172.971 119.1 173.101 118.97L177.771 114.32C178.061 114.03 178.541 114.03 178.831 114.32C179.121 114.61 179.121 115.09 178.831 115.38L174.371 119.83L173.031 147.14L187.581 144.27C187.991 144.19 188.381 144.46 188.461 144.86C188.541 145.27 188.271 145.66 187.871 145.74L172.381 148.79C172.381 148.79 172.281 148.8 172.241 148.8L172.231 148.79Z" fill="#24072B" style="fill:#24072B;fill:color(display-p3 0.1412 0.0275 0.1686);fill-opacity:1;"/>
<path d="M162.74 170.32C160.82 170.32 159.12 170.07 157.66 169.57C152.21 167.72 152.72 161.19 153 157.68C153.16 155.69 153.69 152.86 154.67 148.78C156.61 140.75 161.25 112.49 161.3 112.2C161.37 111.79 161.76 111.51 162.16 111.58C162.57 111.65 162.85 112.03 162.78 112.44C162.73 112.73 158.08 141.04 156.13 149.12C155.17 153.12 154.65 155.88 154.5 157.79C154.08 163.12 154.54 166.92 158.15 168.15C161.02 169.13 164.97 169.04 169.88 167.88C177.5 166.1 187.37 164.33 187.47 164.31C187.88 164.24 188.27 164.51 188.34 164.92C188.41 165.33 188.14 165.72 187.73 165.79C187.63 165.81 177.8 167.57 170.22 169.34C167.45 170 164.95 170.32 162.75 170.32H162.74Z" fill="#24072B" style="fill:#24072B;fill:color(display-p3 0.1412 0.0275 0.1686);fill-opacity:1;"/>
<path d="M254.2 197.22C253.85 197.22 253.54 196.97 253.47 196.62C252.57 192.22 252.13 187.91 252.16 183.81C252.28 167.58 254.16 162.34 254.24 162.12C254.38 161.73 254.82 161.53 255.2 161.68C255.59 161.82 255.79 162.26 255.64 162.64C255.62 162.69 253.77 167.94 253.66 183.82C253.63 187.81 254.06 192.02 254.94 196.32C255.02 196.73 254.76 197.12 254.36 197.2C254.31 197.21 254.26 197.22 254.21 197.22H254.2Z" fill="#24072B" style="fill:#24072B;fill:color(display-p3 0.1412 0.0275 0.1686);fill-opacity:1;"/>
<path d="M239.73 224.93C236.06 224.93 232.16 223.94 228.25 221.34C212.72 211.02 203.5 210.48 203.4 210.48C203.09 210.47 202.83 210.27 202.73 209.98C202.46 209.22 196.2 191.31 195.87 185.4C195.54 179.45 196.64 176.04 196.68 175.9C196.81 175.51 197.24 175.3 197.63 175.42C198.02 175.55 198.24 175.97 198.11 176.37C198.1 176.4 197.05 179.68 197.37 185.32C197.66 190.52 202.99 206.15 203.99 209.03C206.18 209.27 215.06 210.78 229.08 220.1C244.31 230.23 259.55 214.04 259.71 213.87C259.99 213.57 260.47 213.55 260.77 213.83C261.07 214.11 261.09 214.59 260.81 214.89C260.69 215.02 251.35 224.93 239.73 224.94V224.93Z" fill="#24072B" style="fill:#24072B;fill:color(display-p3 0.1412 0.0275 0.1686);fill-opacity:1;"/>
<path d="M161.951 218.28C161.601 218.28 161.281 218.03 161.211 217.67C161.131 217.26 161.401 216.87 161.811 216.79L203.291 209C203.691 208.92 204.091 209.19 204.171 209.6C204.251 210.01 203.981 210.4 203.571 210.48L162.091 218.27C162.091 218.27 162.001 218.28 161.951 218.28Z" fill="#24072B" style="fill:#24072B;fill:color(display-p3 0.1412 0.0275 0.1686);fill-opacity:1;"/>
<path d="M168.41 244.73C168.06 244.73 167.74 244.48 167.67 244.12C165.06 230.67 154.13 224.11 150.14 222.71C149.75 222.57 149.54 222.15 149.68 221.75C149.82 221.36 150.24 221.15 150.64 221.29C154.86 222.77 166.4 229.69 169.14 243.83C169.22 244.24 168.95 244.63 168.55 244.71C168.5 244.71 168.45 244.72 168.41 244.72V244.73Z" fill="#24072B" style="fill:#24072B;fill:color(display-p3 0.1412 0.0275 0.1686);fill-opacity:1;"/>
<path d="M178.491 238.92C178.101 238.92 177.771 238.61 177.741 238.21C177.741 238.08 176.781 225.17 158.941 217.11C157.801 216.6 156.531 216.62 155.461 217.18L149.511 219.38C147.201 220.23 145.751 220.93 145.141 224.54C145.071 224.95 144.681 225.23 144.281 225.16C143.871 225.09 143.601 224.7 143.661 224.3C144.381 219.99 146.411 218.93 148.991 217.98L154.851 215.81C156.251 215.08 158.001 215.04 159.551 215.74C178.271 224.2 179.211 237.56 179.241 238.12C179.261 238.53 178.951 238.89 178.531 238.91C178.521 238.91 178.501 238.91 178.491 238.91V238.92Z" fill="#24072B" style="fill:#24072B;fill:color(display-p3 0.1412 0.0275 0.1686);fill-opacity:1;"/>
<path d="M137.781 308.15C137.671 308.15 137.561 308.13 137.461 308.08C137.091 307.9 136.931 307.45 137.111 307.08C137.291 306.7 155.511 268.72 163.801 250.9C163.991 250.49 164.181 250.08 164.361 249.67C166.051 245.98 167.641 242.49 171.581 240.47C175.091 238.68 178.181 237.48 178.211 237.46C178.321 237.42 178.441 237.4 178.551 237.41C178.771 237.43 200.431 239.83 202.801 266.58C202.841 266.99 202.531 267.36 202.121 267.39C201.701 267.42 201.341 267.12 201.311 266.71C199.151 242.43 180.561 239.2 178.571 238.92C177.881 239.2 175.231 240.28 172.261 241.8C168.781 243.58 167.361 246.69 165.721 250.29C165.531 250.7 165.341 251.11 165.151 251.53C156.861 269.35 138.631 307.34 138.451 307.72C138.321 307.99 138.051 308.15 137.771 308.15H137.781Z" fill="#24072B" style="fill:#24072B;fill:color(display-p3 0.1412 0.0275 0.1686);fill-opacity:1;"/>
<path d="M156.051 310.38C155.891 310.38 155.741 310.33 155.601 310.23C155.271 309.98 155.201 309.51 155.451 309.18C156.561 307.69 182.691 272.6 186.841 268.44C188.431 266.84 199.471 264.31 201.671 263.82C202.071 263.74 202.471 263.98 202.571 264.39C202.661 264.79 202.401 265.19 202.001 265.29C196.711 266.47 188.851 268.56 187.911 269.51C183.841 273.59 156.931 309.72 156.661 310.09C156.511 310.29 156.291 310.39 156.061 310.39L156.051 310.38Z" fill="#24072B" style="fill:#24072B;fill:color(display-p3 0.1412 0.0275 0.1686);fill-opacity:1;"/>
<path d="M201.061 270.86C199.981 270.86 199.021 270.59 198.201 270.05C196.121 268.7 195.751 266.14 195.731 266.03C195.671 265.62 195.961 265.24 196.371 265.18C196.771 265.12 197.161 265.41 197.211 265.82C197.211 265.86 197.531 267.83 199.021 268.79C200.001 269.42 201.311 269.52 202.931 269.06C203.961 268.77 204.921 268.56 205.861 268.35C210.301 267.39 212.751 266.86 212.541 259.42C212.361 253.29 210.081 238.45 192.921 233.07C183.511 230.13 179.331 238.15 179.161 238.49C178.971 238.86 178.521 239.01 178.151 238.82C177.781 238.63 177.631 238.19 177.821 237.82C177.871 237.72 182.711 228.31 193.371 231.64C211.461 237.31 213.861 252.93 214.051 259.38C214.301 268.07 210.721 268.84 206.191 269.82C205.281 270.02 204.341 270.22 203.361 270.5C202.551 270.73 201.781 270.85 201.081 270.85L201.061 270.86Z" fill="#24072B" style="fill:#24072B;fill:color(display-p3 0.1412 0.0275 0.1686);fill-opacity:1;"/>
<path d="M213.07 264.67C212.68 264.67 212.36 264.37 212.32 263.98C212.28 263.57 212.59 263.2 213 263.17C213.27 263.15 239.7 260.86 251.13 253.98C262.53 247.12 270.39 239.86 259.56 214.69C259.4 214.31 259.57 213.87 259.95 213.7C260.33 213.54 260.77 213.71 260.94 214.09C272.23 240.34 263.53 248.26 251.9 255.26C240.16 262.32 214.22 264.57 213.12 264.66C213.1 264.66 213.08 264.66 213.06 264.66L213.07 264.67Z" fill="#24072B" style="fill:#24072B;fill:color(display-p3 0.1412 0.0275 0.1686);fill-opacity:1;"/>
<path d="M193.13 233.12C192.83 233.12 192.55 232.94 192.44 232.65C192.28 232.27 192.47 231.83 192.85 231.67L213.92 223.06C214.3 222.91 214.74 223.09 214.9 223.47C215.06 223.85 214.87 224.29 214.49 224.45L193.42 233.06C193.33 233.1 193.23 233.12 193.14 233.12H193.13Z" fill="#24072B" style="fill:#24072B;fill:color(display-p3 0.1412 0.0275 0.1686);fill-opacity:1;"/>
<path d="M146.531 289.58C146.181 289.58 145.861 289.33 145.791 288.97C145.731 288.68 140.101 259.57 137.341 244.96C135.971 237.72 136.861 231.88 139.961 227.61C143.931 222.15 150.041 221.3 150.291 221.27C150.691 221.21 151.071 221.51 151.131 221.92C151.181 222.33 150.891 222.71 150.481 222.76C150.421 222.76 144.731 223.57 141.151 228.51C138.311 232.44 137.521 237.88 138.801 244.69C141.561 259.29 147.191 288.4 147.251 288.69C147.331 289.1 147.061 289.49 146.661 289.57C146.611 289.57 146.561 289.58 146.521 289.58H146.531Z" fill="#24072B" style="fill:#24072B;fill:color(display-p3 0.1412 0.0275 0.1686);fill-opacity:1;"/>
<path d="M144.909 324.52C147.559 320.2 152.579 314.88 158.549 309.49C162.349 306.07 155.329 304.81 151.669 301.95C143.319 295.4 145.379 292.9 142.829 292.05C139.609 290.98 137.289 305.68 128.029 312.94C115.639 322.65 99.809 318.73 103.939 328.52C106.949 335.64 112.259 343.45 124.349 342.9C136.829 342.33 141.299 330.4 144.889 324.53H144.899L144.909 324.52Z" fill="#642EE8" style="fill:#642EE8;fill:color(display-p3 0.3922 0.1804 0.9098);fill-opacity:1;"/>
<path d="M123.14 343.67C110.97 343.67 105.97 335.24 103.25 328.81C102.4 326.8 102.29 325.18 102.93 323.87C104.09 321.48 107.47 320.55 111.75 319.37C116.47 318.07 122.34 316.45 127.57 312.35C132.58 308.43 135.54 302.18 137.71 297.61C139.7 293.42 141 290.65 143.07 291.34C144.37 291.77 144.77 292.59 145.28 293.63C145.99 295.07 147.19 297.49 152.13 301.37C153.18 302.19 154.54 302.89 155.85 303.56C158.16 304.74 160.15 305.75 160.37 307.39C160.49 308.28 160.05 309.16 159.04 310.07C152.59 315.88 147.92 321.02 145.53 324.93C145.51 324.96 145.49 325 145.46 325.03C144.96 325.85 144.43 326.81 143.88 327.82C140.52 333.93 135.44 343.15 124.37 343.66C123.95 343.68 123.53 343.69 123.12 343.69L123.14 343.67ZM142.5 292.74C141.68 292.74 140.3 295.66 139.07 298.25C136.84 302.95 133.79 309.39 128.5 313.53C123.04 317.81 117 319.48 112.16 320.82C108.24 321.9 105.15 322.76 104.29 324.53C103.86 325.43 103.97 326.64 104.64 328.23C107.28 334.47 112.17 342.68 124.33 342.15C134.56 341.68 139.2 333.24 142.59 327.08C143.18 326.01 143.73 325.01 144.27 324.13C144.29 324.09 144.32 324.06 144.34 324.03C146.85 319.96 151.47 314.88 158.06 308.94C158.48 308.56 158.96 308.02 158.9 307.57C158.79 306.71 156.88 305.74 155.19 304.88C153.81 304.18 152.38 303.45 151.22 302.54C146.01 298.46 144.72 295.85 143.95 294.29C143.45 293.29 143.28 292.99 142.61 292.76C142.58 292.75 142.54 292.74 142.51 292.74H142.5Z" fill="#24072B" style="fill:#24072B;fill:color(display-p3 0.1412 0.0275 0.1686);fill-opacity:1;"/>
<path d="M163.121 356.08C159.931 356.08 156.801 355.27 154.111 353.67C147.931 350 149.251 341.12 150.921 329.87C151.631 325.11 152.421 319.71 152.661 314.31C152.681 313.9 153.041 313.57 153.441 313.59C153.851 313.61 154.171 313.96 154.161 314.37C153.921 319.85 153.111 325.29 152.401 330.08C150.821 340.77 149.571 349.22 154.881 352.37C159.091 354.86 164.481 355.26 169.311 353.43C173.451 351.86 176.501 348.87 177.671 345.22C179.501 339.51 176.331 330 173.781 322.35C172.501 318.52 171.401 315.22 171.061 312.86C170.031 305.79 171.001 289.48 171.041 288.79C171.071 288.38 171.461 288.07 171.831 288.09C172.241 288.12 172.561 288.47 172.531 288.88C172.521 289.05 171.531 305.73 172.531 312.65C172.861 314.88 173.941 318.13 175.191 321.88C177.811 329.73 181.071 339.51 179.091 345.68C177.781 349.77 174.401 353.1 169.831 354.84C167.651 355.67 165.371 356.07 163.111 356.07L163.121 356.08Z" fill="#24072B" style="fill:#24072B;fill:color(display-p3 0.1412 0.0275 0.1686);fill-opacity:1;"/>
<path d="M204.21 140.44C203.89 140.44 203.6 140.24 203.5 139.92C203.37 139.53 203.59 139.1 203.98 138.97C204.27 138.88 211.17 136.64 216.57 136.51C217.02 136.49 217.33 136.83 217.34 137.24C217.35 137.65 217.02 138 216.61 138.01C211.44 138.13 204.52 140.37 204.45 140.4C204.37 140.43 204.29 140.44 204.22 140.44H204.21Z" fill="#24072B" style="fill:#24072B;fill:color(display-p3 0.1412 0.0275 0.1686);fill-opacity:1;"/>
<path d="M278.17 143.02C278.04 143.02 277.91 143.02 277.78 143.02C266.35 142.72 258.56 142.48 258.56 142.48C258.15 142.47 257.82 142.12 257.83 141.71C257.84 141.3 258.19 141 258.6 140.98C258.6 140.98 266.38 141.23 277.81 141.52C282.34 141.65 286.58 139.38 288.91 135.63C291.31 131.76 292.11 127.05 291.28 121.63C289 106.86 279.04 107.85 278.63 107.91C277.16 107.99 267.71 110.72 261.71 112.54C261.3 112.66 260.89 112.43 260.77 112.04C260.65 111.64 260.87 111.22 261.27 111.1C262.82 110.63 276.43 106.52 278.49 106.41C278.55 106.41 290.25 105.15 292.76 121.4C293.64 127.18 292.78 132.23 290.18 136.42C287.64 140.52 283.06 143.03 278.16 143.03L278.17 143.02Z" fill="#24072B" style="fill:#24072B;fill:color(display-p3 0.1412 0.0275 0.1686);fill-opacity:1;"/>
<path d="M277.78 143.01C273.53 143.01 269.75 141.22 267.16 137.96C263.66 133.57 262.59 127.01 264.21 119.94C266.81 108.67 278.3 106.43 278.42 106.41C278.83 106.34 279.22 106.6 279.29 107.01C279.37 107.42 279.1 107.81 278.69 107.88C278.26 107.96 268.05 109.98 265.67 120.28C264.15 126.9 265.12 133 268.33 137.03C270.67 139.96 273.94 141.51 277.78 141.51C277.79 141.51 277.8 141.51 277.81 141.51C278.22 141.51 278.56 141.84 278.56 142.26C278.56 142.69 278.2 142.99 277.78 143.01Z" fill="#24072B" style="fill:#24072B;fill:color(display-p3 0.1412 0.0275 0.1686);fill-opacity:1;"/>
<path d="M281.08 137.09C279.24 137.09 273.16 136.52 271.29 129.16C270.27 125.13 270.87 121.41 272.98 118.68C274.7 116.47 277.24 115.19 279.95 115.18H279.98C284.19 115.18 286.69 119.26 286.99 123.3C287.23 126.57 286.03 130.07 282.81 130.53C280.98 130.79 279.54 130.42 278.54 129.41C276.71 127.57 277.16 124.34 277.18 124.2C277.24 123.79 277.62 123.5 278.03 123.57C278.44 123.63 278.72 124.01 278.66 124.42C278.66 124.45 278.3 127.06 279.6 128.36C280.25 129.01 281.26 129.24 282.59 129.05C284.85 128.72 285.67 125.99 285.49 123.41C285.25 120.17 283.42 116.68 279.97 116.68H279.95C277.7 116.68 275.59 117.75 274.16 119.6C272.33 121.96 271.83 125.22 272.73 128.79C274.6 136.18 281.16 135.61 281.44 135.58C281.85 135.53 282.22 135.84 282.26 136.25C282.3 136.66 282.01 137.03 281.59 137.07C281.58 137.07 281.38 137.09 281.06 137.09H281.08Z" fill="#24072B" style="fill:#24072B;fill:color(display-p3 0.1412 0.0275 0.1686);fill-opacity:1;"/>
<path d="M276.651 237.85C272.971 237.85 269.041 237.37 265.311 236.02C264.921 235.88 264.721 235.45 264.861 235.06C265.001 234.67 265.431 234.47 265.821 234.61C275.361 238.06 286.321 235.53 290.591 234.28C295.591 232.82 299.901 231.55 300.181 212.16C300.381 197.96 297.231 193.74 294.691 190.36C293.801 189.18 292.971 188.06 292.411 186.66C290.961 183.02 290.731 168.84 290.571 158.49C290.501 154.07 290.441 150.24 290.301 148.53C289.881 143.49 283.451 142.18 283.381 142.17C282.971 142.09 282.711 141.7 282.791 141.29C282.871 140.88 283.271 140.62 283.671 140.7C283.981 140.76 291.291 142.25 291.801 148.41C291.951 150.17 292.001 153.83 292.081 158.47C292.231 168.13 292.461 182.72 293.811 186.1C294.291 187.31 295.041 188.3 295.901 189.46C298.431 192.84 301.901 197.47 301.691 212.18C301.421 231.3 297.481 233.82 291.021 235.72C288.261 236.53 282.801 237.85 276.661 237.85H276.651Z" fill="#24072B" style="fill:#24072B;fill:color(display-p3 0.1412 0.0275 0.1686);fill-opacity:1;"/>
<path d="M215.461 126.58C215.091 126.58 214.771 126.31 214.721 125.93C214.671 125.52 214.951 125.14 215.361 125.09C215.361 125.09 216.651 124.9 217.051 124.03C217.431 123.23 217.131 122.75 217.131 122.75C216.881 122.42 216.951 121.95 217.281 121.7C217.611 121.45 218.081 121.52 218.331 121.85C218.651 122.28 219.031 123.36 218.411 124.67C217.651 126.27 215.641 126.56 215.561 126.57C215.531 126.57 215.491 126.57 215.461 126.57V126.58Z" fill="#24072B" style="fill:#24072B;fill:color(display-p3 0.1412 0.0275 0.1686);fill-opacity:1;"/>
<path d="M256.531 162.07C256.321 162.07 256.111 161.98 255.961 161.81C255.691 161.5 255.721 161.02 256.031 160.75C256.161 160.63 259.291 157.67 254.571 151C248.311 142.14 236.141 143.05 236.021 143.06C235.601 143.1 235.241 142.79 235.211 142.38C235.171 141.97 235.481 141.6 235.891 141.57C236.431 141.52 249.04 140.59 255.79 150.14C261.34 157.98 257.191 161.74 257.011 161.89C256.871 162.01 256.69 162.07 256.52 162.07H256.531Z" fill="#24072B" style="fill:#24072B;fill:color(display-p3 0.1412 0.0275 0.1686);fill-opacity:1;"/>
<path d="M278.931 196.9C278.571 196.9 278.261 196.64 278.191 196.28C276.231 185.04 276.051 170.52 275.911 159.91C275.841 154.44 275.781 150.13 275.511 147.88C275.241 145.7 274.551 144.19 273.441 143.4C272.281 142.57 271.061 142.81 271.011 142.82C270.611 142.91 270.211 142.64 270.121 142.24C270.031 141.84 270.291 141.44 270.691 141.35C270.771 141.33 272.581 140.95 274.291 142.16C275.771 143.21 276.681 145.07 277.001 147.7C277.281 150.03 277.341 154.38 277.411 159.9C277.551 170.45 277.731 184.91 279.671 196.03C279.741 196.44 279.471 196.83 279.061 196.9C279.021 196.9 278.971 196.91 278.931 196.91V196.9Z" fill="#24072B" style="fill:#24072B;fill:color(display-p3 0.1412 0.0275 0.1686);fill-opacity:1;"/>
<path d="M269.301 198.43C268.551 198.43 268.091 198.4 268.011 198.4C267.601 198.37 267.281 198.02 267.311 197.6C267.341 197.19 267.671 196.88 268.111 196.9C268.221 196.9 280.051 197.58 291.421 190.81C291.781 190.6 292.241 190.72 292.451 191.07C292.661 191.43 292.541 191.89 292.191 192.1C282.511 197.86 272.771 198.43 269.311 198.43H269.301Z" fill="#24072B" style="fill:#24072B;fill:color(display-p3 0.1412 0.0275 0.1686);fill-opacity:1;"/>
<path d="M270.541 224.07C270.361 224.07 270.181 224.01 270.041 223.88C268.651 222.61 235.861 192.83 232.071 187.08C228.241 181.25 227.401 171.46 227.371 171.04C227.341 170.63 227.641 170.27 228.061 170.23C228.461 170.19 228.831 170.5 228.871 170.92C228.871 171.02 229.711 180.75 233.331 186.25C237.021 191.84 270.721 222.46 271.061 222.77C271.371 223.05 271.391 223.52 271.111 223.83C270.961 223.99 270.761 224.08 270.551 224.08L270.541 224.07Z" fill="#24072B" style="fill:#24072B;fill:color(display-p3 0.1412 0.0275 0.1686);fill-opacity:1;"/>
<path d="M264.96 208.17C264.77 208.17 264.58 208.1 264.44 207.96C263.52 207.07 241.97 186.03 238.58 180.56C235.12 174.98 235.18 169.31 235.18 169.07C235.18 168.66 235.52 168.33 235.93 168.33C235.93 168.33 235.93 168.33 235.94 168.33C236.35 168.33 236.68 168.68 236.68 169.09C236.68 169.14 236.64 174.58 239.85 179.77C243.14 185.08 265.26 206.67 265.48 206.89C265.78 207.18 265.78 207.65 265.49 207.95C265.34 208.1 265.15 208.18 264.95 208.18L264.96 208.17Z" fill="#24072B" style="fill:#24072B;fill:color(display-p3 0.1412 0.0275 0.1686);fill-opacity:1;"/>
<path d="M164.371 302.34C163.751 302.34 163.081 302.31 162.351 302.25C161.941 302.21 161.631 301.85 161.671 301.44C161.711 301.03 162.071 300.73 162.481 300.76C169.681 301.38 170.691 298.41 170.701 298.38C170.821 297.99 171.241 297.76 171.621 297.87C172.011 297.98 172.251 298.38 172.141 298.77C172.101 298.93 171.121 302.34 164.361 302.34H164.371Z" fill="#24072B" style="fill:#24072B;fill:color(display-p3 0.1412 0.0275 0.1686);fill-opacity:1;"/>
<path d="M208.84 122.9C208.17 122.9 207.58 122.7 207.15 122.32C206.78 121.98 206.21 121.2 206.58 119.73C207.02 118.01 206.4 116.33 206.39 116.31C206.24 115.92 206.44 115.49 206.82 115.34C207.21 115.2 207.64 115.39 207.79 115.77C207.82 115.86 208.59 117.9 208.03 120.09C207.95 120.39 207.87 120.93 208.15 121.19C208.45 121.46 209.11 121.46 209.83 121.19C210.7 120.87 210.89 120.45 210.87 120.26C210.78 119.86 211.03 119.47 211.44 119.38C211.84 119.29 212.25 119.56 212.34 119.96C212.36 120.03 212.72 121.72 210.35 122.6C209.82 122.8 209.31 122.89 208.84 122.89V122.9Z" fill="#24072B" style="fill:#24072B;fill:color(display-p3 0.1412 0.0275 0.1686);fill-opacity:1;"/>
<path d="M213.44 104.74C213.37 104.74 213.31 104.74 213.24 104.71C213.22 104.71 211.43 104.21 206.91 103.12C206.51 103.02 206.26 102.62 206.36 102.21C206.46 101.81 206.86 101.57 207.27 101.66C211.82 102.76 213.58 103.24 213.65 103.26C214.05 103.37 214.28 103.78 214.17 104.18C214.08 104.51 213.78 104.73 213.45 104.73L213.44 104.74Z" fill="#FEF1FF" style="fill:#FEF1FF;fill:color(display-p3 0.9961 0.9451 1.0000);fill-opacity:1;"/>
<path d="M183.921 98.09C183.861 98.09 183.811 98.09 183.751 98.07L179.061 96.98C178.661 96.89 178.411 96.48 178.501 96.08C178.591 95.68 179.001 95.42 179.401 95.52L184.091 96.61C184.491 96.7 184.741 97.11 184.651 97.51C184.571 97.86 184.261 98.09 183.921 98.09Z" fill="#FEF1FF" style="fill:#FEF1FF;fill:color(display-p3 0.9961 0.9451 1.0000);fill-opacity:1;"/>
<path d="M165.551 95.1101C165.551 95.1101 165.491 95.1101 165.461 95.1101L159.361 94.3401C158.951 94.2901 158.661 93.9101 158.711 93.5001C158.761 93.0901 159.121 92.7901 159.551 92.8501L165.651 93.6201C166.061 93.6701 166.351 94.0501 166.301 94.4601C166.251 94.8401 165.931 95.1201 165.561 95.1201L165.551 95.1101Z" fill="#FEF1FF" style="fill:#FEF1FF;fill:color(display-p3 0.9961 0.9451 1.0000);fill-opacity:1;"/>
<path d="M253.671 132.44C253.341 132.44 253.031 132.21 252.941 131.88C251.371 125.72 247.801 119.9 244.651 114.76C243.011 112.07 241.451 109.54 240.381 107.26C238.711 103.71 237.941 101.01 237.901 100.9C237.791 100.5 238.021 100.09 238.421 99.9701C238.821 99.8601 239.231 100.09 239.351 100.49C239.351 100.52 240.121 103.19 241.741 106.62C242.781 108.83 244.311 111.33 245.931 113.98C249.131 119.21 252.761 125.14 254.391 131.51C254.491 131.91 254.251 132.32 253.851 132.42C253.791 132.44 253.731 132.44 253.661 132.44H253.671Z" fill="#FEF1FF" style="fill:#FEF1FF;fill:color(display-p3 0.9961 0.9451 1.0000);fill-opacity:1;"/>
<path d="M247.351 91.2201C247.301 91.2201 247.241 91.2201 247.191 91.2001C246.781 91.1101 246.531 90.7101 246.621 90.3101L247.201 87.6201C247.391 86.7601 247.121 85.8801 246.481 85.2701C242.881 81.8301 232.841 73.7701 217.351 73.3601C216.941 73.3501 216.611 73.0001 216.621 72.5901C216.631 72.1801 216.961 71.8601 217.371 71.8601H217.391C233.401 72.2801 243.791 80.6201 247.521 84.1801C248.541 85.1601 248.971 86.5601 248.671 87.9301L248.091 90.6201C248.011 90.9701 247.701 91.2101 247.361 91.2101L247.351 91.2201Z" fill="#FEF1FF" style="fill:#FEF1FF;fill:color(display-p3 0.9961 0.9451 1.0000);fill-opacity:1;"/>
<path d="M167.031 219.12C166.681 219.12 166.361 218.87 166.291 218.51C166.211 218.1 166.481 217.71 166.891 217.63L199.601 211.44C200.011 211.37 200.401 211.63 200.481 212.04C200.561 212.45 200.291 212.84 199.881 212.92L167.171 219.11C167.171 219.11 167.081 219.12 167.031 219.12Z" fill="#FEF1FF" style="fill:#FEF1FF;fill:color(display-p3 0.9961 0.9451 1.0000);fill-opacity:1;"/>
<path d="M105.341 327.77C105.051 327.77 104.771 327.6 104.651 327.31C104.191 326.23 104.151 325.32 104.531 324.53C105.331 322.87 107.731 322.21 111.371 321.21C115.091 320.19 120.181 318.79 125.501 315.65C132.151 311.72 134.101 308.15 134.121 308.11C134.311 307.75 134.771 307.61 135.131 307.8C135.501 307.99 135.641 308.44 135.451 308.81C135.371 308.97 133.321 312.77 126.261 316.94C120.771 320.18 115.571 321.61 111.771 322.65C108.761 323.48 106.381 324.13 105.881 325.17C105.811 325.31 105.611 325.73 106.031 326.71C106.191 327.09 106.021 327.53 105.631 327.69C105.531 327.73 105.431 327.75 105.341 327.75V327.77Z" fill="#FEF1FF" style="fill:#FEF1FF;fill:color(display-p3 0.9961 0.9451 1.0000);fill-opacity:1;"/>
<path d="M162.49 354.09C160.53 354.09 158.45 353.74 156.34 352.82C149.48 349.82 151.37 339.6 151.45 339.16C151.53 338.75 151.92 338.49 152.33 338.57C152.74 338.65 153 339.04 152.92 339.45C152.9 339.54 151.18 348.93 156.94 351.45C164.86 354.92 172.82 349.28 172.89 349.22C173.22 348.98 173.69 349.05 173.94 349.39C174.18 349.72 174.11 350.19 173.77 350.44C173.5 350.63 168.63 354.1 162.48 354.1L162.49 354.09Z" fill="#FEF1FF" style="fill:#FEF1FF;fill:color(display-p3 0.9961 0.9451 1.0000);fill-opacity:1;"/>
<path d="M290.641 127.79C290.641 127.79 290.601 127.79 290.581 127.79C290.171 127.76 289.861 127.4 289.891 126.99C289.891 126.92 290.361 120.21 287.721 115.34C284.951 110.22 281.301 109.46 278.711 109.73C277.251 109.88 269.081 112.1 266.051 112.95C265.651 113.06 265.241 112.83 265.131 112.43C265.021 112.03 265.251 111.62 265.651 111.51C266.101 111.39 276.671 108.44 278.561 108.25C281.041 107.99 285.711 108.48 289.041 114.64C291.881 119.9 291.401 126.82 291.381 127.11C291.351 127.5 291.021 127.8 290.631 127.8L290.641 127.79Z" fill="#FEF1FF" style="fill:#FEF1FF;fill:color(display-p3 0.9961 0.9451 1.0000);fill-opacity:1;"/>
<path d="M297.88 226.24C297.82 226.24 297.76 226.24 297.71 226.22C297.31 226.13 297.06 225.72 297.15 225.32C297.18 225.21 299.7 214.19 297.68 201.8C296.8 196.39 294.6 193.48 293 191.36C292.73 191 292.48 190.67 292.26 190.36C290.7 188.15 290 184.71 289.88 182.43C289.4 173.24 288.28 151.89 287.96 148.63C287.61 145.04 282.83 144.11 282.78 144.1C282.37 144.02 282.1 143.63 282.18 143.23C282.26 142.82 282.65 142.55 283.05 142.63C283.29 142.67 288.99 143.77 289.45 148.49C289.77 151.78 290.85 172.39 291.37 182.29C291.49 184.6 292.19 187.67 293.48 189.5C293.69 189.8 293.94 190.12 294.19 190.46C295.79 192.58 298.22 195.78 299.16 201.56C301.23 214.26 298.63 225.56 298.61 225.67C298.53 226.02 298.22 226.25 297.88 226.25V226.24Z" fill="#FEF1FF" style="fill:#FEF1FF;fill:color(display-p3 0.9961 0.9451 1.0000);fill-opacity:1;"/>
</g>
<defs>
<clipPath id="clip0_838_6407">
<rect width="340" height="380" fill="white" style="fill:white;fill:white;fill-opacity:1;"/>
</clipPath>
</defs>
</svg>
