<svg width="340" height="380" viewBox="0 0 340 380" fill="none" xmlns="http://www.w3.org/2000/svg">
<g clip-path="url(#clip0_838_6357)">
<path d="M-6.28906 195.06C-6.28906 195.06 17.7809 213.8 29.8009 222.48C41.8209 231.16 25.1409 257.02 54.5309 271.12C83.9209 285.22 98.0809 308.22 127.021 322.32C155.961 336.42 187.951 320.15 207.351 339.68C226.751 359.21 277.461 380.44 277.461 380.44H-0.199063L-6.28906 195.06Z" fill="#4C14B5" style="fill:#4C14B5;fill:color(display-p3 0.2980 0.0784 0.7098);fill-opacity:1;"/>
<path d="M210.01 198.79C209.6 198.79 209.26 198.45 209.26 198.04V188.78C209.26 188.37 209.6 188.03 210.01 188.03C210.42 188.03 210.76 188.37 210.76 188.78V198.04C210.76 198.45 210.42 198.79 210.01 198.79Z" fill="#24072B" style="fill:#24072B;fill:color(display-p3 0.1412 0.0275 0.1686);fill-opacity:1;"/>
<path d="M258.63 109.32C258.63 76.56 232.08 50 199.31 50C166.54 50 139.99 76.55 139.99 109.32C139.99 137.99 186.1 187.31 186.1 187.31C186.1 187.31 191.18 189.27 200.39 189.28C210.73 189.3 214.5 187.33 214.5 187.33C214.5 187.33 258.62 137.39 258.62 109.31L258.63 109.32Z" fill="#642EE8" style="fill:#642EE8;fill:color(display-p3 0.3922 0.1804 0.9098);fill-opacity:1;"/>
<path d="M200.56 190.03H200.41C191.16 190.03 186.06 188.09 185.85 188.01C185.74 187.97 185.65 187.91 185.57 187.82C185.45 187.7 173.88 175.27 162.46 159.5C147.07 138.25 139.26 121.36 139.26 109.31C139.26 76.19 166.21 49.24 199.33 49.24C232.45 49.24 259.39 76.18 259.39 109.3C259.39 121.11 251.92 137.92 237.2 159.26C226.27 175.11 215.2 187.68 215.09 187.81C215.03 187.88 214.96 187.94 214.88 187.98C214.72 188.06 210.87 190.02 200.58 190.02L200.56 190.03ZM186.54 186.66C187.45 186.98 192.34 188.52 200.41 188.53H200.56C209.46 188.53 213.36 187.02 214.06 186.71C216.43 184 257.88 136.13 257.89 109.31C257.89 77.02 231.62 50.75 199.33 50.75C167.04 50.75 140.76 77.02 140.76 109.32C140.76 136.64 183.91 183.81 186.55 186.67L186.54 186.66Z" fill="#24072B" style="fill:#24072B;fill:color(display-p3 0.1412 0.0275 0.1686);fill-opacity:1;"/>
<path d="M145.45 92.03C148.65 92.79 151.13 95 152.39 97.98C153.18 99.86 153.39 101.86 153.23 103.87C155.9 96.15 163.06 88.74 170.79 87.66C174.66 87.12 178.51 88.54 179.65 92.69C179.82 93.31 179.89 93.98 179.86 94.66C183.34 90.45 189.15 88.01 194.68 87.06C199.17 86.29 203.81 85.88 208.31 86.85C213.68 88.02 217.51 91.53 220.63 95.87C220.66 95.92 220.69 95.96 220.72 96C225.92 89.5 237.03 86.55 242.68 93.87C243.02 94.32 243.33 94.77 243.59 95.25C243.97 94.6 244.42 93.99 244.96 93.45C247.78 90.62 252.47 90.52 255.67 92.75C255.94 92.91 256.19 93.08 256.44 93.27C249.44 68.3 226.51 49.99 199.32 49.99C172.13 49.99 150.03 67.64 142.6 91.91C143.55 91.78 144.52 91.81 145.46 92.02L145.45 92.03Z" fill="#6F53F5" style="fill:#6F53F5;fill:color(display-p3 0.4353 0.3255 0.9608);fill-opacity:1;"/>
<path d="M229.39 155.08C228.81 155.85 228.11 156.51 227.34 156.88C226.35 157.36 225.28 157.9 224.17 158.09C223.37 158.22 222.54 158.39 221.72 158.35C220.51 158.28 219.66 158.08 218.59 157.64C216.35 156.7 214.54 154.83 213.69 152.56C213.35 153.59 212.8 154.58 212.06 155.44C208.28 159.84 203.04 162.09 197.26 160.98C192.98 160.16 189.29 157.68 185.42 155.81C185.39 156.33 185.32 156.84 185.19 157.32C184.7 159.1 183.45 160.67 181.88 161.62C180.34 162.57 178.43 163.07 176.63 163.08C174.61 163.08 172.93 162.46 171.14 161.62C170.98 161.55 170.83 161.45 170.67 161.36C170.76 163.33 170.14 165.33 168.84 166.78C178.15 178.79 186.11 187.31 186.11 187.31C186.11 187.31 191.19 189.27 200.4 189.28C210.74 189.3 214.51 187.33 214.51 187.33C214.51 187.33 224.22 176.33 234.53 161.76C231.2 160.98 229.5 158.07 229.38 155.08H229.39Z" fill="#5920C5" style="fill:#5920C5;fill:color(display-p3 0.3490 0.1255 0.7725);fill-opacity:1;"/>
<path d="M200.56 190.03H200.41C191.16 190.03 186.06 188.09 185.85 188.01C185.74 187.97 185.65 187.91 185.57 187.82C185.45 187.7 173.88 175.27 162.46 159.5C147.07 138.25 139.26 121.36 139.26 109.31C139.26 76.19 166.21 49.24 199.33 49.24C232.45 49.24 259.39 76.18 259.39 109.3C259.39 121.11 251.92 137.92 237.2 159.26C226.27 175.11 215.2 187.68 215.09 187.81C215.03 187.88 214.96 187.94 214.88 187.98C214.72 188.06 210.87 190.02 200.58 190.02L200.56 190.03ZM186.54 186.66C187.45 186.98 192.34 188.52 200.41 188.53H200.56C209.46 188.53 213.36 187.02 214.06 186.71C216.43 184 257.88 136.13 257.89 109.31C257.89 77.02 231.62 50.75 199.33 50.75C167.04 50.75 140.76 77.02 140.76 109.32C140.76 136.64 183.91 183.81 186.55 186.67L186.54 186.66Z" fill="#24072B" style="fill:#24072B;fill:color(display-p3 0.1412 0.0275 0.1686);fill-opacity:1;"/>
<path d="M199.41 190.03H199.29C192.03 190.03 188.01 188.06 187.84 187.98C187.73 187.93 187.64 187.85 187.57 187.75C186.1 185.73 151.57 137.9 151.57 109.32C151.57 76.2 172.6 49.25 198.44 49.25C224.28 49.25 245.31 76.19 245.31 109.31C245.31 121.09 239.51 137.87 228.07 159.2C219.57 175.05 210.96 187.62 210.88 187.75C210.83 187.83 210.76 187.89 210.68 187.95C210.55 188.04 207.49 190.03 199.41 190.03ZM188.66 186.71C189.45 187.06 193.19 188.52 199.29 188.53H199.41C206.14 188.53 209.15 187.09 209.74 186.77C211.72 183.86 243.81 136.13 243.81 109.32C243.81 77.03 223.46 50.76 198.44 50.76C173.42 50.76 153.07 77.03 153.07 109.33C153.07 120.92 159.23 137.99 170.89 158.69C179.19 173.42 187.59 185.22 188.66 186.72V186.71Z" fill="#24072B" style="fill:#24072B;fill:color(display-p3 0.1412 0.0275 0.1686);fill-opacity:1;"/>
<path d="M199.76 190.03H199.7C196.16 190.02 194.19 187.9 194.11 187.81C194.04 187.73 193.99 187.64 193.95 187.54C193.79 187.04 177.65 137.77 177.65 109.31C177.65 75.63 187.17 49.24 199.32 49.24C211.47 49.24 220.97 75.56 220.99 109.18C220.99 109.22 220.99 109.26 220.99 109.3C220.99 137.17 205.55 187.04 205.39 187.54C205.37 187.61 205.34 187.67 205.3 187.73C205.24 187.82 203.72 190.02 199.76 190.02V190.03ZM195.32 186.91C195.72 187.28 197.23 188.53 199.71 188.53H199.76C202.53 188.53 203.74 187.3 204.01 186.98C204.88 184.16 219.46 136.42 219.5 109.44C219.5 109.4 219.5 109.36 219.5 109.32C219.5 77.03 210.45 50.75 199.33 50.75C188.21 50.75 179.16 77.02 179.16 109.32C179.16 136.7 194.29 183.7 195.33 186.91H195.32Z" fill="#24072B" style="fill:#24072B;fill:color(display-p3 0.1412 0.0275 0.1686);fill-opacity:1;"/>
<path d="M218.919 109.34H218.899C218.489 109.33 218.159 108.99 218.169 108.57C218.399 98.9999 217.659 84.4599 212.789 69.5399C207.669 53.8499 201.789 52.0299 199.489 51.9699C196.419 51.8799 194.539 54.0599 194.519 54.0799C194.249 54.3899 193.779 54.4299 193.459 54.1499C193.149 53.8799 193.109 53.4099 193.379 53.0999C193.479 52.9899 195.759 50.4299 199.519 50.4699C202.759 50.5499 208.989 53.0699 214.209 69.0699C219.139 84.1899 219.899 98.9199 219.659 108.61C219.659 109.02 219.319 109.34 218.909 109.34H218.919Z" fill="#FEF1FF" style="fill:#FEF1FF;fill:color(display-p3 0.9961 0.9451 1.0000);fill-opacity:1;"/>
<path d="M236.321 137.32C236.221 137.32 236.111 137.3 236.021 137.26C235.641 137.09 235.471 136.65 235.641 136.27L236.011 135.46C238.111 130.83 243.711 118.54 242.181 103.96C240.591 88.77 236.021 76.69 228.581 68.04C221.851 60.22 217.401 56.72 210.921 54.2C210.531 54.05 210.341 53.61 210.491 53.23C210.641 52.85 211.071 52.66 211.461 52.8C218.201 55.43 222.801 59.02 229.711 67.06C237.351 75.95 242.041 88.31 243.661 103.81C245.231 118.8 239.511 131.36 237.361 136.09L237.001 136.89C236.881 137.17 236.601 137.34 236.311 137.34L236.321 137.32Z" fill="#FEF1FF" style="fill:#FEF1FF;fill:color(display-p3 0.9961 0.9451 1.0000);fill-opacity:1;"/>
<path d="M186.541 198.68C186.541 198.68 200.051 202.61 214.301 198.68L212.451 215.12C212.211 217.22 210.631 218.91 208.551 219.3C205.311 219.9 199.921 220.27 192.751 218.63C190.851 218.19 189.421 216.64 189.111 214.72L186.551 198.69L186.541 198.68Z" fill="#4C14B5" style="fill:#4C14B5;fill:color(display-p3 0.2980 0.0784 0.7098);fill-opacity:1;"/>
<path d="M202.661 220.56C199.851 220.56 196.471 220.25 192.571 219.36C190.381 218.86 188.721 217.08 188.361 214.85L185.801 198.82C185.801 198.82 185.801 198.74 185.801 198.7C185.801 198.46 185.911 198.24 186.101 198.1C186.291 197.96 186.541 197.91 186.761 197.98C186.891 198.02 200.241 201.8 214.111 197.98C214.351 197.91 214.611 197.98 214.801 198.13C214.991 198.28 215.091 198.54 215.061 198.78L213.211 215.22C212.931 217.66 211.121 219.6 208.701 220.05C207.151 220.34 205.141 220.57 202.681 220.57L202.661 220.56ZM187.451 199.7L189.831 214.61C190.101 216.24 191.301 217.53 192.901 217.9C199.951 219.51 205.221 219.15 208.401 218.57C210.171 218.24 211.491 216.82 211.701 215.04L213.431 199.69C201.751 202.62 190.921 200.53 187.461 199.69L187.451 199.7Z" fill="#24072B" style="fill:#24072B;fill:color(display-p3 0.1412 0.0275 0.1686);fill-opacity:1;"/>
<path d="M186.54 198.68C186.54 198.68 187.44 196.33 199.6 196.33C212.72 196.33 214.28 198.68 214.28 198.68C214.28 198.68 213.62 200.21 200.78 200.42C185.45 200.67 186.52 198.68 186.52 198.68H186.54Z" fill="#24072B" style="fill:#24072B;fill:color(display-p3 0.1412 0.0275 0.1686);fill-opacity:1;"/>
<path d="M198.291 201.19C187.051 201.19 186.221 199.81 185.931 199.33C185.701 198.94 185.751 198.56 185.871 198.33C185.891 198.3 185.911 198.27 185.931 198.24C186.421 197.43 188.751 195.58 199.601 195.58C212.471 195.58 214.611 197.82 214.911 198.27C215.051 198.48 215.081 198.75 214.971 198.98C214.261 200.61 206.871 201.07 200.801 201.16C199.911 201.17 199.071 201.18 198.291 201.18V201.19ZM187.571 198.75C188.471 199.13 191.411 199.82 200.781 199.67C208.141 199.55 211.371 198.99 212.751 198.6C211.291 198 207.731 197.08 199.611 197.08C191.491 197.08 188.461 198.2 187.571 198.75Z" fill="#24072B" style="fill:#24072B;fill:color(display-p3 0.1412 0.0275 0.1686);fill-opacity:1;"/>
<path d="M191.25 199.43C190.84 199.43 190.5 199.09 190.5 198.68V188.56C190.5 188.15 190.84 187.81 191.25 187.81C191.66 187.81 192 188.15 192 188.56V198.68C192 199.09 191.66 199.43 191.25 199.43Z" fill="#24072B" style="fill:#24072B;fill:color(display-p3 0.1412 0.0275 0.1686);fill-opacity:1;"/>
<path d="M235.86 157.69C235.72 157.69 235.58 157.65 235.45 157.57C235.1 157.35 235 156.88 235.23 156.53L236.85 154.03C253.28 128.65 261.53 115.91 254.46 93.16C245.8 65.34 221.75 56.74 221.5 56.66C221.11 56.52 220.9 56.1 221.04 55.71C221.18 55.32 221.6 55.11 221.99 55.25C222.24 55.34 246.99 64.16 255.89 92.73C263.18 116.15 254.27 129.9 238.11 154.86L236.5 157.36C236.36 157.58 236.12 157.7 235.87 157.7L235.86 157.69Z" fill="#FEF1FF" style="fill:#FEF1FF;fill:color(display-p3 0.9961 0.9451 1.0000);fill-opacity:1;"/>
<path d="M211.541 214.92C211.541 214.92 211.491 214.92 211.461 214.92C211.051 214.88 210.751 214.5 210.801 214.09L212.181 201.42C210.541 201.75 206.871 202.3 199.821 202.46C196.911 202.53 189.621 201.97 189.321 201.95C188.911 201.92 188.601 201.56 188.631 201.14C188.661 200.73 189.021 200.43 189.441 200.45C189.511 200.45 196.961 201.03 199.791 200.96C209.681 200.73 212.771 199.74 212.801 199.73C213.041 199.65 213.311 199.7 213.511 199.86C213.711 200.02 213.811 200.27 213.791 200.52L212.291 214.26C212.251 214.64 211.921 214.93 211.551 214.93L211.541 214.92Z" fill="#FEF1FF" style="fill:#FEF1FF;fill:color(display-p3 0.9961 0.9451 1.0000);fill-opacity:1;"/>
<path d="M177.309 97.7599C177.309 97.7599 177.279 97.7599 177.269 97.7599C176.859 97.7399 176.539 97.3799 176.559 96.9699C176.559 96.8899 177.049 88.55 178.989 78.91C181.619 65.9 185.529 56.8299 190.609 51.9799C190.909 51.6899 191.379 51.6999 191.669 51.9999C191.959 52.2999 191.949 52.7699 191.649 53.0599C180.019 64.1699 178.079 96.7199 178.059 97.0499C178.039 97.4499 177.709 97.7599 177.309 97.7599Z" fill="#FEF1FF" style="fill:#FEF1FF;fill:color(display-p3 0.9961 0.9451 1.0000);fill-opacity:1;"/>
<path d="M153.7 87.9699C153.63 87.9699 153.56 87.9699 153.49 87.9399C153.09 87.8199 152.87 87.3999 152.99 87.0099C153.06 86.7899 154.64 81.5299 157.96 75.1299C161.04 69.1999 166.26 61.1899 173.6 56.6999C173.96 56.4799 174.42 56.5999 174.63 56.9499C174.85 57.2999 174.73 57.7599 174.38 57.9799C160.86 66.2399 154.48 87.2199 154.42 87.4399C154.32 87.7699 154.02 87.9799 153.7 87.9799V87.9699Z" fill="#FEF1FF" style="fill:#FEF1FF;fill:color(display-p3 0.9961 0.9451 1.0000);fill-opacity:1;"/>
<path d="M102.199 324.16C101.789 324.16 101.449 323.82 101.449 323.41V315.99C101.449 315.58 101.789 315.24 102.199 315.24C102.609 315.24 102.949 315.58 102.949 315.99V323.41C102.949 323.82 102.609 324.16 102.199 324.16Z" fill="#24072B" style="fill:#24072B;fill:color(display-p3 0.1412 0.0275 0.1686);fill-opacity:1;"/>
<path d="M141.181 252.28C141.181 226.02 119.891 204.72 93.6205 204.72C67.3505 204.72 46.0605 226.01 46.0605 252.28C46.0605 275.26 83.0305 314.81 83.0305 314.81C83.0305 314.81 87.1005 316.38 94.4905 316.39C102.781 316.41 105.801 314.82 105.801 314.82C105.801 314.82 141.171 274.78 141.171 252.27L141.181 252.28Z" fill="#642EE8" style="fill:#642EE8;fill:color(display-p3 0.3922 0.1804 0.9098);fill-opacity:1;"/>
<path d="M94.6405 317.14H94.4905C87.0505 317.14 82.9305 315.58 82.7605 315.51C82.6505 315.47 82.5605 315.4 82.4805 315.32C82.3905 315.22 73.1005 305.25 63.9405 292.6C51.5805 275.53 45.3105 261.97 45.3105 252.28C45.3105 225.64 66.9805 203.97 93.6205 203.97C120.261 203.97 141.931 225.64 141.931 252.28C141.931 252.32 141.931 252.37 141.921 252.41C141.861 261.89 135.871 275.35 124.101 292.41C115.331 305.12 106.451 315.21 106.361 315.31C106.301 315.38 106.231 315.43 106.151 315.48C106.021 315.55 102.911 317.14 94.6405 317.14ZM83.4505 314.16C84.2505 314.43 88.1305 315.63 94.4905 315.64H94.6405C101.621 315.64 104.731 314.47 105.341 314.21C107.451 311.8 140.421 273.65 140.421 252.27C140.421 252.23 140.421 252.19 140.431 252.14C140.361 226.39 119.391 205.47 93.6205 205.47C67.8505 205.47 46.8105 226.47 46.8105 252.28C46.8105 274.04 81.1105 311.62 83.4505 314.16Z" fill="#24072B" style="fill:#24072B;fill:color(display-p3 0.1412 0.0275 0.1686);fill-opacity:1;"/>
<path d="M50.4406 238.43C53.0106 239.04 54.9906 240.81 56.0006 243.21C56.6306 244.71 56.8006 246.32 56.6806 247.93C58.8206 241.74 64.5606 235.8 70.7506 234.93C73.8506 234.5 76.9406 235.63 77.8506 238.96C77.9906 239.46 78.0406 239.99 78.0206 240.54C80.8106 237.16 85.4706 235.2 89.9006 234.45C93.5006 233.83 97.2206 233.5 100.831 234.28C105.141 235.21 108.211 238.03 110.711 241.52C110.731 241.55 110.751 241.59 110.781 241.63C114.951 236.42 123.851 234.05 128.391 239.92C128.661 240.27 128.911 240.65 129.121 241.03C129.421 240.51 129.791 240.02 130.221 239.59C132.481 237.32 136.241 237.24 138.811 239.03C139.031 239.16 139.231 239.3 139.421 239.45C133.811 219.43 115.431 204.75 93.6206 204.75C71.8106 204.75 54.1006 218.9 48.1406 238.36C48.9006 238.25 49.6906 238.28 50.4306 238.45V238.43H50.4406Z" fill="#6F53F5" style="fill:#6F53F5;fill:color(display-p3 0.4353 0.3255 0.9608);fill-opacity:1;"/>
<path d="M117.741 288.98C117.281 289.6 116.711 290.13 116.101 290.42C115.301 290.81 114.451 291.24 113.571 291.39C112.931 291.5 112.261 291.64 111.611 291.6C110.641 291.54 109.961 291.39 109.101 291.03C107.311 290.27 105.851 288.78 105.171 286.96C104.901 287.79 104.451 288.58 103.861 289.27C100.831 292.8 96.6309 294.6 91.9909 293.71C88.5609 293.05 85.6009 291.06 82.5009 289.57C82.4809 289.99 82.4209 290.4 82.3209 290.78C81.9309 292.21 80.9209 293.46 79.6709 294.23C78.4309 294.99 76.9109 295.4 75.4609 295.4C73.8409 295.4 72.5009 294.91 71.0609 294.23C70.9309 294.17 70.8109 294.09 70.6809 294.02C70.7509 295.6 70.2609 297.21 69.2109 298.37C76.6709 308 83.0509 314.83 83.0509 314.83C83.0509 314.83 87.1209 316.4 94.5109 316.41C102.801 316.43 105.821 314.84 105.821 314.84C105.821 314.84 113.611 306.03 121.871 294.35C119.211 293.73 117.831 291.39 117.741 288.99V288.98Z" fill="#5920C5" style="fill:#5920C5;fill:color(display-p3 0.3490 0.1255 0.7725);fill-opacity:1;"/>
<path d="M94.6405 317.14H94.4905C87.0505 317.14 82.9305 315.58 82.7605 315.51C82.6505 315.47 82.5605 315.4 82.4805 315.32C82.3905 315.22 73.1005 305.25 63.9405 292.6C51.5805 275.53 45.3105 261.97 45.3105 252.28C45.3105 225.64 66.9805 203.97 93.6205 203.97C120.261 203.97 141.931 225.64 141.931 252.28C141.931 252.32 141.931 252.37 141.921 252.41C141.861 261.89 135.871 275.35 124.101 292.41C115.331 305.12 106.451 315.21 106.361 315.31C106.301 315.38 106.231 315.43 106.151 315.48C106.021 315.55 102.911 317.14 94.6405 317.14ZM83.4505 314.16C84.2505 314.43 88.1305 315.63 94.4905 315.64H94.6405C101.621 315.64 104.731 314.47 105.341 314.21C107.451 311.8 140.421 273.65 140.421 252.27C140.421 252.23 140.421 252.19 140.431 252.14C140.361 226.39 119.391 205.47 93.6205 205.47C67.8505 205.47 46.8105 226.47 46.8105 252.28C46.8105 274.04 81.1105 311.62 83.4505 314.16Z" fill="#24072B" style="fill:#24072B;fill:color(display-p3 0.1412 0.0275 0.1686);fill-opacity:1;"/>
<path d="M93.7192 317.14H93.5992C87.7492 317.14 84.4892 315.55 84.3592 315.48C84.2492 315.43 84.1592 315.35 84.0892 315.25C82.9092 313.63 55.1992 275.24 55.1992 252.28C55.1992 225.64 72.1292 203.97 92.9292 203.97C113.729 203.97 130.659 225.64 130.659 252.28C130.659 252.32 130.659 252.36 130.659 252.4C130.619 261.85 125.959 275.29 116.819 292.34C109.999 305.05 103.099 315.14 103.029 315.24C102.979 315.32 102.909 315.38 102.829 315.44C102.729 315.51 100.249 317.14 93.7392 317.14H93.7192ZM85.1792 314.21C85.8792 314.51 88.8292 315.63 93.5992 315.64C98.8992 315.62 101.349 314.54 101.859 314.26C103.619 311.66 129.139 273.64 129.139 252.27C129.139 252.23 129.139 252.19 129.139 252.15C129.089 226.4 112.849 205.47 92.9092 205.47C72.9692 205.47 56.6792 226.47 56.6792 252.28C56.6792 274.02 83.1792 311.43 85.1692 314.21H85.1792Z" fill="#24072B" style="fill:#24072B;fill:color(display-p3 0.1412 0.0275 0.1686);fill-opacity:1;"/>
<path d="M93.9701 317.14H93.9101C91.0201 317.13 89.3901 315.39 89.3201 315.32C89.2501 315.24 89.1901 315.15 89.1601 315.05C89.0301 314.65 76.0801 275.12 76.0801 252.29C76.0801 225.2 83.7801 203.98 93.6101 203.98C103.44 203.98 111.14 225.2 111.14 252.29C111.14 252.33 111.14 252.37 111.14 252.41C111.09 274.8 98.7501 314.65 98.6301 315.05C98.6101 315.12 98.5801 315.18 98.5401 315.25C98.4901 315.33 97.2201 317.15 93.9801 317.15L93.9701 317.14ZM90.5301 314.4C90.8701 314.71 92.0401 315.63 93.9201 315.64H93.9701C96.0601 315.64 97.0001 314.74 97.2301 314.47C98.0101 311.93 109.64 273.77 109.64 252.27C109.64 252.23 109.64 252.19 109.64 252.15C109.61 226.83 102.28 205.47 93.6101 205.47C84.9401 205.47 77.5801 226.91 77.5801 252.28C77.5801 274.11 89.5901 311.53 90.5301 314.4Z" fill="#24072B" style="fill:#24072B;fill:color(display-p3 0.1412 0.0275 0.1686);fill-opacity:1;"/>
<path d="M109.33 252.44H109.31C108.9 252.43 108.57 252.09 108.58 251.67C108.77 244.04 108.18 232.42 104.28 220.43C100.21 207.95 95.5701 206.49 93.7601 206.45C93.7201 206.45 93.6801 206.45 93.6401 206.45C91.3701 206.45 89.9101 208.08 89.8901 208.09C89.6201 208.4 89.1401 208.43 88.8301 208.16C88.5201 207.89 88.4801 207.42 88.7501 207.11C88.8301 207.02 90.6501 204.95 93.6301 204.95C93.6801 204.95 93.7401 204.95 93.7901 204.95C96.4301 205.02 101.49 207.06 105.69 219.97C109.66 232.17 110.26 243.96 110.07 251.71C110.06 252.12 109.73 252.44 109.32 252.44H109.33Z" fill="#FEF1FF" style="fill:#FEF1FF;fill:color(display-p3 0.9961 0.9451 1.0000);fill-opacity:1;"/>
<path d="M123.289 274.88C123.189 274.88 123.079 274.86 122.989 274.82C122.609 274.65 122.439 274.21 122.609 273.83L122.909 273.16C124.589 269.46 129.049 259.63 127.839 248C126.569 235.86 122.919 226.2 116.979 219.28C110.959 212.25 107.379 209.97 102.889 208.22C102.499 208.07 102.309 207.63 102.459 207.25C102.609 206.86 103.049 206.68 103.429 206.82C108.869 208.94 112.579 211.84 118.119 218.3C124.259 225.45 128.039 235.39 129.339 247.84C130.599 259.88 126.009 269.98 124.279 273.78L123.989 274.43C123.869 274.71 123.589 274.88 123.299 274.88H123.289Z" fill="#FEF1FF" style="fill:#FEF1FF;fill:color(display-p3 0.9961 0.9451 1.0000);fill-opacity:1;"/>
<path d="M83.3809 323.93C83.3809 323.93 94.2109 327.08 105.631 323.93L104.151 337.11C103.961 338.8 102.691 340.15 101.021 340.46C98.4209 340.94 94.1009 341.24 88.3509 339.92C86.8309 339.57 85.6809 338.32 85.4309 336.79L83.3809 323.94V323.93Z" fill="#4C14B5" style="fill:#4C14B5;fill:color(display-p3 0.2980 0.0784 0.7098);fill-opacity:1;"/>
<path d="M96.3004 341.62C94.0404 341.62 91.3204 341.37 88.1904 340.65C86.3704 340.23 85.0004 338.76 84.7004 336.91L82.6504 324.06C82.6504 324.06 82.6504 323.98 82.6504 323.94C82.6504 323.7 82.7604 323.48 82.9504 323.34C83.1404 323.2 83.3804 323.15 83.6104 323.21C83.7204 323.24 94.3804 326.26 105.45 323.21C105.69 323.14 105.95 323.21 106.14 323.36C106.33 323.52 106.43 323.77 106.4 324.01L104.92 337.19C104.69 339.21 103.19 340.82 101.18 341.19C99.9304 341.42 98.3004 341.61 96.3204 341.61L96.3004 341.62ZM84.3004 324.94L86.1704 336.67C86.3704 337.92 87.3004 338.91 88.5204 339.19C94.1404 340.48 98.3504 340.19 100.89 339.72C102.24 339.47 103.26 338.39 103.41 337.02L104.77 324.92C95.6904 327.14 87.2804 325.62 84.3104 324.92L84.3004 324.94Z" fill="#24072B" style="fill:#24072B;fill:color(display-p3 0.1412 0.0275 0.1686);fill-opacity:1;"/>
<path d="M83.3801 323.93C83.3801 323.93 84.1102 322.04 93.8602 322.04C104.38 322.04 105.63 323.93 105.63 323.93C105.63 323.93 105.1 325.15 94.8102 325.32C82.5202 325.52 83.3801 323.93 83.3801 323.93Z" fill="#24072B" style="fill:#24072B;fill:color(display-p3 0.1412 0.0275 0.1686);fill-opacity:1;"/>
<path d="M92.7708 326.09C83.7108 326.09 83.0308 324.97 82.7708 324.53C82.5708 324.2 82.5908 323.87 82.6908 323.64C82.9908 322.92 84.6908 321.29 93.8608 321.29C104.261 321.29 106.011 323.15 106.261 323.52C106.401 323.73 106.421 324 106.321 324.23C105.841 325.33 101.971 325.95 94.8208 326.07C94.0908 326.08 93.4108 326.09 92.7708 326.09ZM84.5708 323.95C85.5408 324.25 88.1108 324.68 94.8008 324.57C100.011 324.48 102.621 324.13 103.901 323.83C102.541 323.38 99.6708 322.79 93.8608 322.79C88.0508 322.79 85.5108 323.5 84.5708 323.95Z" fill="#24072B" style="fill:#24072B;fill:color(display-p3 0.1412 0.0275 0.1686);fill-opacity:1;"/>
<path d="M87.1602 324.68C86.7502 324.68 86.4102 324.34 86.4102 323.93V315.81C86.4102 315.4 86.7502 315.06 87.1602 315.06C87.5702 315.06 87.9102 315.4 87.9102 315.81V323.93C87.9102 324.34 87.5702 324.68 87.1602 324.68Z" fill="#24072B" style="fill:#24072B;fill:color(display-p3 0.1412 0.0275 0.1686);fill-opacity:1;"/>
<path d="M122.931 291.21C122.791 291.21 122.651 291.17 122.521 291.09C122.171 290.87 122.071 290.4 122.301 290.05L123.601 288.04C136.751 267.73 143.341 257.54 137.691 239.37C130.771 217.14 111.551 210.26 111.361 210.2C110.971 210.06 110.761 209.64 110.901 209.25C111.041 208.86 111.461 208.65 111.851 208.79C112.051 208.86 131.971 215.96 139.121 238.94C144.981 257.78 137.831 268.83 124.851 288.87L123.551 290.88C123.411 291.1 123.171 291.22 122.921 291.22L122.931 291.21Z" fill="#FEF1FF" style="fill:#FEF1FF;fill:color(display-p3 0.9961 0.9451 1.0000);fill-opacity:1;"/>
<path d="M103.42 337.09C103.42 337.09 103.37 337.09 103.34 337.09C102.93 337.05 102.63 336.67 102.68 336.26L103.76 326.3C102.34 326.57 99.4104 326.97 94.0304 327.1C91.6904 327.17 85.8404 326.71 85.5904 326.69C85.1804 326.66 84.8704 326.3 84.9004 325.88C84.9304 325.47 85.2704 325.16 85.7104 325.19C85.7704 325.19 91.7304 325.65 93.9904 325.6C101.87 325.42 104.36 324.63 104.38 324.62C104.62 324.54 104.89 324.59 105.09 324.75C105.29 324.91 105.39 325.16 105.37 325.41L104.17 336.42C104.13 336.8 103.8 337.09 103.43 337.09H103.42Z" fill="#FEF1FF" style="fill:#FEF1FF;fill:color(display-p3 0.9961 0.9451 1.0000);fill-opacity:1;"/>
<path d="M75.9892 243.17C75.9892 243.17 75.9592 243.17 75.9492 243.17C75.5392 243.15 75.2192 242.79 75.2392 242.38C75.2992 241.29 76.8392 215.49 86.5492 206.21C86.8492 205.92 87.3192 205.93 87.6092 206.23C87.8992 206.53 87.8892 207 87.5892 207.29C78.2992 216.16 76.7592 242.2 76.7392 242.46C76.7192 242.86 76.3892 243.17 75.9892 243.17Z" fill="#FEF1FF" style="fill:#FEF1FF;fill:color(display-p3 0.9961 0.9451 1.0000);fill-opacity:1;"/>
<path d="M57.0494 235.31C56.9794 235.31 56.9093 235.31 56.8393 235.28C56.4393 235.16 56.2193 234.74 56.3393 234.35C56.5493 233.64 61.6493 216.86 72.9293 209.96C73.2793 209.74 73.7493 209.86 73.9593 210.21C74.1793 210.56 74.0693 211.03 73.7093 211.24C62.9193 217.84 57.8293 234.61 57.7793 234.77C57.6793 235.1 57.3793 235.31 57.0593 235.31H57.0494Z" fill="#FEF1FF" style="fill:#FEF1FF;fill:color(display-p3 0.9961 0.9451 1.0000);fill-opacity:1;"/>
<path d="M245.061 295.44C245.061 295.44 228.541 297.18 228.091 292.06C227.641 286.94 212.161 287.93 207.101 288.17C202.041 288.41 203.531 292.04 198.471 291.83C193.411 291.62 166.941 294.1 178.241 295.44C189.541 296.78 192.451 297.52 196.801 298.51C201.151 299.5 200.961 295.8 210.431 297.53C219.901 299.26 229.021 302.21 238.741 300.98C248.461 299.75 273.211 296.32 245.071 295.45L245.061 295.44Z" fill="white" style="fill:white;fill:white;fill-opacity:1;"/>
<path d="M58.05 149.82C46.19 149.05 43.3 128.09 31.88 131.9C20.45 135.71 19 134.95 8.4 128.09C-2.2 121.24 -3.17 133.42 -12.32 133.42C-13.75 133.42 -15.33 133.41 -17 133.38C-16.6 134.71 -16.36 136.11 -16.36 137.52V143.94C-3.22 145.01 14.78 146.34 22.86 146.34C36.36 146.34 24 156.99 40.55 156.99C57.1 156.99 167.8 156.99 58.05 149.81V149.82Z" fill="white" style="fill:white;fill:white;fill-opacity:1;"/>
</g>
<defs>
<clipPath id="clip0_838_6357">
<rect width="340" height="380" fill="white" style="fill:white;fill:white;fill-opacity:1;"/>
</clipPath>
</defs>
</svg>
